<?xml version="1.0" standalone="no"?>
<!DOCTYPE svg PUBLIC "-//W3C//DTD SVG 1.1//EN" "http://www.w3.org/Graphics/SVG/1.1/DTD/svg11.dtd" >
<svg xmlns="http://www.w3.org/2000/svg" xmlns:xlink="http://www.w3.org/1999/xlink" version="1.1">
<metadata>
Created by FontForge 20170731 at Thu Aug 11 06:57:32 2022
 By Aleksey,,,
Copyright 2017-2019 The Inter project authors
</metadata>
<defs>
<font id="Inter-ExtraLightItalicBETA" horiz-adv-x="0" >
  <font-face 
    font-family="Inter Extra Light  BETA"
    font-weight="200"
    font-style="italic"
    font-stretch="normal"
    units-per-em="2048"
    panose-1="2 11 3 2 3 0 0 0 0 4"
    ascent="1638"
    descent="-410"
    x-height="1117"
    cap-height="1489"
    bbox="-1458 -762 3413 2199"
    underline-thickness="77"
    underline-position="-422"
    slope="-9.39999"
    unicode-range="U+0020-1F16B"
  />
<missing-glyph horiz-adv-x="1960" 
d="M126 1071l-25 372h1642l26 -372h-1643zM227 -465l-23 372h1640l26 -372h-1643zM194 47l-25 372h1643l23 -372h-1641zM93 1583l-25 372h1643l23 -372h-1641zM159 559l-23 372h1641l24 -372h-1642z" />
    <glyph glyph-name=".notdef" horiz-adv-x="1960" 
d="M126 1071l-25 372h1642l26 -372h-1643zM227 -465l-23 372h1640l26 -372h-1643zM194 47l-25 372h1643l23 -372h-1641zM93 1583l-25 372h1643l23 -372h-1641zM159 559l-23 372h1641l24 -372h-1642z" />
    <glyph glyph-name=".null" 
 />
    <glyph glyph-name="nonmarkingreturn" horiz-adv-x="682" 
 />
    <glyph glyph-name="uni0020" unicode=" " horiz-adv-x="576" 
 />
    <glyph glyph-name="uni0021" unicode="!" horiz-adv-x="546" 
d="M476 1489l-180 -1055h-87l170 1055h97zM189 -9q-33 0 -54.5 22.5t-20.5 55.5t25 55t57 22t55 -22.5t20 -54.5q-1 -33 -25.5 -55.5t-56.5 -22.5z" />
    <glyph glyph-name="uni0022" unicode="&#x22;" horiz-adv-x="741" 
d="M411 1489l-80 -480h-84l80 480h84zM721 1489l-80 -480h-84l80 480h84z" />
    <glyph glyph-name="uni0023" unicode="#" horiz-adv-x="1295" 
d="M780 0l73 446h-444l-74 -446h-79l73 446h-254l13 80h255l71 438h-254l14 80h253l73 445h80l-74 -445h445l73 445h79l-73 -445h255l-14 -80h-254l-72 -438h254l-13 -80h-254l-73 -446h-79zM422 526h444l71 438h-444z" />
    <glyph glyph-name="uni0024" unicode="$" horiz-adv-x="1271" 
d="M479 -186l27 163q-199 7 -305.5 112t-89.5 272h93q-12 -131 74.5 -211t241.5 -88l111 664l-63 19q-339 107 -297 372q28 164 164.5 273t324.5 121l28 165h70l-27 -165q185 -9 285 -119t83 -279h-88q8 136 -70 221t-224 93l-105 -632l62 -19q85 -27 146.5 -59.5t109 -78.5
t65.5 -109t5 -142q-30 -175 -169.5 -287t-353.5 -123l-27 -163h-71zM591 63q166 11 281.5 99.5t137.5 225.5q19 113 -49.5 184.5t-225.5 120.5l-38 12zM645 816l101 610q-149 -11 -256.5 -96.5t-128.5 -209.5q-33 -203 258 -296z" />
    <glyph glyph-name="uni0025" unicode="%" horiz-adv-x="1609" 
d="M265 1159l11 57q20 128 106 211t201 83q116 0 173.5 -82t37.5 -212l-9 -57q-22 -129 -108 -211.5t-201 -82.5t-174 83t-37 211zM879 273l8 58q21 128 107.5 211t201.5 83t173 -83t37 -211l-9 -58q-21 -129 -106.5 -211t-201.5 -82q-115 0 -173 82t-37 211zM968 331
l-9 -58q-17 -98 22 -159.5t121 -61.5q80 0 139 61.5t76 159.5l9 58q17 97 -22.5 159t-119.5 62t-139.5 -61.5t-76.5 -159.5zM356 1216l-10 -57q-17 -97 22.5 -159.5t120.5 -62.5q80 0 139 62t76 160l9 57q15 98 -23 159.5t-120 61.5q-80 0 -139.5 -62t-74.5 -159zM214 0
l1137 1489h95l-1138 -1489h-94z" />
    <glyph glyph-name="uni0026" unicode="&#x26;" horiz-adv-x="1233" 
d="M465 -20q-190 0 -295.5 115t-76.5 285q18 110 97 198.5t243 195.5l50 33q-2 2 -5 7t-5 7q-23 35 -35 54t-29.5 48.5t-26.5 47.5t-20.5 42.5t-16 43.5t-9 41.5t-4 43.5t4.5 44q22 135 133 228.5t251 93.5q139 0 213.5 -87.5t52.5 -218.5q-15 -94 -77.5 -171t-185.5 -160
l-121 -81l313 -495q97 123 141 283l86 -4q-46 -184 -182 -349l142 -225h-107l-99 155q-1 -1 -3 -3.5t-3.5 -4t-3.5 -2.5q-88 -77 -200.5 -121t-221.5 -44zM852 225l-325 514l-76 -50q-134 -90 -195 -163t-73 -146q-21 -134 59.5 -228t226.5 -91q217 5 383 164zM560 858
l117 78q106 68 157.5 129t63.5 137q15 95 -35 160.5t-147 65.5q-100 0 -188 -73.5t-103 -169.5q-10 -62 17 -123t102 -179q2 -4 7.5 -12.5t8.5 -12.5z" />
    <glyph glyph-name="uni0027" unicode="'" horiz-adv-x="430" 
d="M411 1489l-80 -480h-84l80 480h84z" />
    <glyph glyph-name="uni0028" unicode="(" horiz-adv-x="677" 
d="M244 628q82 495 389 931h83q-140 -198 -240.5 -443.5t-141.5 -487.5q-40 -247 -20 -488.5t94 -442.5h-83q-163 443 -81 931z" />
    <glyph glyph-name="uni0029" unicode=")" horiz-adv-x="677" 
d="M457 628q-82 -495 -389 -931h-83q140 198 240.5 443.5t141.5 487.5q40 247 20 488.5t-94 442.5h83q163 -443 81 -931z" />
    <glyph glyph-name="uni002A" unicode="*" horiz-adv-x="1024" 
d="M488 652l65 358l-338 -183l-32 68l344 178l-283 173l46 68l281 -185l57 360h77l-64 -358l336 183l33 -68l-344 -178l283 -173l-45 -68l-281 185l-58 -360h-77z" />
    <glyph glyph-name="uni002B" unicode="+" horiz-adv-x="1306" 
d="M542 146l65 394h-392l14 85h392l66 394h85l-65 -394h395l-15 -85h-395l-64 -394h-86z" />
    <glyph glyph-name="uni002C" unicode="," horiz-adv-x="541" 
d="M295 204l-28 -77q-136 -378 -191 -491h-69q136 395 165 486l28 82h95z" />
    <glyph glyph-name="uni002D" unicode="-" horiz-adv-x="913" 
d="M771 681l-15 -85h-587l14 85h588z" />
    <glyph glyph-name="uni002E" unicode="." horiz-adv-x="533" 
d="M183 -9q-33 0 -54.5 22.5t-20.5 55.5t25 55t57 22t55 -22.5t20 -54.5q-1 -33 -25.5 -55.5t-56.5 -22.5z" />
    <glyph glyph-name="uni002F" unicode="/" horiz-adv-x="684" 
d="M791 1559l-776 -1783h-83l774 1783h85z" />
    <glyph glyph-name="uni0030" unicode="0" horiz-adv-x="1233" 
d="M519 -20q-224 0 -316.5 203t-33.5 562q59 357 219.5 561t383.5 204q224 0 317.5 -203.5t34.5 -561.5t-220 -561.5t-385 -203.5zM529 64q181 0 316.5 179t189.5 502q52 317 -19 499t-253 182q-181 0 -316 -179t-188 -502q-53 -318 17.5 -499.5t252.5 -181.5z" />
    <glyph glyph-name="uni0031" unicode="1" horiz-adv-x="852" 
d="M706 1489l-247 -1489h-92l221 1332h-11q-34 -43 -129.5 -96.5t-206.5 -56.5l14 81q49 1 99 18t86.5 40t72 53.5t56 52.5t38.5 44l18 21h81z" />
    <glyph glyph-name="uni0032" unicode="2" horiz-adv-x="1260" 
d="M84 0l12 69l573 556q193 186 267.5 286t91.5 205q23 136 -51.5 223t-214.5 87q-145 0 -254 -93t-133 -231h-88q29 174 167 291t319 117q176 0 273.5 -112.5t68.5 -281.5q-20 -123 -103 -236.5t-299 -320.5l-482 -467l-1 -8h782l-15 -84h-913z" />
    <glyph glyph-name="uni0033" unicode="3" horiz-adv-x="1272" 
d="M549 -20q-199 0 -313.5 110.5t-87.5 281.5h91q-19 -136 68 -222t243 -86q165 0 289 94.5t147 237.5q23 147 -73.5 237.5t-279.5 90.5h-56l13 85h53q159 0 277 86.5t140 228.5q23 134 -49 218t-217 84q-146 0 -261 -86.5t-138 -222.5h-90q30 172 169.5 282.5t320.5 110.5
q185 0 283 -112.5t70 -278.5q-19 -126 -106 -217.5t-217 -128.5v-7q139 -33 206.5 -134.5t44.5 -242.5q-29 -179 -176.5 -294t-350.5 -115z" />
    <glyph glyph-name="uni0034" unicode="4" horiz-adv-x="1250" 
d="M104 335l12 72l853 1082h104l-178 -1070h193l-15 -84h-192l-56 -335h-88l56 335h-689zM807 419l154 930h-7l-726 -922v-8h579z" />
    <glyph glyph-name="uni0035" unicode="5" horiz-adv-x="1194" 
d="M487 -20q-180 0 -279 110.5t-73 281.5h89q-19 -136 55.5 -222t215.5 -86q162 0 288.5 115t153.5 286q29 178 -58.5 289.5t-245.5 111.5q-79 0 -158.5 -29t-139.5 -76l-99 15l206 713h698l-14 -84h-621l-160 -558h7q134 104 300 104q94 0 172 -35.5t129 -98.5t71.5 -154
t2.5 -197q-36 -210 -188.5 -348t-351.5 -138z" />
    <glyph glyph-name="uni0036" unicode="6" horiz-adv-x="1221" 
d="M529 -20q-97 0 -173 40t-129.5 125.5t-66.5 218.5t15 319q22 136 58 256t90 226t121.5 182t157 120t191.5 44q170 0 263.5 -109t80.5 -285h-88q7 141 -58 225t-198 84q-196 0 -333 -188.5t-197 -544.5l8 4q61 105 175.5 170t237.5 65q185 0 292.5 -138t73.5 -341
q-22 -128 -94.5 -235.5t-185 -172.5t-241.5 -65zM532 64q153 0 277 115.5t153 280.5q26 164 -56.5 275.5t-233.5 111.5q-162 0 -291.5 -123.5t-135.5 -284.5q-5 -174 72 -274.5t215 -100.5z" />
    <glyph glyph-name="uni0037" unicode="7" horiz-adv-x="1136" 
d="M123 0l924 1397v8h-795l15 84h894l-16 -87l-924 -1402h-98z" />
    <glyph glyph-name="uni0038" unicode="8" horiz-adv-x="1242" 
d="M529 -20q-204 0 -323 119t-90 293q23 135 127.5 242.5t239.5 135.5v6q-108 35 -161 133t-31 220q28 162 167.5 271.5t316.5 109.5q180 0 286.5 -112t79.5 -276q-21 -122 -108 -216t-207 -130v-6q128 -28 197.5 -138t46.5 -248q-29 -171 -184.5 -287.5t-356.5 -116.5z
M529 64q169 0 299 96t153 236q23 142 -67 237.5t-251 95.5q-166 0 -299.5 -99t-156.5 -241q-23 -139 67.5 -232t254.5 -93zM652 808q143 0 260.5 92.5t140.5 225.5q21 131 -57 215.5t-220 84.5q-146 0 -261.5 -88t-136.5 -220q-23 -131 56 -220.5t218 -89.5z" />
    <glyph glyph-name="uni0039" unicode="9" horiz-adv-x="1221" 
d="M756 1513q97 0 172.5 -40t128.5 -125.5t66.5 -218.5t-14.5 -320q-28 -172 -78 -317t-124.5 -262t-181 -183.5t-233.5 -66.5q-171 0 -264 109t-80 286h88q-7 -142 58 -226.5t198 -84.5q195 0 333 190t197 545l-7 -4q-62 -105 -176.5 -169.5t-237.5 -64.5q-121 0 -213 62
t-134 172.5t-19 243.5q22 128 94 235.5t185 173t242 65.5zM753 1428q-154 0 -278.5 -116t-151.5 -280q-26 -164 56.5 -275.5t233.5 -111.5q79 0 156 34t135.5 89.5t95.5 131t39 154.5q5 174 -71.5 274t-214.5 100z" />
    <glyph glyph-name="uni003A" unicode=":" horiz-adv-x="533" 
d="M325 851q-33 0 -54.5 22.5t-20.5 55.5t25 55.5t57 22.5t55 -23t20 -55q-1 -33 -25.5 -55.5t-56.5 -22.5zM194 68q-33 0 -54.5 23t-20.5 56t25 55t57 22t55 -22.5t20 -54.5q-1 -33 -25.5 -56t-56.5 -23z" />
    <glyph glyph-name="uni003B" unicode=";" horiz-adv-x="544" 
d="M295 204l-28 -77q-136 -378 -191 -491h-69q136 395 165 486l28 82h95zM331 851q-33 0 -54.5 22.5t-20.5 55.5t25 55.5t57 22.5t55 -23t20 -55q-1 -33 -25.5 -55.5t-56.5 -22.5z" />
    <glyph glyph-name="uni003C" unicode="&#x3c;" horiz-adv-x="1306" 
d="M230 547l12 70l927 504l-16 -99l-807 -437l-1 -8l662 -435l-16 -99z" />
    <glyph glyph-name="uni003D" unicode="=" horiz-adv-x="1306" 
d="M247 338l15 84h741l-15 -84h-741zM313 742l15 83h740l-14 -83h-741z" />
    <glyph glyph-name="uni003E" unicode="&#x3e;" horiz-adv-x="1306" 
d="M1073 547l-925 -504l16 99l806 437l1 6l-662 437l16 99l761 -504z" />
    <glyph glyph-name="uni003F" unicode="?" horiz-adv-x="1000" 
d="M391 434l13 74q22 132 80.5 208.5t182.5 151.5q113 70 164.5 127t64.5 145q19 128 -51 208t-198 80q-133 0 -239.5 -88t-131.5 -223h-92q31 173 165 283t306 110q170 0 262 -107t68 -266q-17 -112 -76.5 -181.5t-190.5 -150.5q-112 -70 -160 -132.5t-66 -164.5l-12 -74
h-89zM375 -9q-33 0 -54.5 22.5t-20.5 55.5t25 55t57 22t55 -22.5t20 -54.5q-1 -33 -25.5 -55.5t-56.5 -22.5z" />
    <glyph glyph-name="uni0040" unicode="@" horiz-adv-x="1917" 
d="M1117 1432q121 0 229 -32t189.5 -89.5t145.5 -138t98.5 -177.5t46.5 -207.5t-9 -228.5q-17 -104 -53.5 -194.5t-90 -162.5t-129 -113.5t-162.5 -41.5q-187 0 -163 205h-7q-61 -98 -158.5 -157.5t-212.5 -58.5q-116 1 -197.5 66.5t-113.5 176.5t-9 245q33 198 171 334.5
t309 142.5q113 4 194 -52t105 -148h7l32 186h83l-117 -694q-15 -92 4.5 -131t84.5 -39q125 0 216 117.5t126 320.5q35 214 -30 395t-222.5 290.5t-377.5 109.5q-223 0 -421 -108t-332 -300t-173 -429q-30 -179 2.5 -334.5t117.5 -265.5t222 -173t309 -63q116 0 235 33.5
t210 86.5l22 -70q-102 -59 -229 -93.5t-248 -34.5q-190 0 -342 69t-247.5 189.5t-132.5 290.5t-4 367q42 260 189 468.5t366 325.5t467 117zM1004 922q-141 0 -258.5 -116t-143.5 -279q-19 -112 5 -205t89.5 -149.5t161.5 -56.5q149 0 262.5 115t144.5 296
q29 180 -43.5 287.5t-217.5 107.5z" />
    <glyph glyph-name="uni0041" unicode="A" horiz-adv-x="1303" 
d="M65 0h-96l784 1489h105l290 -1489h-96l-91 476h-647zM359 561h586l-154 811h-8z" />
    <glyph glyph-name="uni0042" unicode="B" horiz-adv-x="1318" 
d="M122 0l247 1489h484q200 0 292 -104t62 -280q-23 -133 -100 -222t-188 -116v-8q118 -10 186 -113t42 -260q-29 -176 -160 -281t-342 -105h-523zM228 84h432q164 0 269.5 83t129.5 219q23 142 -58.5 235.5t-233.5 93.5h-435zM347 798h424q137 0 231.5 87.5t115.5 219.5
q24 140 -49 220t-230 80h-393z" />
    <glyph glyph-name="uni0043" unicode="C" horiz-adv-x="1483" 
d="M1423 1024h-91q-2 103 -49.5 192.5t-144.5 148t-225 58.5q-111 0 -217 -45.5t-194.5 -130t-153 -215.5t-90.5 -291q-27 -165 -6 -290.5t81.5 -211t150 -129t200.5 -43.5q129 0 246 58t194.5 147t115.5 193h93q-32 -93 -92 -178t-142.5 -154.5t-192.5 -111t-230 -41.5
q-281 0 -422.5 211.5t-84.5 556.5q57 343 265.5 552.5t487.5 209.5q121 0 218.5 -41.5t158 -110.5t92.5 -154.5t32 -179.5z" />
    <glyph glyph-name="uni0044" unicode="D" horiz-adv-x="1466" 
d="M537 0h-415l247 1489h443q314 0 459.5 -198t86.5 -546q-60 -353 -275 -549t-546 -196zM227 84h318q292 0 482.5 178.5t241.5 490.5q51 313 -68.5 482.5t-402.5 169.5h-351z" />
    <glyph glyph-name="uni0045" unicode="E" horiz-adv-x="1205" 
d="M122 0l247 1489h830l-15 -84h-738l-102 -617h694l-15 -85h-694l-101 -619h755l-14 -84h-847z" />
    <glyph glyph-name="uni0046" unicode="F" horiz-adv-x="1199" 
d="M122 0l247 1489h832l-15 -84h-740l-102 -617h671l-14 -85h-672l-116 -703h-91z" />
    <glyph glyph-name="uni0047" unicode="G" horiz-adv-x="1515" 
d="M1332 1024q-4 79 -30.5 148.5t-75.5 127t-129.5 90.5t-183.5 33q-110 0 -214.5 -45.5t-193.5 -129.5t-154 -214t-92 -289q-52 -313 64 -495.5t366 -182.5q218 0 383.5 148.5t208.5 398.5h-475l15 84h564l-16 -84q-32 -194 -131.5 -338.5t-244 -220t-315.5 -75.5
q-288 0 -427.5 209.5t-81.5 555.5q56 344 265 554.5t489 210.5q123 0 221 -42t158 -112t91.5 -155t31.5 -177h-93z" />
    <glyph glyph-name="uni0048" unicode="H" horiz-adv-x="1509" 
d="M122 0l247 1489h91l-116 -701h897l117 701h91l-248 -1489h-90l116 703h-898l-116 -703h-91z" />
    <glyph glyph-name="uni0049" unicode="I" horiz-adv-x="520" 
d="M460 1489l-247 -1489h-91l247 1489h91z" />
    <glyph glyph-name="uni004A" unicode="J" horiz-adv-x="1080" 
d="M928 1489h91l-179 -1085q-35 -213 -156.5 -318.5t-292.5 -105.5q-166 0 -260.5 90.5t-71.5 232.5h89q-17 -105 54.5 -172t195.5 -67q131 0 226.5 84t125.5 259z" />
    <glyph glyph-name="uni004B" unicode="K" horiz-adv-x="1285" 
d="M122 0l247 1489h91l-143 -864h10l929 864h121l-763 -704l510 -785h-114l-465 719l-250 -234l-82 -485h-91z" />
    <glyph glyph-name="uni004C" unicode="L" horiz-adv-x="1152" 
d="M122 0l247 1489h91l-232 -1405h727l-15 -84h-818z" />
    <glyph glyph-name="uni004D" unicode="M" horiz-adv-x="1786" 
d="M369 1489h99l349 -1358h10l799 1358h99l-247 -1489h-87l212 1273h-9l-751 -1273h-86l-326 1273h-9l-213 -1273h-87z" />
    <glyph glyph-name="uni004E" unicode="N" horiz-adv-x="1568" 
d="M1508 1489l-248 -1489h-88l-730 1324h-9l-220 -1324h-91l247 1489h90l730 -1325h9l219 1325h91z" />
    <glyph glyph-name="uni004F" unicode="O" horiz-adv-x="1539" 
d="M1429 741q-57 -343 -265 -552t-486 -209q-187 0 -315.5 95.5t-179.5 270t-14 402.5q58 343 267 552.5t488 209.5q138 0 246.5 -55t174.5 -155.5t90.5 -242.5t-6.5 -316zM1341 748q51 309 -65 492t-353 183q-243 0 -427.5 -186.5t-237.5 -495.5q-52 -308 64.5 -491
t355.5 -183q244 0 429 186.5t234 494.5z" />
    <glyph glyph-name="uni0050" unicode="P" horiz-adv-x="1260" 
d="M122 0l247 1489h459q209 0 311 -125t68 -323q-31 -196 -175 -321.5t-352 -125.5h-369l-98 -594h-91zM326 679h366q169 0 283.5 100.5t141.5 261.5q27 163 -54 263.5t-251 100.5h-366z" />
    <glyph glyph-name="uni0051" unicode="Q" horiz-adv-x="1549" 
d="M1429 741q-33 -198 -119 -355t-213 -257l203 -269h-105l-166 221q-163 -101 -351 -101q-187 0 -315.5 95.5t-179.5 270t-14 402.5q58 343 267 552.5t488 209.5q138 0 246.5 -55t174.5 -155.5t90.5 -242.5t-6.5 -316zM738 465h105l202 -267q113 90 190 231t106 319
q51 309 -65 492t-353 183q-243 0 -427.5 -186.5t-237.5 -495.5q-52 -308 64.5 -491t355.5 -183q160 0 299 84z" />
    <glyph glyph-name="uni0052" unicode="R" horiz-adv-x="1276" 
d="M122 0l247 1489h459q210 0 311.5 -119t70.5 -316q-26 -151 -118.5 -258t-234.5 -149l243 -647h-100l-235 628q-31 -5 -79 -5h-370l-103 -623h-91zM330 708h367q170 0 283.5 93.5t139.5 252.5q26 162 -55.5 256.5t-252.5 94.5h-366z" />
    <glyph glyph-name="uni0053" unicode="S" horiz-adv-x="1271" 
d="M1111 1113q9 143 -77.5 229t-245.5 86q-162 0 -283 -87.5t-144 -220.5q-33 -203 258 -296l155 -48q85 -27 146.5 -59.5t109 -78.5t65.5 -109t5 -142q-31 -184 -182.5 -297.5t-381.5 -113.5q-213 0 -327.5 106t-97.5 279h93q-13 -138 82.5 -219t264.5 -81q180 0 307.5 91
t151.5 236q19 113 -49.5 184.5t-225.5 120.5l-167 52q-339 107 -297 372q29 174 179 284.5t352 110.5q197 0 306 -112t91 -287h-88z" />
    <glyph glyph-name="uni0054" unicode="T" horiz-adv-x="1276" 
d="M256 1405l15 84h1043l-14 -84h-477l-232 -1405h-91l232 1405h-476z" />
    <glyph glyph-name="uni0055" unicode="U" horiz-adv-x="1530" 
d="M1378 1489h91l-163 -986q-39 -232 -220.5 -379.5t-416.5 -147.5q-114 0 -209 39t-157.5 107.5t-88.5 167t-7 213.5l162 986h91l-163 -986q-22 -128 21 -229t137.5 -156t222.5 -55q196 0 350 123.5t187 316.5z" />
    <glyph glyph-name="uni0056" unicode="V" horiz-adv-x="1303" 
d="M312 1489l261 -1372h10l717 1372h96l-785 -1489h-105l-290 1489h96z" />
    <glyph glyph-name="uni0057" unicode="W" horiz-adv-x="1865" 
d="M369 0l-162 1489h95l137 -1349h9l584 1349h111l133 -1349h9l588 1349h96l-657 -1489h-107l-138 1340h-8l-585 -1340h-105z" />
    <glyph glyph-name="uni0058" unicode="X" horiz-adv-x="1237" 
d="M327 1489l328 -674h8l552 674h112l-612 -744l364 -745h-105l-329 670h-8l-552 -670h-113l619 745l-372 744h108z" />
    <glyph glyph-name="uni0059" unicode="Y" horiz-adv-x="1291" 
d="M218 1489h104l350 -718h12l588 718h110l-672 -813l-111 -676h-92l112 676z" />
    <glyph glyph-name="uni005A" unicode="Z" horiz-adv-x="1253" 
d="M53 0l14 75l1068 1330h-846l13 84h958l-10 -74l-1072 -1331h857l-15 -84h-967z" />
    <glyph glyph-name="uni005B" unicode="[" horiz-adv-x="677" 
d="M108 -303l309 1862h314l-13 -78h-229l-282 -1705h229l-13 -79h-315z" />
    <glyph glyph-name="uni005C" unicode="\" horiz-adv-x="640" 
d="M129 1489h101l319 -1713h-101z" />
    <glyph glyph-name="uni005D" unicode="]" horiz-adv-x="677" 
d="M593 1559l-309 -1862h-314l13 79h229l282 1705h-229l14 78h314z" />
    <glyph glyph-name="uni005E" unicode="^" horiz-adv-x="866" 
d="M133 815l402 628h88l194 -628h-90l-157 526h-6l-336 -526h-95z" />
    <glyph glyph-name="uni005F" unicode="_" horiz-adv-x="890" 
d="M802 0l-17 -110h-901l18 110h900z" />
    <glyph glyph-name="uni0060" unicode="`" horiz-adv-x="1018" 
d="M776 1276h-80l-164 322h103z" />
    <glyph glyph-name="uni0061" unicode="a" horiz-adv-x="1123" 
d="M384 -24q-151 0 -237.5 89t-62.5 243q24 140 137.5 215t340.5 102q174 20 223 35q83 25 93 80l7 46q21 123 -41.5 194.5t-196.5 71.5q-116 0 -211 -52t-144 -136l-77 31q65 116 183.5 177.5t253.5 61.5q76 0 139.5 -21.5t110 -63.5t66 -111.5t4.5 -157.5l-129 -780h-89
l34 201h-6q-62 -99 -166.5 -162t-231.5 -63zM401 58q157 0 278.5 112.5t149.5 282.5l28 164q-60 -45 -298 -71q-186 -22 -277.5 -79.5t-109.5 -161.5q-18 -113 46 -180t183 -67z" />
    <glyph glyph-name="uni0062" unicode="b" horiz-adv-x="1240" 
d="M122 0l247 1489h88l-101 -621h8q60 117 164.5 191.5t239.5 74.5q132 0 222 -74t123 -205.5t5 -298.5q-42 -255 -191 -417t-350 -162q-136 0 -214.5 74.5t-102.5 192.5h-11l-40 -244h-87zM303 556q-36 -220 36 -358.5t239 -138.5q168 0 292 141t160 356q23 142 0.5 253
t-94 176.5t-183.5 65.5q-168 0 -291 -139t-159 -356z" />
    <glyph glyph-name="uni0063" unicode="c" horiz-adv-x="1135" 
d="M507 -23q-142 0 -239.5 75.5t-135 207t-10.5 295.5q41 251 203 415t373 164q160 0 258 -95.5t97 -250.5h-90q-2 118 -75.5 190.5t-197.5 72.5q-174 0 -309.5 -139.5t-170.5 -355.5q-36 -216 48.5 -356.5t257.5 -140.5q124 0 227.5 73.5t145.5 193.5h91
q-51 -157 -181 -253t-292 -96z" />
    <glyph glyph-name="uni0064" unicode="d" horiz-adv-x="1241" 
d="M472 -23q-133 0 -222.5 74t-122.5 205.5t-6 299.5q43 255 193 416.5t350 161.5q135 0 214 -74.5t102 -191.5h8l104 621h88l-247 -1489h-86l40 244h-11q-63 -118 -166 -192.5t-238 -74.5zM487 59q168 0 291 139.5t159 357.5q37 219 -36.5 357t-240.5 138
q-168 0 -291 -139.5t-159 -355.5q-23 -142 -0.5 -253.5t94 -177.5t183.5 -66z" />
    <glyph glyph-name="uni0065" unicode="e" horiz-adv-x="1186" 
d="M524 -23q-149 0 -250.5 74.5t-140.5 205t-11 296.5q41 251 203.5 416t369.5 165q94 0 172 -38.5t130 -107t72.5 -171t0.5 -223.5l-10 -55h-853q-34 -218 51.5 -349t276.5 -131q123 0 216 58t144 134l74 -33q-59 -98 -175.5 -169.5t-269.5 -71.5zM223 620h761
q20 119 -11.5 218t-106.5 156t-180 57q-155 0 -288 -125.5t-175 -305.5z" />
    <glyph glyph-name="uni0066" unicode="f" horiz-adv-x="698" 
d="M699 1117l-13 -79h-245l-173 -1038h-88l173 1038h-163l14 79h162l27 160q19 122 112 194.5t208 72.5q52 0 108 -20l-38 -78q-49 14 -79 14q-85 0 -148 -53t-78 -144l-24 -146h245z" />
    <glyph glyph-name="uni0067" unicode="g" horiz-adv-x="1213" 
d="M424 -442q-154 0 -252.5 59.5t-128.5 164.5l80 41q25 -85 101.5 -134.5t206.5 -49.5q166 0 274 85.5t136 252.5l46 278h-9q-57 -113 -163 -181t-239 -68q-200 0 -297.5 151.5t-55.5 401.5q42 254 191 414.5t350 160.5q136 0 213.5 -73.5t103.5 -192.5h10l41 249h86
l-189 -1143q-34 -205 -168.5 -310.5t-336.5 -105.5zM491 88q168 0 289.5 126.5t158.5 344.5q35 217 -39.5 354.5t-241.5 137.5q-168 0 -289.5 -139t-156.5 -353t37.5 -342.5t241.5 -128.5z" />
    <glyph glyph-name="uni0068" unicode="h" horiz-adv-x="1178" 
d="M300 724l-120 -724h-89l247 1489h89l-90 -549h8q53 89 149.5 140.5t215.5 51.5q171 0 258 -106.5t57 -288.5l-123 -737h-88l122 733q23 143 -45.5 229.5t-207.5 86.5q-143 0 -251 -90t-132 -235z" />
    <glyph glyph-name="uni0069" unicode="i" horiz-adv-x="464" 
d="M95 0l186 1117h88l-186 -1117h-88zM367 1316q-31 0 -52 21.5t-18 51.5q2 26 24 46t50 20q32 0 52.5 -21t17.5 -52q-1 -27 -23 -46.5t-51 -19.5z" />
    <glyph glyph-name="uni006A" unicode="j" horiz-adv-x="464" 
d="M281 1117h88l-207 -1253q-22 -128 -112 -205.5t-214 -77.5q-16 0 -25 2l17 82h21q84 0 146.5 53.5t77.5 145.5zM365 1315q-31 0 -52 21.5t-18 51.5q2 26 24 46.5t50 20.5q32 0 52.5 -21.5t17.5 -52.5q-1 -27 -23 -46.5t-51 -19.5z" />
    <glyph glyph-name="uni006B" unicode="k" horiz-adv-x="1036" 
d="M91 0l247 1489h89l-154 -924h11l647 552h119l-565 -481l402 -636h-110l-365 579l-158 -132l-74 -447h-89z" />
    <glyph glyph-name="uni006C" unicode="l" horiz-adv-x="456" 
d="M427 1489l-247 -1489h-89l247 1489h89z" />
    <glyph glyph-name="uni006D" unicode="m" horiz-adv-x="1733" 
d="M91 0l186 1117h87l-29 -169h8q48 85 135.5 134.5t196.5 49.5q230 0 268 -216h8q49 100 144 158t218 58q159 0 229 -101.5t40 -280.5l-125 -750h-89l125 750q24 142 -29.5 220.5t-180.5 78.5q-136 0 -227 -84.5t-113 -221.5l-125 -743h-89l126 756q22 136 -30 214.5
t-179 78.5q-132 0 -226.5 -88.5t-117.5 -227.5l-122 -733h-89z" />
    <glyph glyph-name="uni006E" unicode="n" horiz-adv-x="1175" 
d="M300 724l-120 -724h-89l186 1117h87l-29 -177h8q53 88 149.5 140t214.5 52q170 0 257 -107t57 -288l-123 -737h-89l123 733q23 143 -45.5 229.5t-206.5 86.5q-142 0 -248.5 -90t-131.5 -235z" />
    <glyph glyph-name="uni006F" unicode="o" horiz-adv-x="1198" 
d="M509 -23q-209 0 -318 165t-68 420q41 249 201 410.5t363 161.5q210 0 320 -166t69 -421q-41 -248 -201.5 -409t-365.5 -161zM510 59q177 0 311 144t168 359q22 136 -6 247t-105 176.5t-189 65.5q-116 0 -219 -67.5t-171 -182t-90 -254.5q-23 -136 5.5 -247t105.5 -176
t190 -65z" />
    <glyph glyph-name="uni0070" unicode="p" horiz-adv-x="1205" 
d="M17 -419l256 1536h87l-41 -249h10q62 118 165 192t239 74q133 0 223 -74t122.5 -205t4.5 -299q-42 -255 -192 -417t-349 -162q-134 0 -213.5 74.5t-103.5 192.5h-9l-111 -663h-88zM268 556q-24 -144 -0.5 -255.5t94.5 -176.5t181 -65q168 0 292 141t160 356
q23 142 0.5 253t-94 176.5t-183.5 65.5q-168 0 -291 -139t-159 -356z" />
    <glyph glyph-name="uni0071" unicode="q" horiz-adv-x="1216" 
d="M881 -419h-88l110 663h-9q-63 -118 -167 -192.5t-239 -74.5q-199 0 -295 162t-54 417q42 256 190.5 417t350.5 161q136 0 214.5 -74t101.5 -192h10l42 249h87zM954 556q24 142 -1.5 254t-99.5 176.5t-185 64.5q-168 0 -286.5 -138.5t-154.5 -356.5q-24 -141 2 -253
t100 -178t185 -66q166 0 284.5 138.5t155.5 358.5z" />
    <glyph glyph-name="uni0072" unicode="r" horiz-adv-x="756" 
d="M91 0l186 1117h87l-29 -174h8q49 86 145 137.5t207 51.5q76 0 125 -27l-43 -76q-39 18 -103 18q-140 0 -245 -88t-127 -223l-122 -736h-89z" />
    <glyph glyph-name="uni0073" unicode="s" horiz-adv-x="1029" 
d="M946 876l-85 -20q-33 197 -242 197q-125 0 -214 -62.5t-105 -161.5q-13 -79 30.5 -129.5t147.5 -77.5l166 -43q126 -33 181 -107.5t37 -183.5q-23 -139 -146 -225t-297 -86q-157 0 -245.5 74t-95.5 211l88 17q5 -109 71 -165t188 -56q138 0 234.5 66t113.5 169
q26 156 -165 204l-169 43q-132 33 -189.5 108.5t-39.5 185.5q23 133 138.5 216.5t276.5 83.5q279 0 321 -258z" />
    <glyph glyph-name="uni0074" unicode="t" horiz-adv-x="723" 
d="M672 1117l-14 -79h-235l-127 -774q-16 -97 29.5 -146.5t127.5 -49.5q32 0 77 13l8 -81q-49 -18 -107 -18q-111 0 -178 72t-47 194l130 790h-165l13 79h164l45 268h88l-45 -268h236z" />
    <glyph glyph-name="uni0075" unicode="u" horiz-adv-x="1172" 
d="M873 396l120 721h88l-186 -1117h-88l30 181h-8q-54 -88 -151.5 -142t-214.5 -54q-167 0 -253 107t-56 288l123 737h89l-122 -733q-23 -139 47.5 -225.5t205.5 -86.5t243.5 89.5t132.5 234.5z" />
    <glyph glyph-name="uni0076" unicode="v" horiz-adv-x="1093" 
d="M1094 1117l-590 -1117h-100l-218 1117h91l189 -1003h8l521 1003h99z" />
    <glyph glyph-name="uni0077" unicode="w" horiz-adv-x="1632" 
d="M335 0l-149 1117h91l124 -987h8l453 987h92l125 -986h7l452 986h95l-521 -1117h-99l-125 971h-9l-446 -971h-98z" />
    <glyph glyph-name="uni0078" unicode="x" horiz-adv-x="1047" 
d="M318 1117l217 -480l376 480h105l-438 -543l271 -574h-101l-231 503l-401 -503h-104l459 574l-254 543h101z" />
    <glyph glyph-name="uni0079" unicode="y" horiz-adv-x="1093" 
d="M84 -439q-72 0 -121 26l38 78q96 -41 173.5 -3t144.5 163l86 161l-219 1131h91l189 -1003h8l521 1003h99l-699 -1326q-123 -230 -311 -230z" />
    <glyph glyph-name="uni007A" unicode="z" horiz-adv-x="1064" 
d="M53 0l14 75l812 950l2 8h-620l15 84h733l-13 -76l-805 -949l-1 -8h674l-15 -84h-796z" />
    <glyph glyph-name="uni007B" unicode="{" horiz-adv-x="677" 
d="M491 -303q-160 0 -218 81.5t-29 256.5l53 332q21 124 -17 170.5t-161 46.5h-3l14 89h3q125 0 179 46.5t75 170.5l53 332q29 175 114 256t245 81l-14 -78q-117 0 -177.5 -61t-83.5 -198l-58 -351q-16 -100 -57.5 -158t-121.5 -82v-6q72 -24 93 -81.5t5 -157.5l-57 -351
q-23 -137 17.5 -198t158.5 -61z" />
    <glyph glyph-name="uni007C" unicode="|" horiz-adv-x="610" 
d="M601 2161l-449 -2722h-62l449 2722h62z" />
    <glyph glyph-name="uni007D" unicode="}" horiz-adv-x="677" 
d="M210 1559q160 0 218 -81t29 -256l-53 -332q-21 -124 17 -170.5t161 -46.5h3l-14 -89h-3q-125 0 -179 -46.5t-75 -170.5l-53 -332q-29 -175 -114 -256.5t-245 -81.5l14 79q117 0 177.5 61t83.5 198l58 351q16 100 57 157.5t122 81.5l1 7q-72 24 -93.5 82t-5.5 157l57 351
q23 137 -17.5 198t-158.5 61z" />
    <glyph glyph-name="uni007E" unicode="~" horiz-adv-x="1306" 
d="M164 473q28 119 112 182.5t198 63.5q69 0 119 -25.5t110 -77.5q34 -28 52.5 -41.5t47 -24.5t58.5 -11q72 0 128.5 44t81.5 120l81 -8q-32 -117 -114 -178t-189 -61q-62 0 -109.5 25t-102.5 75q-48 41 -85 60t-89 19q-79 0 -138 -44t-78 -122z" />
    <glyph glyph-name="uni00A0" unicode="&#xa0;" horiz-adv-x="576" 
 />
    <glyph glyph-name="uni00A1" unicode="&#xa1;" horiz-adv-x="546" 
d="M71 -378l180 1055h87l-170 -1055h-97zM358 1121q33 0 54.5 -23t20.5 -56t-25 -55t-57 -22t-55 22.5t-20 54.5q1 33 25.5 56t56.5 23z" />
    <glyph glyph-name="uni00A2" unicode="&#xa2;" horiz-adv-x="1135" 
d="M433 -186l27 165q-191 19 -284 179.5t-54 396.5q25 155 100.5 282t187 204.5t240.5 90.5l27 163h71l-27 -162q151 -7 242 -101.5t90 -243.5h-90q-2 114 -70.5 185.5t-184.5 76.5l-164 -990q117 9 211.5 81t133.5 185h91q-49 -151 -172 -246.5t-278 -102.5l-27 -163h-70z
M473 61l163 986q-157 -22 -275 -157t-151 -334q-33 -202 38.5 -339t224.5 -156z" />
    <glyph glyph-name="uni00A3" unicode="&#xa3;" horiz-adv-x="1291" 
d="M994 0h-934l15 84h70q47 0 84 38t57 90.5t29 116.5l38 277h-195l16 86h191l54 385q26 197 161 315t313 118q71 0 132 -21t103 -57.5t68 -86.5t26.5 -107.5t-21.5 -119.5l-82 23q25 82 1.5 145t-88 101t-151.5 38q-141 0 -246.5 -94.5t-128.5 -253.5l-53 -385h365l-15 -86
h-362l-37 -277q-24 -170 -112 -245h717z" />
    <glyph glyph-name="uni00A4" unicode="&#xa4;" horiz-adv-x="1423" 
d="M134 608q36 221 184 388l-112 144l119 108l114 -143q175 128 376 128q207 0 344 -132l165 147l87 -108l-169 -148q93 -169 58 -384q-34 -207 -173 -372l109 -134l-123 -111l-103 133q-185 -144 -401 -144q-212 0 -348 142l-147 -131l-82 111l151 131q-83 166 -49 375z
M276 608q-23 -129 17.5 -242t130.5 -179.5t207 -66.5q179 0 331 144.5t186 343.5q22 130 -18 242.5t-130.5 179t-208.5 66.5q-178 0 -330 -144.5t-185 -343.5z" />
    <glyph glyph-name="uni00A5" unicode="&#xa5;" horiz-adv-x="1088" 
d="M295 1489l270 -767h12l525 767h102l-552 -792h302l-12 -74h-341l-24 -146h340l-12 -75h-341l-67 -402h-92l68 402h-342l12 75h342l25 146h-342l12 74h301l-288 792h102z" />
    <glyph glyph-name="uni00A6" unicode="&#xa6;" horiz-adv-x="435" 
d="M413 1489l-111 -668h-83l112 668h82zM151 392h82l-114 -671h-82z" />
    <glyph glyph-name="uni00A7" unicode="&#xa7;" horiz-adv-x="1099" 
d="M988 1172h-86q14 112 -39.5 184.5t-167.5 72.5q-111 0 -190.5 -67.5t-97.5 -162.5q-7 -44 2.5 -81t38 -68.5t53.5 -51t70 -49.5l159 -103q10 -6 15 -10q46 -31 70.5 -48.5t63 -52.5t56.5 -65.5t29 -74.5t3 -92q-16 -92 -97 -160.5t-181 -77.5v-2q82 -65 108.5 -125
t13.5 -134q-23 -143 -138 -225t-271 -82q-160 0 -249 94t-68 249h87q-14 -119 53 -189.5t192 -70.5q117 0 203.5 60t103.5 164q12 73 -26 125.5t-147 123.5l-160 103q-71 45 -116 81t-79 78t-45 87.5t-3 99.5q16 96 93 166.5t181 74.5l2 6q-61 53 -87.5 113t-15.5 137
q24 133 132.5 222t253.5 89q149 0 224.5 -94t56.5 -244zM882 503q6 35 -4.5 69t-26.5 57.5t-51 53.5t-56 45t-65 44l-2 1l-177 115q-103 15 -178 -39t-90 -147q-12 -74 37.5 -134t172.5 -140l161 -102q90 -16 177 35t102 142z" />
    <glyph glyph-name="uni00A8" unicode="&#xa8;" horiz-adv-x="1303" 
d="M946 1315q-31 0 -50.5 23.5t-13.5 54.5q5 25 27 43.5t47 18.5q33 0 52 -22.5t12 -55.5q-5 -25 -26.5 -43.5t-47.5 -18.5zM620 1315q-31 0 -50 23.5t-14 54.5q4 25 26 43.5t48 18.5q33 0 51.5 -22.5t13.5 -55.5q-3 -24 -25.5 -43t-49.5 -19z" />
    <glyph glyph-name="uni00A9" unicode="&#xa9;" horiz-adv-x="1600" 
d="M134 730q25 155 103 294.5t188 238.5t248 157t279 58q114 0 214.5 -37.5t174 -104.5t124.5 -160.5t65.5 -205.5t-3.5 -240q-26 -156 -104.5 -296t-188.5 -239t-248.5 -157t-280.5 -58q-189 0 -332.5 98t-208.5 271t-30 381zM254 730q-28 -174 25 -318t171 -225.5
t275 -81.5q158 0 304 81.5t247.5 225.5t129.5 318q21 130 -5 245.5t-89.5 198.5t-162.5 131t-217 48q-117 0 -231 -48.5t-205 -131t-156 -198.5t-86 -245zM969 596h153q-26 -153 -126 -233.5t-251 -80.5q-160 0 -235 106.5t-45 280.5l21 119q28 175 138 281t269 106
q151 0 225 -80.5t48 -233.5h-149q31 180 -147 180q-93 0 -154 -69t-80 -184l-20 -119q-19 -114 20 -183.5t132 -69.5q86 0 136 42.5t65 137.5z" />
    <glyph glyph-name="uni00AA" unicode="&#xaa;" horiz-adv-x="866" 
d="M596 776q-88 -84 -209 -84q-118 0 -173 61.5t-37 165.5q17 112 112.5 173t262.5 62h103l8 47q8 66 -15 97t-80 31q-65 0 -106 -25.5t-49 -72.5l-165 16q18 101 111.5 166t231.5 65q132 0 197.5 -71.5t44.5 -205.5l-53 -314q-17 -89 -7 -178h-174q-3 21 -3 67zM635 1038
h-103q-81 -1 -127 -32.5t-53 -78.5q-7 -44 17 -66t83 -21q39 -1 84 16.5t75 43.5z" />
    <glyph glyph-name="uni00AB" unicode="&#xab;" horiz-adv-x="1085" 
d="M472 160h-87l-221 436l1 6h-1l3 15l365 436h88l-366 -450zM844 160h-87l-221 436l1 6h-1l3 15l365 436h89l-367 -450z" />
    <glyph glyph-name="uni00AC" unicode="&#xac;" horiz-adv-x="1050" 
d="M977 806l-13 -79h2l-58 -352h-199l43 259h-623l29 172h819z" />
    <glyph glyph-name="uni00AD" unicode="&#xad;" horiz-adv-x="913" 
d="M771 681l-15 -85h-587l14 85h588z" />
    <glyph glyph-name="uni00AE" unicode="&#xae;" horiz-adv-x="1600" 
d="M134 730q25 155 103 294.5t188 238.5t248 157t279 58q114 0 214.5 -37.5t174 -104.5t124.5 -160.5t65.5 -205.5t-3.5 -240q-26 -156 -104.5 -296t-188.5 -239t-248.5 -157t-280.5 -58q-189 0 -332.5 98t-208.5 271t-30 381zM254 730q-28 -174 25 -318t171 -225.5
t275 -81.5q158 0 304 81.5t247.5 225.5t129.5 318q21 130 -5 245.5t-89.5 198.5t-162.5 131t-217 48q-117 0 -231 -48.5t-205 -131t-156 -198.5t-86 -245zM830 655h-154l-56 -338h-148l143 850h278q148 0 220 -63t51 -188q-21 -134 -168 -198q124 -43 100 -203l-12 -55
q-8 -98 -3 -128l-2 -15h-151q-8 26 6 124q2 14 3 19l11 55q11 72 -16 106t-102 34zM698 788h163q57 0 101.5 31.5t55.5 85.5q10 72 -22.5 100t-125.5 28h-131z" />
    <glyph glyph-name="uni00AF" unicode="&#xaf;" horiz-adv-x="706" 
d="M765 1423l-14 -79h-536l13 79h537z" />
    <glyph glyph-name="uni00B0" unicode="&#xb0;" horiz-adv-x="930" 
d="M519 881q-131 0 -207 91.5t-55 220.5q20 131 127.5 222.5t237.5 91.5t206.5 -91.5t55.5 -222.5q-23 -129 -129.5 -220.5t-235.5 -91.5zM530 960q98 0 178 68t96 165t-41 166t-155 69q-96 0 -175.5 -69t-95.5 -166t40.5 -165t152.5 -68z" />
    <glyph glyph-name="uni00B1" unicode="&#xb1;" horiz-adv-x="1306" 
d="M238 684l14 86h395l57 347h85l-57 -347h395l-15 -86h-394l-58 -347h-85l58 347h-395zM143 116l14 85h875l-15 -85h-874z" />
    <glyph glyph-name="uni00B2" unicode="&#xb2;" horiz-adv-x="848" 
d="M146 745l10 61l381 323q119 101 166.5 159t57.5 121q12 74 -37 122.5t-137 48.5q-92 0 -161 -53t-81 -131h-82q19 110 111.5 181.5t218.5 71.5q125 0 193.5 -69.5t51.5 -175.5q-12 -78 -67 -145t-199 -189l-293 -250v-3h506l-13 -72h-626z" />
    <glyph glyph-name="uni00B3" unicode="&#xb3;" horiz-adv-x="853" 
d="M460 733q-138 0 -216.5 68.5t-62.5 175.5h84q-11 -76 45.5 -123.5t154.5 -47.5q104 0 181 53t90 129q13 83 -49 132.5t-179 49.5h-42l10 69h39q106 0 179 49.5t85 124.5q13 73 -32 120t-140 47q-92 0 -164.5 -48.5t-86.5 -125.5h-80q19 108 112.5 175.5t217.5 67.5
q128 0 198.5 -66t53.5 -174q-12 -78 -68.5 -128.5t-147.5 -72.5v-4q95 -18 143 -78t35 -143q-18 -110 -118 -180t-242 -70z" />
    <glyph glyph-name="uni00B4" unicode="&#xb4;" horiz-adv-x="1018" 
d="M477 1276l250 322h105l-273 -322h-82z" />
    <glyph glyph-name="uni00B5" unicode="&#xb5;" horiz-adv-x="1213" 
d="M14 -428l259 1545h79l-113 -672q-26 -160 53 -259t237 -99t269.5 99t137.5 259l112 672h81l-186 -1117h-88l29 172h-9q-70 -97 -167.5 -148.5t-199.5 -51.5q-101 0 -180.5 52t-114.5 148h-9l-102 -600h-88z" />
    <glyph glyph-name="uni00B6" unicode="&#xb6;" horiz-adv-x="1165" 
d="M768 0l233 1405h-154l-139 -852h-85q-232 0 -341.5 130t-74.5 338q36 208 187.5 338t382.5 130h329l-247 -1489h-91z" />
    <glyph glyph-name="uni00B7" unicode="&#xb7;" horiz-adv-x="544" 
d="M236 709q-33 0 -54.5 23t-20.5 56t25 55t57 22t55 -22.5t20 -54.5q-1 -33 -25.5 -56t-56.5 -23z" />
    <glyph glyph-name="uni00B8" unicode="&#xb8;" horiz-adv-x="461" 
d="M105 6h78l-21 -58q69 -12 102 -55.5t21 -114.5q-28 -169 -261 -174l9 69q153 1 170 103q9 58 -26 85.5t-116 28.5z" />
    <glyph glyph-name="uni00B9" unicode="&#xb9;" horiz-adv-x="578" 
d="M564 1638l-149 -893h-80l128 771h-9q-15 -15 -40.5 -32.5t-76.5 -37t-102 -20.5l9 71q47 1 92.5 19.5t76 43.5t50 46t23.5 32h78z" />
    <glyph glyph-name="uni00BA" unicode="&#xba;" horiz-adv-x="870" 
d="M177 1044l12 81q27 156 135.5 254.5t263.5 98.5t231 -99t49 -254l-12 -81q-27 -157 -133.5 -253.5t-259.5 -95.5q-156 -1 -234 96t-52 253zM360 1125l-12 -81q-16 -93 19 -149.5t119 -56.5q80 0 131.5 56.5t68.5 149.5l11 81q15 91 -18.5 147.5t-114.5 56.5
q-82 0 -135 -57t-69 -147z" />
    <glyph glyph-name="uni00BB" unicode="&#xbb;" horiz-adv-x="1096" 
d="M103 160l368 449l-220 444h86l222 -436l-1 -6h1l-3 -15l-364 -436h-89zM484 160l368 449l-219 444h86l222 -436l-1 -6h1l-3 -15l-364 -436h-90z" />
    <glyph glyph-name="uni00BC" unicode="&#xbc;" horiz-adv-x="1693" 
d="M903 166l10 65l491 560h99l-92 -555h112l-12 -70h-112l-27 -166h-81l28 166h-416zM198 0l1137 1489h95l-1138 -1489h-94zM505 1489l-133 -791h-80l114 677h-7q-26 -26 -78.5 -52.5t-119.5 -27.5l10 69q76 1 140.5 48t75.5 77h78zM1332 236l76 451h-3l-400 -448v-3h327z
" />
    <glyph glyph-name="uni00BD" unicode="&#xbd;" horiz-adv-x="1771" 
d="M198 0l1137 1489h95l-1138 -1489h-94zM1014 0l10 60l345 283q104 87 146.5 137.5t51.5 103.5q10 62 -33 106t-125 44q-79 0 -140 -45t-74 -113h-79q16 97 100.5 162t199.5 65t177.5 -63.5t47.5 -159.5q-11 -67 -62 -129.5t-178 -164.5l-258 -213v-3h453l-12 -70h-570z
M505 1489l-133 -791h-80l114 677h-7q-26 -26 -78.5 -52.5t-119.5 -27.5l10 69q76 1 140.5 48t75.5 77h78z" />
    <glyph glyph-name="uni00BE" unicode="&#xbe;" horiz-adv-x="1867" 
d="M1116 166l10 65l491 560h98l-92 -555h112l-11 -70h-112l-28 -166h-81l29 166h-416zM411 687q-123 0 -198 62t-58 158h81q-10 -68 40.5 -109t137.5 -41q94 0 162 48.5t78 113.5q12 70 -43.5 112t-158.5 42h-40l9 62h37q91 0 157 43t77 114q11 62 -30.5 101t-121.5 39
q-82 0 -147 -42t-77 -107h-77q15 95 101 156.5t199 61.5q120 0 182.5 -62.5t47.5 -154.5q-11 -67 -63.5 -112.5t-130.5 -62.5v-4q87 -18 130.5 -70t29.5 -136q-14 -87 -106 -149.5t-218 -62.5zM407 0l1137 1489h95l-1138 -1489h-94zM1545 236l75 451h-3l-400 -448v-3h328z
" />
    <glyph glyph-name="uni00BF" unicode="&#xbf;" horiz-adv-x="1000" 
d="M611 688l-13 -74q-15 -90 -48 -154t-82 -109t-133 -96q-114 -71 -165.5 -127.5t-64.5 -144.5q-19 -128 51.5 -208.5t198.5 -80.5q133 0 239 88t131 223h92q-31 -173 -164.5 -283t-305.5 -110q-170 0 -262.5 107t-68.5 266q12 77 45.5 134.5t84 100.5t138.5 97
q112 70 159.5 132t65.5 165l12 74h90zM627 1132q33 0 54.5 -23t20.5 -56t-25 -55t-57 -22t-55 22.5t-20 54.5q1 33 25.5 56t56.5 23z" />
    <glyph glyph-name="uni00C0" unicode="&#xc0;" horiz-adv-x="1303" 
d="M65 0h-96l784 1489h105l290 -1489h-96l-91 476h-647zM359 561h586l-154 811h-8zM881 1649h-80l-164 321h103z" />
    <glyph glyph-name="uni00C1" unicode="&#xc1;" horiz-adv-x="1303" 
d="M65 0h-96l784 1489h105l290 -1489h-96l-91 476h-647zM359 561h586l-154 811h-8zM785 1649l249 321h106l-274 -321h-81z" />
    <glyph glyph-name="uni00C2" unicode="&#xc2;" horiz-adv-x="1303" 
d="M65 0h-96l784 1489h105l290 -1489h-96l-91 476h-647zM359 561h586l-154 811h-8zM630 1612h-91v7l305 284h61l208 -284v-7h-91l-161 216z" />
    <glyph glyph-name="uni00C3" unicode="&#xc3;" horiz-adv-x="1303" 
d="M65 0h-96l784 1489h105l290 -1489h-96l-91 476h-647zM359 561h586l-154 811h-8zM572 1682l-74 6q20 82 86 134.5t147 52.5q42 0 78.5 -17.5t58.5 -38t55 -38t68 -17.5q48 0 91 32.5t58 80.5l72 -12q-23 -80 -89 -130.5t-142 -50.5q-43 0 -78 17.5t-55.5 38t-54 38
t-73.5 17.5q-52 0 -93.5 -32t-54.5 -81z" />
    <glyph glyph-name="uni00C4" unicode="&#xc4;" horiz-adv-x="1303" 
d="M65 0h-96l784 1489h105l290 -1489h-96l-91 476h-647zM359 561h586l-154 811h-8zM1010 1687q-31 0 -50.5 23.5t-13.5 54.5q5 25 27 43.5t47 18.5q33 0 52 -22.5t12 -55.5q-5 -25 -26.5 -43.5t-47.5 -18.5zM684 1687q-31 0 -50 23.5t-14 54.5q4 25 26 43.5t48 18.5
q33 0 51.5 -22.5t13.5 -55.5q-3 -24 -25.5 -43t-49.5 -19z" />
    <glyph glyph-name="uni00C5" unicode="&#xc5;" horiz-adv-x="1303" 
d="M65 0h-96l784 1489h105l290 -1489h-96l-91 476h-647zM359 561h586l-154 811h-8zM825 1571q-78 0 -126.5 54t-38.5 132q9 78 71.5 132t142.5 54q81 0 130 -54t38 -132q-12 -81 -73 -133.5t-144 -52.5zM835 1639q50 0 90 34.5t45 83.5q5 51 -24.5 85t-80.5 34
q-49 0 -87.5 -35t-45.5 -84q-7 -50 23 -84t80 -34z" />
    <glyph glyph-name="uni00C6" unicode="&#xc6;" horiz-adv-x="1984" 
d="M-31 0l994 1489h1015l-14 -84h-739l-101 -617h693l-14 -85h-694l-102 -619h756l-15 -84h-846l78 476h-592l-316 -476h-103zM444 561h551l140 844h-131z" />
    <glyph glyph-name="uni00C7" unicode="&#xc7;" horiz-adv-x="1483" 
d="M1423 1024h-91q-2 103 -49.5 192.5t-144.5 148t-225 58.5q-111 0 -217 -45.5t-194.5 -130t-153 -215.5t-90.5 -291q-27 -165 -6 -290.5t81.5 -211t150 -129t200.5 -43.5q129 0 246 58t194.5 147t115.5 193h93q-31 -90 -88 -172.5t-135 -151t-182 -112t-218 -49.5l-13 -36
q69 -12 102 -55t21 -114q-28 -169 -261 -174l8 69q153 1 170 102q9 58 -25.5 86t-115.5 29l35 94q-172 11 -289 109t-163 268.5t-10 389.5q57 343 265.5 552.5t487.5 209.5q121 0 218.5 -41.5t158 -110.5t92.5 -154.5t32 -179.5z" />
    <glyph glyph-name="uni00C8" unicode="&#xc8;" horiz-adv-x="1205" 
d="M122 0l247 1489h830l-15 -84h-738l-102 -617h694l-15 -85h-694l-101 -619h755l-14 -84h-847zM860 1649h-80l-164 321h103z" />
    <glyph glyph-name="uni00C9" unicode="&#xc9;" horiz-adv-x="1205" 
d="M122 0l247 1489h830l-15 -84h-738l-102 -617h694l-15 -85h-694l-101 -619h755l-14 -84h-847zM763 1649l249 321h106l-274 -321h-81z" />
    <glyph glyph-name="uni00CA" unicode="&#xca;" horiz-adv-x="1205" 
d="M122 0l247 1489h830l-15 -84h-738l-102 -617h694l-15 -85h-694l-101 -619h755l-14 -84h-847zM608 1612h-91v7l306 284h60l209 -284l-1 -7h-91l-161 216z" />
    <glyph glyph-name="uni00CB" unicode="&#xcb;" horiz-adv-x="1205" 
d="M122 0l247 1489h830l-15 -84h-738l-102 -617h694l-15 -85h-694l-101 -619h755l-14 -84h-847zM988 1687q-31 0 -50.5 23.5t-13.5 54.5q5 25 27 43.5t47 18.5q33 0 52.5 -22.5t12.5 -55.5q-5 -25 -27 -43.5t-48 -18.5zM663 1687q-31 0 -50 23.5t-14 54.5q4 25 25.5 43.5
t47.5 18.5q33 0 51.5 -22.5t13.5 -55.5q-3 -24 -25 -43t-49 -19z" />
    <glyph glyph-name="uni00CC" unicode="&#xcc;" horiz-adv-x="520" 
d="M460 1489l-247 -1489h-91l247 1489h91zM490 1649h-80l-164 321h103z" />
    <glyph glyph-name="uni00CD" unicode="&#xcd;" horiz-adv-x="520" 
d="M460 1489l-247 -1489h-91l247 1489h91zM393 1649l249 321h106l-274 -321h-81z" />
    <glyph glyph-name="uni00CE" unicode="&#xce;" horiz-adv-x="520" 
d="M460 1489l-247 -1489h-91l247 1489h91zM238 1612h-91v7l305 284h61l208 -284v-7h-91l-161 216z" />
    <glyph glyph-name="uni00CF" unicode="&#xcf;" horiz-adv-x="520" 
d="M460 1489l-247 -1489h-91l247 1489h91zM618 1687q-31 0 -50.5 23.5t-13.5 54.5q5 25 27 43.5t47 18.5q33 0 52 -22.5t12 -55.5q-5 -25 -26.5 -43.5t-47.5 -18.5zM292 1687q-31 0 -50 23.5t-14 54.5q4 25 26 43.5t48 18.5q33 0 51.5 -22.5t13.5 -55.5q-3 -24 -25.5 -43
t-49.5 -19z" />
    <glyph glyph-name="uni00D0" unicode="&#xd0;" horiz-adv-x="1466" 
d="M537 0h-415l120 722h-233l14 76h232l114 691h443q314 0 459.5 -198t86.5 -546q-60 -353 -275 -549t-546 -196zM345 798h259l-13 -76h-258l-106 -638h318q292 0 482.5 178.5t241.5 490.5q51 313 -68.5 482.5t-402.5 169.5h-351z" />
    <glyph glyph-name="uni00D1" unicode="&#xd1;" horiz-adv-x="1568" 
d="M1508 1489l-248 -1489h-88l-730 1324h-9l-220 -1324h-91l247 1489h90l730 -1325h9l219 1325h91zM703 1664l-75 6q20 82 86 134.5t147 52.5q42 0 78.5 -17.5t58.5 -38t55 -38t68 -17.5q48 0 91 32.5t58 80.5l72 -12q-23 -80 -89 -130.5t-142 -50.5q-43 0 -78 17.5
t-55.5 38t-54 38t-73.5 17.5q-51 0 -92.5 -32t-54.5 -81z" />
    <glyph glyph-name="uni00D2" unicode="&#xd2;" horiz-adv-x="1539" 
d="M1429 741q-57 -343 -265 -552t-486 -209q-187 0 -315.5 95.5t-179.5 270t-14 402.5q58 343 267 552.5t488 209.5q138 0 246.5 -55t174.5 -155.5t90.5 -242.5t-6.5 -316zM1341 748q51 309 -65 492t-353 183q-243 0 -427.5 -186.5t-237.5 -495.5q-52 -308 64.5 -491
t355.5 -183q244 0 429 186.5t234 494.5zM995 1649h-80l-164 321h103z" />
    <glyph glyph-name="uni00D3" unicode="&#xd3;" horiz-adv-x="1539" 
d="M1429 741q-57 -343 -265 -552t-486 -209q-187 0 -315.5 95.5t-179.5 270t-14 402.5q58 343 267 552.5t488 209.5q138 0 246.5 -55t174.5 -155.5t90.5 -242.5t-6.5 -316zM1341 748q51 309 -65 492t-353 183q-243 0 -427.5 -186.5t-237.5 -495.5q-52 -308 64.5 -491
t355.5 -183q244 0 429 186.5t234 494.5zM898 1649l250 321h105l-273 -321h-82z" />
    <glyph glyph-name="uni00D4" unicode="&#xd4;" horiz-adv-x="1539" 
d="M1429 741q-57 -343 -265 -552t-486 -209q-187 0 -315.5 95.5t-179.5 270t-14 402.5q58 343 267 552.5t488 209.5q138 0 246.5 -55t174.5 -155.5t90.5 -242.5t-6.5 -316zM1341 748q51 309 -65 492t-353 183q-243 0 -427.5 -186.5t-237.5 -495.5q-52 -308 64.5 -491
t355.5 -183q244 0 429 186.5t234 494.5zM743 1612h-91v7l306 284h60l209 -284l-1 -7h-91l-160 216z" />
    <glyph glyph-name="uni00D5" unicode="&#xd5;" horiz-adv-x="1539" 
d="M1429 741q-57 -343 -265 -552t-486 -209q-187 0 -315.5 95.5t-179.5 270t-14 402.5q58 343 267 552.5t488 209.5q138 0 246.5 -55t174.5 -155.5t90.5 -242.5t-6.5 -316zM1341 748q51 309 -65 492t-353 183q-243 0 -427.5 -186.5t-237.5 -495.5q-52 -308 64.5 -491
t355.5 -183q244 0 429 186.5t234 494.5zM686 1682l-74 6q20 82 85.5 134.5t146.5 52.5q42 0 78.5 -17.5t58.5 -38t55 -38t68 -17.5q48 0 91 32.5t58 80.5l72 -12q-23 -80 -88.5 -130.5t-141.5 -50.5q-43 0 -78 17.5t-56 38t-54.5 38t-73.5 17.5q-51 0 -92.5 -32t-54.5 -81z
" />
    <glyph glyph-name="uni00D6" unicode="&#xd6;" horiz-adv-x="1539" 
d="M1429 741q-57 -343 -265 -552t-486 -209q-187 0 -315.5 95.5t-179.5 270t-14 402.5q58 343 267 552.5t488 209.5q138 0 246.5 -55t174.5 -155.5t90.5 -242.5t-6.5 -316zM1341 748q51 309 -65 492t-353 183q-243 0 -427.5 -186.5t-237.5 -495.5q-52 -308 64.5 -491
t355.5 -183q244 0 429 186.5t234 494.5zM1124 1687q-31 0 -50.5 23.5t-13.5 54.5q5 25 26.5 43.5t46.5 18.5q33 0 52.5 -22.5t12.5 -55.5q-5 -25 -26.5 -43.5t-47.5 -18.5zM798 1687q-31 0 -50 23.5t-14 54.5q4 25 25.5 43.5t47.5 18.5q33 0 51.5 -22.5t13.5 -55.5
q-3 -24 -25 -43t-49 -19z" />
    <glyph glyph-name="uni00D7" unicode="&#xd7;" horiz-adv-x="1306" 
d="M967 143l-317 380l-445 -381l-52 59l446 383l-316 380l67 56l316 -379l445 381l51 -60l-446 -382l317 -380z" />
    <glyph glyph-name="uni00D8" unicode="&#xd8;" horiz-adv-x="1541" 
d="M239 -44l-61 43l109 142q-87 103 -118 257.5t0 344.5q58 343 267 552.5t488 209.5q198 0 333 -112l107 139l58 -43l-114 -146q89 -103 121.5 -258.5t-0.5 -348.5q-57 -343 -265 -552t-486 -209q-203 0 -338 113zM1341 743q27 172 4 305t-93 221l-857 -1110
q112 -97 283 -97q244 0 429 186.5t234 494.5zM344 214l857 1108q-110 95 -278 95q-243 0 -427.5 -186t-237.5 -495q-27 -170 -4.5 -301.5t90.5 -220.5z" />
    <glyph glyph-name="uni00D9" unicode="&#xd9;" horiz-adv-x="1530" 
d="M1378 1489h91l-163 -986q-39 -232 -220.5 -379.5t-416.5 -147.5q-114 0 -209 39t-157.5 107.5t-88.5 167t-7 213.5l162 986h91l-163 -986q-22 -128 21 -229t137.5 -156t222.5 -55q196 0 350 123.5t187 316.5zM995 1649h-80l-164 321h103z" />
    <glyph glyph-name="uni00DA" unicode="&#xda;" horiz-adv-x="1530" 
d="M1378 1489h91l-163 -986q-39 -232 -220.5 -379.5t-416.5 -147.5q-114 0 -209 39t-157.5 107.5t-88.5 167t-7 213.5l162 986h91l-163 -986q-22 -128 21 -229t137.5 -156t222.5 -55q196 0 350 123.5t187 316.5zM898 1649l250 321h105l-273 -321h-82z" />
    <glyph glyph-name="uni00DB" unicode="&#xdb;" horiz-adv-x="1530" 
d="M1378 1489h91l-163 -986q-39 -232 -220.5 -379.5t-416.5 -147.5q-114 0 -209 39t-157.5 107.5t-88.5 167t-7 213.5l162 986h91l-163 -986q-22 -128 21 -229t137.5 -156t222.5 -55q196 0 350 123.5t187 316.5zM743 1612h-91v7l306 284h60l209 -284l-1 -7h-91l-160 216z
" />
    <glyph glyph-name="uni00DC" unicode="&#xdc;" horiz-adv-x="1530" 
d="M1378 1489h91l-163 -986q-39 -232 -220.5 -379.5t-416.5 -147.5q-114 0 -209 39t-157.5 107.5t-88.5 167t-7 213.5l162 986h91l-163 -986q-22 -128 21 -229t137.5 -156t222.5 -55q196 0 350 123.5t187 316.5zM1124 1687q-31 0 -50.5 23.5t-13.5 54.5q5 25 26.5 43.5
t46.5 18.5q33 0 52.5 -22.5t12.5 -55.5q-5 -25 -26.5 -43.5t-47.5 -18.5zM798 1687q-31 0 -50 23.5t-14 54.5q4 25 25.5 43.5t47.5 18.5q33 0 51.5 -22.5t13.5 -55.5q-3 -24 -25 -43t-49 -19z" />
    <glyph glyph-name="uni00DD" unicode="&#xdd;" horiz-adv-x="1291" 
d="M218 1489h104l350 -718h12l588 718h110l-672 -813l-111 -676h-92l112 676zM779 1649l249 321h106l-274 -321h-81z" />
    <glyph glyph-name="uni00DE" unicode="&#xde;" horiz-adv-x="1237" 
d="M352 1489h89l-55 -331h333q105 0 186.5 -33t128.5 -89.5t65 -130t4 -155.5q-14 -83 -56 -157t-106.5 -130.5t-156 -89.5t-196.5 -33h-337l-57 -340h-89zM268 445h336q172 -1 279 75t133 227q27 149 -57.5 228t-255.5 79h-334z" />
    <glyph glyph-name="uni00DF" unicode="&#xdf;" horiz-adv-x="1173" 
d="M122 0l183 1116q30 180 154 287t288 107t247 -102t60 -268q-20 -136 -102.5 -224t-206.5 -133l-2 -15q144 -18 219.5 -112t50.5 -246q-28 -173 -159.5 -291.5t-312.5 -118.5h-142l17 98h177q131 0 225 82t115 211q21 136 -52 224t-216 89h-142l18 111h105
q124 -1 217.5 92.5t114.5 217.5q19 124 -48.5 207.5t-200.5 83.5q-127 0 -223.5 -76t-115.5 -193l-189 -1147h-79z" />
    <glyph glyph-name="uni00E0" unicode="&#xe0;" horiz-adv-x="1123" 
d="M384 -24q-151 0 -237.5 89t-62.5 243q24 140 137.5 215t340.5 102q174 20 223 35q83 25 93 80l7 46q21 123 -41.5 194.5t-196.5 71.5q-116 0 -211 -52t-144 -136l-77 31q65 116 183.5 177.5t253.5 61.5q76 0 139.5 -21.5t110 -63.5t66 -111.5t4.5 -157.5l-129 -780h-89
l34 201h-6q-62 -99 -166.5 -162t-231.5 -63zM401 58q157 0 278.5 112.5t149.5 282.5l28 164q-60 -45 -298 -71q-186 -22 -277.5 -79.5t-109.5 -161.5q-18 -113 46 -180t183 -67zM733 1276h-80l-164 322h103z" />
    <glyph glyph-name="uni00E1" unicode="&#xe1;" horiz-adv-x="1123" 
d="M384 -24q-151 0 -237.5 89t-62.5 243q24 140 137.5 215t340.5 102q174 20 223 35q83 25 93 80l7 46q21 123 -41.5 194.5t-196.5 71.5q-116 0 -211 -52t-144 -136l-77 31q65 116 183.5 177.5t253.5 61.5q76 0 139.5 -21.5t110 -63.5t66 -111.5t4.5 -157.5l-129 -780h-89
l34 201h-6q-62 -99 -166.5 -162t-231.5 -63zM401 58q157 0 278.5 112.5t149.5 282.5l28 164q-60 -45 -298 -71q-186 -22 -277.5 -79.5t-109.5 -161.5q-18 -113 46 -180t183 -67zM636 1276l250 322h105l-273 -322h-82z" />
    <glyph glyph-name="uni00E2" unicode="&#xe2;" horiz-adv-x="1123" 
d="M384 -24q-151 0 -237.5 89t-62.5 243q24 140 137.5 215t340.5 102q174 20 223 35q83 25 93 80l7 46q21 123 -41.5 194.5t-196.5 71.5q-116 0 -211 -52t-144 -136l-77 31q65 116 183.5 177.5t253.5 61.5q76 0 139.5 -21.5t110 -63.5t66 -111.5t4.5 -157.5l-129 -780h-89
l34 201h-6q-62 -99 -166.5 -162t-231.5 -63zM401 58q157 0 278.5 112.5t149.5 282.5l28 164q-60 -45 -298 -71q-186 -22 -277.5 -79.5t-109.5 -161.5q-18 -113 46 -180t183 -67zM481 1239h-90v8l305 283h60l209 -283l-1 -8h-91l-160 217z" />
    <glyph glyph-name="uni00E3" unicode="&#xe3;" horiz-adv-x="1123" 
d="M384 -24q-151 0 -237.5 89t-62.5 243q24 140 137.5 215t340.5 102q174 20 223 35q83 25 93 80l7 46q21 123 -41.5 194.5t-196.5 71.5q-116 0 -211 -52t-144 -136l-77 31q65 116 183.5 177.5t253.5 61.5q76 0 139.5 -21.5t110 -63.5t66 -111.5t4.5 -157.5l-129 -780h-89
l34 201h-6q-62 -99 -166.5 -162t-231.5 -63zM401 58q157 0 278.5 112.5t149.5 282.5l28 164q-60 -45 -298 -71q-186 -22 -277.5 -79.5t-109.5 -161.5q-18 -113 46 -180t183 -67zM422 1292l-74 5q20 82 85.5 134.5t146.5 52.5q35 0 64.5 -11.5t51 -27.5t42.5 -32t47 -27.5
t55 -11.5q48 0 91 32.5t58 80.5l72 -12q-23 -80 -88.5 -130.5t-141.5 -50.5q-43 0 -78 17t-56 38t-54.5 38t-73.5 17q-52 0 -93 -31.5t-54 -80.5z" />
    <glyph glyph-name="uni00E4" unicode="&#xe4;" horiz-adv-x="1123" 
d="M384 -24q-151 0 -237.5 89t-62.5 243q24 140 137.5 215t340.5 102q174 20 223 35q83 25 93 80l7 46q21 123 -41.5 194.5t-196.5 71.5q-116 0 -211 -52t-144 -136l-77 31q65 116 183.5 177.5t253.5 61.5q76 0 139.5 -21.5t110 -63.5t66 -111.5t4.5 -157.5l-129 -780h-89
l34 201h-6q-62 -99 -166.5 -162t-231.5 -63zM401 58q157 0 278.5 112.5t149.5 282.5l28 164q-60 -45 -298 -71q-186 -22 -277.5 -79.5t-109.5 -161.5q-18 -113 46 -180t183 -67zM862 1315q-31 0 -50.5 23.5t-13.5 54.5q5 25 26.5 43.5t46.5 18.5q33 0 52.5 -22.5t12.5 -55.5
q-5 -25 -26.5 -43.5t-47.5 -18.5zM536 1315q-31 0 -50 23.5t-14 54.5q4 25 25.5 43.5t47.5 18.5q33 0 51.5 -22.5t13.5 -55.5q-3 -24 -25 -43t-49 -19z" />
    <glyph glyph-name="uni00E5" unicode="&#xe5;" horiz-adv-x="1123" 
d="M384 -24q-151 0 -237.5 89t-62.5 243q24 140 137.5 215t340.5 102q174 20 223 35q83 25 93 80l7 46q21 123 -41.5 194.5t-196.5 71.5q-116 0 -211 -52t-144 -136l-77 31q65 116 183.5 177.5t253.5 61.5q76 0 139.5 -21.5t110 -63.5t66 -111.5t4.5 -157.5l-129 -780h-89
l34 201h-6q-62 -99 -166.5 -162t-231.5 -63zM401 58q157 0 278.5 112.5t149.5 282.5l28 164q-60 -45 -298 -71q-186 -22 -277.5 -79.5t-109.5 -161.5q-18 -113 46 -180t183 -67zM691 1252q-84 0 -136 56t-42 137q9 81 74 138.5t148 57.5t133 -57t42 -139q-8 -81 -71.5 -137
t-147.5 -56zM700 1320q52 0 91.5 36.5t46.5 88.5t-25.5 89.5t-85.5 37.5t-94.5 -37.5t-46.5 -89.5t28 -88.5t86 -36.5z" />
    <glyph glyph-name="uni00E6" unicode="&#xe6;" horiz-adv-x="1890" 
d="M1228 -23q-154 0 -256 79t-133 215q-71 -143 -196 -219t-259 -76q-151 0 -237.5 89t-62.5 243q24 140 137.5 215t340.5 102q174 20 223 35q83 25 93 80l7 46q21 122 -45 194t-201 72q-116 0 -207 -51t-140 -137l-77 31q65 116 183.5 177.5t253.5 61.5q132 0 219.5 -63
t101.5 -179q80 114 190.5 178t235.5 64q94 0 172 -38.5t130.5 -107t73 -171t0.5 -223.5l-10 -55h-852l-5 -26q-24 -202 65 -328t270 -126q124 0 214.5 57.5t142.5 134.5l73 -33q-59 -98 -175.5 -169.5t-269.5 -71.5zM942 676l-12 -56h759q29 182 -58 306.5t-246 124.5
q-145 0 -267 -105.5t-176 -269.5zM407 58q156 0 275 112t147 283l28 164q-60 -45 -298 -71q-186 -22 -277.5 -79.5t-109.5 -161.5q-18 -113 49 -180t186 -67z" />
    <glyph glyph-name="uni00E7" unicode="&#xe7;" horiz-adv-x="1135" 
d="M534 -23l-11 -29q69 -12 102 -55.5t21 -114.5q-28 -169 -261 -174l8 69q154 1 171 103q9 58 -26 85.5t-116 28.5l33 90q-190 21 -281 181t-52 394q41 251 203 415t373 164q160 0 258 -95.5t97 -250.5h-90q-2 118 -75.5 190.5t-197.5 72.5q-174 0 -309.5 -139.5
t-170.5 -355.5q-36 -216 48.5 -356.5t257.5 -140.5q124 0 227.5 73.5t145.5 193.5h91q-49 -150 -170.5 -245.5t-275.5 -103.5z" />
    <glyph glyph-name="uni00E8" unicode="&#xe8;" horiz-adv-x="1186" 
d="M524 -23q-149 0 -250.5 74.5t-140.5 205t-11 296.5q41 251 203.5 416t369.5 165q94 0 172 -38.5t130 -107t72.5 -171t0.5 -223.5l-10 -55h-853q-34 -218 51.5 -349t276.5 -131q123 0 216 58t144 134l74 -33q-59 -98 -175.5 -169.5t-269.5 -71.5zM223 620h761
q20 119 -11.5 218t-106.5 156t-180 57q-155 0 -288 -125.5t-175 -305.5zM759 1276h-80l-164 322h103z" />
    <glyph glyph-name="uni00E9" unicode="&#xe9;" horiz-adv-x="1186" 
d="M524 -23q-149 0 -250.5 74.5t-140.5 205t-11 296.5q41 251 203.5 416t369.5 165q94 0 172 -38.5t130 -107t72.5 -171t0.5 -223.5l-10 -55h-853q-34 -218 51.5 -349t276.5 -131q123 0 216 58t144 134l74 -33q-59 -98 -175.5 -169.5t-269.5 -71.5zM223 620h761
q20 119 -11.5 218t-106.5 156t-180 57q-155 0 -288 -125.5t-175 -305.5zM663 1276l249 322h105l-273 -322h-81z" />
    <glyph glyph-name="uni00EA" unicode="&#xea;" horiz-adv-x="1186" 
d="M524 -23q-149 0 -250.5 74.5t-140.5 205t-11 296.5q41 251 203.5 416t369.5 165q94 0 172 -38.5t130 -107t72.5 -171t0.5 -223.5l-10 -55h-853q-34 -218 51.5 -349t276.5 -131q123 0 216 58t144 134l74 -33q-59 -98 -175.5 -169.5t-269.5 -71.5zM223 620h761
q20 119 -11.5 218t-106.5 156t-180 57q-155 0 -288 -125.5t-175 -305.5zM508 1239h-91v8l305 283h61l208 -283v-8h-91l-161 217z" />
    <glyph glyph-name="uni00EB" unicode="&#xeb;" horiz-adv-x="1186" 
d="M524 -23q-149 0 -250.5 74.5t-140.5 205t-11 296.5q41 251 203.5 416t369.5 165q94 0 172 -38.5t130 -107t72.5 -171t0.5 -223.5l-10 -55h-853q-34 -218 51.5 -349t276.5 -131q123 0 216 58t144 134l74 -33q-59 -98 -175.5 -169.5t-269.5 -71.5zM223 620h761
q20 119 -11.5 218t-106.5 156t-180 57q-155 0 -288 -125.5t-175 -305.5zM888 1315q-31 0 -50.5 23.5t-13.5 54.5q5 25 26.5 43.5t46.5 18.5q33 0 52.5 -22.5t12.5 -55.5q-5 -25 -26.5 -43.5t-47.5 -18.5zM562 1315q-31 0 -50 23.5t-14 54.5q4 25 26 43.5t48 18.5
q33 0 51 -22.5t13 -55.5q-3 -24 -25 -43t-49 -19z" />
    <glyph glyph-name="uni00EC" unicode="&#xec;" horiz-adv-x="464" 
d="M95 0l186 1117h88l-186 -1117h-88zM400 1277h-80l-164 322h103z" />
    <glyph glyph-name="uni00ED" unicode="&#xed;" horiz-adv-x="464" 
d="M95 0l186 1117h88l-186 -1117h-88zM303 1277l249 322h105l-273 -322h-81z" />
    <glyph glyph-name="uni00EE" unicode="&#xee;" horiz-adv-x="464" 
d="M95 0l186 1117h88l-186 -1117h-88zM148 1240h-91v7l305 284h61l208 -284v-7h-91l-161 217z" />
    <glyph glyph-name="uni00EF" unicode="&#xef;" horiz-adv-x="464" 
d="M95 0l186 1117h88l-186 -1117h-88zM528 1316q-31 0 -50.5 23t-13.5 54q5 25 26.5 43.5t46.5 18.5q33 0 52.5 -22.5t12.5 -55.5q-5 -25 -26.5 -43t-47.5 -18zM202 1316q-31 0 -50 23t-14 54q4 25 26 43.5t48 18.5q33 0 51 -22.5t13 -55.5q-3 -24 -25 -42.5t-49 -18.5z" />
    <glyph glyph-name="uni00F0" unicode="&#xf0;" horiz-adv-x="1197" 
d="M1140 1452l-267 -115q126 -156 183.5 -355.5t19.5 -434.5q-44 -268 -199 -419t-374 -151q-218 0 -323.5 149t-68.5 386q41 247 207.5 403t378.5 140q60 -3 110.5 -21.5t83.5 -45.5t59 -62.5t39.5 -67t22.5 -64.5h14q-8 116 -62.5 253t-164.5 258l-284 -122l-12 74
l241 104q-89 85 -206 148l47 74q130 -74 238 -187l302 131zM512 73q95 0 176.5 35t138.5 94t94 133.5t51 156.5q10 46 7 99.5t-10.5 106.5t-32.5 102.5t-59 87t-90 60.5t-126 23q-95 0 -177.5 -41.5t-139 -108.5t-93.5 -146.5t-51 -162.5q-10 -50 -7.5 -102t11.5 -101
t34.5 -92t61 -75t90 -50.5t122.5 -18.5z" />
    <glyph glyph-name="uni00F1" unicode="&#xf1;" horiz-adv-x="1175" 
d="M300 724l-120 -724h-89l186 1117h87l-29 -177h8q53 88 149.5 140t214.5 52q170 0 257 -107t57 -288l-123 -737h-89l123 733q23 143 -45.5 229.5t-206.5 86.5q-142 0 -248.5 -90t-131.5 -235zM444 1292l-75 5q20 82 86 134.5t147 52.5q35 0 64.5 -11.5t51 -27.5t42.5 -32
t47 -27.5t55 -11.5q48 0 91 32.5t58 80.5l72 -12q-23 -80 -89 -130.5t-142 -50.5q-35 0 -64 11.5t-49.5 27.5t-40 32t-47 27.5t-60.5 11.5q-52 0 -93 -31.5t-54 -80.5z" />
    <glyph glyph-name="uni00F2" unicode="&#xf2;" horiz-adv-x="1198" 
d="M509 -23q-209 0 -318 165t-68 420q41 249 201 410.5t363 161.5q210 0 320 -166t69 -421q-41 -248 -201.5 -409t-365.5 -161zM510 59q177 0 311 144t168 359q22 136 -6 247t-105 176.5t-189 65.5q-116 0 -219 -67.5t-171 -182t-90 -254.5q-23 -136 5.5 -247t105.5 -176
t190 -65zM767 1276h-80l-165 322h103z" />
    <glyph glyph-name="uni00F3" unicode="&#xf3;" horiz-adv-x="1198" 
d="M509 -23q-209 0 -318 165t-68 420q41 249 201 410.5t363 161.5q210 0 320 -166t69 -421q-41 -248 -201.5 -409t-365.5 -161zM510 59q177 0 311 144t168 359q22 136 -6 247t-105 176.5t-189 65.5q-116 0 -219 -67.5t-171 -182t-90 -254.5q-23 -136 5.5 -247t105.5 -176
t190 -65zM669 1276l250 322h105l-273 -322h-82z" />
    <glyph glyph-name="uni00F4" unicode="&#xf4;" horiz-adv-x="1198" 
d="M509 -23q-209 0 -318 165t-68 420q41 249 201 410.5t363 161.5q210 0 320 -166t69 -421q-41 -248 -201.5 -409t-365.5 -161zM510 59q177 0 311 144t168 359q22 136 -6 247t-105 176.5t-189 65.5q-116 0 -219 -67.5t-171 -182t-90 -254.5q-23 -136 5.5 -247t105.5 -176
t190 -65zM514 1239h-91v8l306 283h60l209 -283l-1 -8h-91l-161 217z" />
    <glyph glyph-name="uni00F5" unicode="&#xf5;" horiz-adv-x="1232" 
d="M507 -23q-209 0 -318 165t-68 420q41 249 201 410.5t363 161.5q210 0 319.5 -166t68.5 -421q-41 -248 -201 -409t-365 -161zM508 59q177 0 311 144t168 359q22 136 -6 247t-105 176.5t-189 65.5q-116 0 -219 -67.5t-171 -182t-90 -254.5q-23 -136 5.5 -247t105.5 -176
t190 -65zM527 1292l-74 5q20 82 86 134.5t147 52.5q35 0 64.5 -11.5t51 -27.5t42 -32t46.5 -27.5t55 -11.5q48 0 91.5 32.5t58.5 80.5l72 -12q-23 -80 -89 -130.5t-142 -50.5q-35 0 -64 11.5t-49.5 27.5t-40 32t-47 27.5t-60.5 11.5q-52 0 -93.5 -31.5t-54.5 -80.5z" />
    <glyph glyph-name="uni00F6" unicode="&#xf6;" horiz-adv-x="1198" 
d="M509 -23q-209 0 -318 165t-68 420q41 249 201 410.5t363 161.5q210 0 320 -166t69 -421q-41 -248 -201.5 -409t-365.5 -161zM510 59q177 0 311 144t168 359q22 136 -6 247t-105 176.5t-189 65.5q-116 0 -219 -67.5t-171 -182t-90 -254.5q-23 -136 5.5 -247t105.5 -176
t190 -65zM895 1315q-31 0 -50.5 23.5t-13.5 54.5q5 25 26.5 43.5t46.5 18.5q33 0 52.5 -22.5t12.5 -55.5q-5 -25 -26.5 -43.5t-47.5 -18.5zM569 1315q-31 0 -50 23.5t-14 54.5q4 25 25.5 43.5t47.5 18.5q33 0 51.5 -22.5t13.5 -55.5q-3 -24 -25 -43t-49 -19z" />
    <glyph glyph-name="uni00F7" unicode="&#xf7;" horiz-adv-x="1306" 
d="M1102 625l-15 -86h-872l14 86h873zM711 850q-34 0 -56 24.5t-19 58.5q3 31 27 52.5t56 21.5q33 0 54 -24.5t18 -57.5q-3 -31 -26 -53t-54 -22zM596 157q-34 0 -56 24t-19 58q2 31 26 52.5t56 21.5q33 0 55 -24t18 -57q-2 -31 -25.5 -53t-54.5 -22z" />
    <glyph glyph-name="uni00F8" unicode="&#xf8;" horiz-adv-x="1198" 
d="M145 -40l-58 43l110 131q-116 167 -74 430q41 249 201 410.5t363 161.5q160 0 266 -101l100 119l58 -43l-110 -131q117 -168 75 -431q-41 -248 -201.5 -409t-365.5 -161q-158 0 -264 100zM510 61q177 0 311 144t168 359q34 210 -47 347l-642 -766q82 -84 210 -84z
M255 204l642 765q-81 84 -208 84q-116 0 -219 -67.5t-171 -182t-90 -254.5q-35 -208 46 -345z" />
    <glyph glyph-name="uni00F9" unicode="&#xf9;" horiz-adv-x="1172" 
d="M873 396l120 721h88l-186 -1117h-88l30 181h-8q-54 -88 -151.5 -142t-214.5 -54q-167 0 -253 107t-56 288l123 737h89l-122 -733q-23 -139 47.5 -225.5t205.5 -86.5t243.5 89.5t132.5 234.5zM753 1276h-80l-165 322h104z" />
    <glyph glyph-name="uni00FA" unicode="&#xfa;" horiz-adv-x="1172" 
d="M873 396l120 721h88l-186 -1117h-88l30 181h-8q-54 -88 -151.5 -142t-214.5 -54q-167 0 -253 107t-56 288l123 737h89l-122 -733q-23 -139 47.5 -225.5t205.5 -86.5t243.5 89.5t132.5 234.5zM655 1276l250 322h105l-273 -322h-82z" />
    <glyph glyph-name="uni00FB" unicode="&#xfb;" horiz-adv-x="1172" 
d="M873 396l120 721h88l-186 -1117h-88l30 181h-8q-54 -88 -151.5 -142t-214.5 -54q-167 0 -253 107t-56 288l123 737h89l-122 -733q-23 -139 47.5 -225.5t205.5 -86.5t243.5 89.5t132.5 234.5zM500 1239h-91v8l306 283h60l209 -283l-1 -8h-91l-160 217z" />
    <glyph glyph-name="uni00FC" unicode="&#xfc;" horiz-adv-x="1172" 
d="M873 396l120 721h88l-186 -1117h-88l30 181h-8q-54 -88 -151.5 -142t-214.5 -54q-167 0 -253 107t-56 288l123 737h89l-122 -733q-23 -139 47.5 -225.5t205.5 -86.5t243.5 89.5t132.5 234.5zM881 1315q-31 0 -50.5 23.5t-13.5 54.5q5 25 27 43.5t47 18.5q33 0 52.5 -22.5
t12.5 -55.5q-5 -25 -27 -43.5t-48 -18.5zM556 1315q-31 0 -50 23.5t-14 54.5q4 25 25.5 43.5t47.5 18.5q33 0 51.5 -22.5t13.5 -55.5q-3 -24 -25 -43t-49 -19z" />
    <glyph glyph-name="uni00FD" unicode="&#xfd;" horiz-adv-x="1093" 
d="M84 -439q-72 0 -121 26l38 78q96 -41 173.5 -3t144.5 163l86 161l-219 1131h91l189 -1003h8l521 1003h99l-699 -1326q-123 -230 -311 -230zM615 1276l249 322h105l-273 -322h-81z" />
    <glyph glyph-name="uni00FE" unicode="&#xfe;" horiz-adv-x="1242" 
d="M335 1489h78l-95 -582h16q6 7 30.5 40t51.5 60t69 58t104.5 49t137.5 18q151 0 251 -75.5t136.5 -205.5t9.5 -295q-43 -259 -203 -421t-381 -162q-63 0 -114 14t-81 34.5t-54.5 49.5t-35.5 51.5t-22.5 48.5t-15.5 33h-16l-105 -623h-79zM1033 559q11 78 9 149
t-23.5 131.5t-57.5 105t-94 69.5t-132 25q-177 0 -300.5 -129t-158.5 -351q-37 -225 44 -359t254 -133q91 0 170 39.5t136.5 108t96 156.5t56.5 188z" />
    <glyph glyph-name="uni00FF" unicode="&#xff;" horiz-adv-x="1093" 
d="M84 -439q-72 0 -121 26l38 78q96 -41 173.5 -3t144.5 163l86 161l-219 1131h91l189 -1003h8l521 1003h99l-699 -1326q-123 -230 -311 -230zM841 1315q-31 0 -50.5 23.5t-13.5 54.5q5 25 26.5 43.5t46.5 18.5q33 0 52.5 -22.5t12.5 -55.5q-5 -25 -26.5 -43.5t-47.5 -18.5z
M515 1315q-31 0 -50 23.5t-14 54.5q4 25 25.5 43.5t47.5 18.5q33 0 51.5 -22.5t13.5 -55.5q-3 -24 -25 -43t-49 -19z" />
    <glyph glyph-name="uni0100" unicode="&#x100;" horiz-adv-x="1303" 
d="M65 0h-96l784 1489h105l290 -1489h-96l-91 476h-647zM359 561h586l-154 811h-8zM1127 1796l-14 -80h-537l13 80h538z" />
    <glyph glyph-name="uni0101" unicode="&#x101;" horiz-adv-x="1123" 
d="M384 -24q-151 0 -237.5 89t-62.5 243q24 140 137.5 215t340.5 102q174 20 223 35q83 25 93 80l7 46q21 123 -41.5 194.5t-196.5 71.5q-116 0 -211 -52t-144 -136l-77 31q65 116 183.5 177.5t253.5 61.5q76 0 139.5 -21.5t110 -63.5t66 -111.5t4.5 -157.5l-129 -780h-89
l34 201h-6q-62 -99 -166.5 -162t-231.5 -63zM401 58q157 0 278.5 112.5t149.5 282.5l28 164q-60 -45 -298 -71q-186 -22 -277.5 -79.5t-109.5 -161.5q-18 -113 46 -180t183 -67zM978 1423l-14 -79h-536l13 79h537z" />
    <glyph glyph-name="uni0102" unicode="&#x102;" horiz-adv-x="1303" 
d="M65 0h-96l784 1489h105l290 -1489h-96l-91 476h-647zM359 561h586l-154 811h-8zM993 1862h85q-15 -91 -80.5 -145.5t-162.5 -54.5q-96 0 -143 54.5t-32 145.5h85q-10 -59 15.5 -93t86.5 -34t98.5 34t47.5 93z" />
    <glyph glyph-name="uni0103" unicode="&#x103;" horiz-adv-x="1123" 
d="M384 -24q-151 0 -237.5 89t-62.5 243q24 140 137.5 215t340.5 102q174 20 223 35q83 25 93 80l7 46q21 123 -41.5 194.5t-196.5 71.5q-116 0 -211 -52t-144 -136l-77 31q65 116 183.5 177.5t253.5 61.5q76 0 139.5 -21.5t110 -63.5t66 -111.5t4.5 -157.5l-129 -780h-89
l34 201h-6q-62 -99 -166.5 -162t-231.5 -63zM401 58q157 0 278.5 112.5t149.5 282.5l28 164q-60 -45 -298 -71q-186 -22 -277.5 -79.5t-109.5 -161.5q-18 -113 46 -180t183 -67zM845 1489h84q-15 -91 -80 -145.5t-162 -54.5q-96 0 -143 54.5t-32 145.5h84q-10 -59 16 -93
t87 -34t98.5 34t47.5 93z" />
    <glyph glyph-name="uni0104" unicode="&#x104;" horiz-adv-x="1303" 
d="M65 0h-96l784 1489h105l285 -1459q6 2 18.5 8t18.5 8l-32 -45v-1q-50 -40 -75 -62t-62 -59.5t-56.5 -72t-25.5 -70.5q-7 -33 6.5 -50t60.5 -18q61 1 118 32l-20 -107q-70 -42 -154 -43q-89 1 -133 51.5t-18 140.5q42 136 290 258h-27l-91 476h-647zM359 561h586l-154 811
h-8z" />
    <glyph glyph-name="uni0105" unicode="&#x105;" horiz-adv-x="1123" 
d="M384 -24q-151 0 -237.5 89t-62.5 243q24 140 137.5 215t340.5 102q174 20 223 35q83 25 93 80l7 46q21 123 -41.5 194.5t-196.5 71.5q-116 0 -211 -52t-144 -136l-77 31q65 116 183.5 177.5t253.5 61.5q76 0 139.5 -21.5t110 -63.5t66 -111.5t4.5 -157.5l-123 -745
q4 2 8 3.5t9 4t8 3.5l-31 -45v-1h-1q-50 -40 -75 -62t-62 -59.5t-56.5 -72t-25.5 -70.5q-7 -33 7 -50t61 -18q61 1 118 32l-21 -107q-70 -42 -153 -43q-89 1 -133 51.5t-18 140.5q42 137 289 258h-19l34 201h-6q-62 -99 -166.5 -162t-231.5 -63zM401 58q157 0 278.5 112.5
t149.5 282.5l28 164q-60 -45 -298 -71q-186 -22 -277.5 -79.5t-109.5 -161.5q-18 -113 46 -180t183 -67z" />
    <glyph glyph-name="uni0106" unicode="&#x106;" horiz-adv-x="1483" 
d="M1423 1024h-91q-2 103 -49.5 192.5t-144.5 148t-225 58.5q-111 0 -217 -45.5t-194.5 -130t-153 -215.5t-90.5 -291q-27 -165 -6 -290.5t81.5 -211t150 -129t200.5 -43.5q129 0 246 58t194.5 147t115.5 193h93q-32 -93 -92 -178t-142.5 -154.5t-192.5 -111t-230 -41.5
q-281 0 -422.5 211.5t-84.5 556.5q57 343 265.5 552.5t487.5 209.5q121 0 218.5 -41.5t158 -110.5t92.5 -154.5t32 -179.5zM902 1649l249 321h106l-274 -321h-81z" />
    <glyph glyph-name="uni0107" unicode="&#x107;" horiz-adv-x="1135" 
d="M507 -23q-142 0 -239.5 75.5t-135 207t-10.5 295.5q41 251 203 415t373 164q160 0 258 -95.5t97 -250.5h-90q-2 118 -75.5 190.5t-197.5 72.5q-174 0 -309.5 -139.5t-170.5 -355.5q-36 -216 48.5 -356.5t257.5 -140.5q124 0 227.5 73.5t145.5 193.5h91
q-51 -157 -181 -253t-292 -96zM663 1276l249 322h105l-273 -322h-81z" />
    <glyph glyph-name="uni0108" unicode="&#x108;" horiz-adv-x="1483" 
d="M1423 1024h-91q-2 103 -49.5 192.5t-144.5 148t-225 58.5q-111 0 -217 -45.5t-194.5 -130t-153 -215.5t-90.5 -291q-27 -165 -6 -290.5t81.5 -211t150 -129t200.5 -43.5q129 0 246 58t194.5 147t115.5 193h93q-32 -93 -92 -178t-142.5 -154.5t-192.5 -111t-230 -41.5
q-281 0 -422.5 211.5t-84.5 556.5q57 343 265.5 552.5t487.5 209.5q121 0 218.5 -41.5t158 -110.5t92.5 -154.5t32 -179.5zM747 1612h-91v7l305 284h61l209 -284l-1 -7h-91l-161 216z" />
    <glyph glyph-name="uni0109" unicode="&#x109;" horiz-adv-x="1135" 
d="M507 -23q-142 0 -239.5 75.5t-135 207t-10.5 295.5q41 251 203 415t373 164q160 0 258 -95.5t97 -250.5h-90q-2 118 -75.5 190.5t-197.5 72.5q-174 0 -309.5 -139.5t-170.5 -355.5q-36 -216 48.5 -356.5t257.5 -140.5q124 0 227.5 73.5t145.5 193.5h91
q-51 -157 -181 -253t-292 -96zM508 1239h-91v8l305 283h61l208 -283v-8h-91l-161 217z" />
    <glyph glyph-name="uni010A" unicode="&#x10a;" horiz-adv-x="1483" 
d="M1423 1024h-91q-2 103 -49.5 192.5t-144.5 148t-225 58.5q-111 0 -217 -45.5t-194.5 -130t-153 -215.5t-90.5 -291q-27 -165 -6 -290.5t81.5 -211t150 -129t200.5 -43.5q129 0 246 58t194.5 147t115.5 193h93q-32 -93 -92 -178t-142.5 -154.5t-192.5 -111t-230 -41.5
q-281 0 -422.5 211.5t-84.5 556.5q57 343 265.5 552.5t487.5 209.5q121 0 218.5 -41.5t158 -110.5t92.5 -154.5t32 -179.5zM967 1687q-31 0 -52 22t-18 52q2 26 23.5 46t49.5 20q32 0 52.5 -21.5t17.5 -52.5q-2 -27 -23.5 -46.5t-49.5 -19.5z" />
    <glyph glyph-name="uni010B" unicode="&#x10b;" horiz-adv-x="1135" 
d="M507 -23q-142 0 -239.5 75.5t-135 207t-10.5 295.5q41 251 203 415t373 164q160 0 258 -95.5t97 -250.5h-90q-2 118 -75.5 190.5t-197.5 72.5q-174 0 -309.5 -139.5t-170.5 -355.5q-36 -216 48.5 -356.5t257.5 -140.5q124 0 227.5 73.5t145.5 193.5h91
q-51 -157 -181 -253t-292 -96zM727 1315q-31 0 -52 21.5t-18 51.5q2 27 23.5 47t49.5 20q32 0 52.5 -21.5t17.5 -52.5q-2 -27 -23.5 -46.5t-49.5 -19.5z" />
    <glyph glyph-name="uni010C" unicode="&#x10c;" horiz-adv-x="1483" 
d="M1423 1024h-91q-2 103 -49.5 192.5t-144.5 148t-225 58.5q-111 0 -217 -45.5t-194.5 -130t-153 -215.5t-90.5 -291q-27 -165 -6 -290.5t81.5 -211t150 -129t200.5 -43.5q129 0 246 58t194.5 147t115.5 193h93q-32 -93 -92 -178t-142.5 -154.5t-192.5 -111t-230 -41.5
q-281 0 -422.5 211.5t-84.5 556.5q57 343 265.5 552.5t487.5 209.5q121 0 218.5 -41.5t158 -110.5t92.5 -154.5t32 -179.5zM801 1918l159 -217l233 217h91l-3 -7l-302 -284h-60l-212 284l3 7h91z" />
    <glyph glyph-name="uni010D" unicode="&#x10d;" horiz-adv-x="1135" 
d="M507 -23q-142 0 -239.5 75.5t-135 207t-10.5 295.5q41 251 203 415t373 164q160 0 258 -95.5t97 -250.5h-90q-2 118 -75.5 190.5t-197.5 72.5q-174 0 -309.5 -139.5t-170.5 -355.5q-36 -216 48.5 -356.5t257.5 -140.5q124 0 227.5 73.5t145.5 193.5h91
q-51 -157 -181 -253t-292 -96zM561 1545l159 -216l233 216h91l-3 -7l-302 -283h-60l-212 283l3 7h91z" />
    <glyph glyph-name="uni010E" unicode="&#x10e;" horiz-adv-x="1466" 
d="M537 0h-415l247 1489h443q314 0 459.5 -198t86.5 -546q-60 -353 -275 -549t-546 -196zM227 84h318q292 0 482.5 178.5t241.5 490.5q51 313 -68.5 482.5t-402.5 169.5h-351zM720 1918l159 -217l233 217h91l-2 -7l-303 -284h-60l-212 284l3 7h91z" />
    <glyph glyph-name="uni010F" unicode="&#x10f;" horiz-adv-x="1337" 
d="M470 -23q-133 0 -222.5 74t-122.5 205.5t-6 299.5q43 255 193 416.5t350 161.5q135 0 213.5 -74t101.5 -192h9l103 621h89l-247 -1489h-87l41 244h-11q-63 -118 -166 -192.5t-238 -74.5zM484 59q168 0 291.5 139.5t159.5 357.5q37 219 -37 357t-241 138
q-168 0 -290.5 -139.5t-158.5 -355.5q-23 -142 -0.5 -253.5t93.5 -177.5t183 -66zM1489 1447l-24 -81q-80 -260 -176 -421l-72 10q5 12 24.5 56t27.5 63t25.5 61.5t28.5 72t25 71t26 82.5l23 86h92z" />
    <glyph glyph-name="uni0110" unicode="&#x110;" horiz-adv-x="1466" 
d="M537 0h-415l120 722h-233l14 76h232l114 691h443q314 0 459.5 -198t86.5 -546q-60 -353 -275 -549t-546 -196zM345 798h259l-13 -76h-258l-106 -638h318q292 0 482.5 178.5t241.5 490.5q51 313 -68.5 482.5t-402.5 169.5h-351z" />
    <glyph glyph-name="uni0111" unicode="&#x111;" horiz-adv-x="1241" 
d="M472 -23q-133 0 -222.5 74t-122.5 205.5t-6 299.5q43 255 193 416.5t350 161.5q135 0 214 -74.5t102 -191.5h8l63 374h-310l14 76h308l29 171h88l-28 -171h185l-14 -76h-183l-207 -1242h-86l40 244h-11q-63 -118 -166 -192.5t-238 -74.5zM487 59q168 0 291 139.5
t159 357.5q37 219 -36.5 357t-240.5 138q-168 0 -291 -139.5t-159 -355.5q-23 -142 -0.5 -253.5t94 -177.5t183.5 -66z" />
    <glyph glyph-name="uni0112" unicode="&#x112;" horiz-adv-x="1205" 
d="M122 0l247 1489h830l-15 -84h-738l-102 -617h694l-15 -85h-694l-101 -619h755l-14 -84h-847zM1105 1796l-13 -80h-537l13 80h537z" />
    <glyph glyph-name="uni0113" unicode="&#x113;" horiz-adv-x="1186" 
d="M524 -23q-149 0 -250.5 74.5t-140.5 205t-11 296.5q41 251 203.5 416t369.5 165q94 0 172 -38.5t130 -107t72.5 -171t0.5 -223.5l-10 -55h-853q-34 -218 51.5 -349t276.5 -131q123 0 216 58t144 134l74 -33q-59 -98 -175.5 -169.5t-269.5 -71.5zM223 620h761
q20 119 -11.5 218t-106.5 156t-180 57q-155 0 -288 -125.5t-175 -305.5zM1004 1423l-13 -79h-537l13 79h537z" />
    <glyph glyph-name="uni0114" unicode="&#x114;" horiz-adv-x="1205" 
d="M122 0l247 1489h830l-15 -84h-738l-102 -617h694l-15 -85h-694l-101 -619h755l-14 -84h-847zM972 1862h84q-15 -91 -80.5 -145.5t-162.5 -54.5q-96 0 -142.5 54.5t-31.5 145.5h84q-10 -59 15.5 -93t86.5 -34t99 34t48 93z" />
    <glyph glyph-name="uni0115" unicode="&#x115;" horiz-adv-x="1186" 
d="M524 -23q-149 0 -250.5 74.5t-140.5 205t-11 296.5q41 251 203.5 416t369.5 165q94 0 172 -38.5t130 -107t72.5 -171t0.5 -223.5l-10 -55h-853q-34 -218 51.5 -349t276.5 -131q123 0 216 58t144 134l74 -33q-59 -98 -175.5 -169.5t-269.5 -71.5zM223 620h761
q20 119 -11.5 218t-106.5 156t-180 57q-155 0 -288 -125.5t-175 -305.5zM871 1489h85q-15 -91 -80.5 -145.5t-162.5 -54.5q-96 0 -143 54.5t-32 145.5h85q-10 -59 15.5 -93t86.5 -34t98.5 34t47.5 93z" />
    <glyph glyph-name="uni0116" unicode="&#x116;" horiz-adv-x="1205" 
d="M122 0l247 1489h830l-15 -84h-738l-102 -617h694l-15 -85h-694l-101 -619h755l-14 -84h-847zM828 1687q-31 0 -52 22t-18 52q2 26 23.5 46t49.5 20q32 0 52.5 -21.5t17.5 -52.5q-2 -27 -23.5 -46.5t-49.5 -19.5z" />
    <glyph glyph-name="uni0117" unicode="&#x117;" horiz-adv-x="1186" 
d="M524 -23q-149 0 -250.5 74.5t-140.5 205t-11 296.5q41 251 203.5 416t369.5 165q94 0 172 -38.5t130 -107t72.5 -171t0.5 -223.5l-10 -55h-853q-34 -218 51.5 -349t276.5 -131q123 0 216 58t144 134l74 -33q-59 -98 -175.5 -169.5t-269.5 -71.5zM223 620h761
q20 119 -11.5 218t-106.5 156t-180 57q-155 0 -288 -125.5t-175 -305.5zM727 1315q-31 0 -52 21.5t-18 51.5q2 27 23.5 47t49.5 20q32 0 52.5 -21.5t17.5 -52.5q-2 -27 -23.5 -46.5t-49.5 -19.5z" />
    <glyph glyph-name="uni0118" unicode="&#x118;" horiz-adv-x="1205" 
d="M122 0l247 1489h830l-15 -84h-738l-102 -617h694l-15 -85h-694l-101 -619h755l-8 -49q4 2 12.5 5.5t13.5 5.5l-32 -46q-50 -40 -75 -62t-62 -59.5t-56.5 -72t-25.5 -70.5q-7 -33 6.5 -50t60.5 -18q61 1 118 32l-20 -107q-70 -42 -154 -43q-89 1 -133 51.5t-18 140.5
q42 136 290 258h-778z" />
    <glyph glyph-name="uni0119" unicode="&#x119;" horiz-adv-x="1186" 
d="M524 -23q-149 0 -250.5 74.5t-140.5 205t-11 296.5q41 251 203.5 416t369.5 165q94 0 172 -38.5t130 -107t72.5 -171t0.5 -223.5l-10 -55h-853q-34 -218 51.5 -349t276.5 -131q123 0 216 58t144 134l74 -33q-46 -75 -129.5 -138t-192.5 -89q-45 -37 -71 -59.5t-59.5 -58
t-52.5 -69t-24 -68.5q-7 -33 7 -50t61 -18q60 1 117 32l-20 -107q-70 -42 -153 -43q-90 1 -134 51.5t-18 140.5q39 125 245 235h-21zM223 620h761q20 119 -11.5 218t-106.5 156t-180 57q-155 0 -288 -125.5t-175 -305.5z" />
    <glyph glyph-name="uni011A" unicode="&#x11a;" horiz-adv-x="1205" 
d="M122 0l247 1489h830l-15 -84h-738l-102 -617h694l-15 -85h-694l-101 -619h755l-14 -84h-847zM662 1918l159 -217l233 217h91l-2 -7l-303 -284h-60l-212 284l3 7h91z" />
    <glyph glyph-name="uni011B" unicode="&#x11b;" horiz-adv-x="1186" 
d="M524 -23q-149 0 -250.5 74.5t-140.5 205t-11 296.5q41 251 203.5 416t369.5 165q94 0 172 -38.5t130 -107t72.5 -171t0.5 -223.5l-10 -55h-853q-34 -218 51.5 -349t276.5 -131q123 0 216 58t144 134l74 -33q-59 -98 -175.5 -169.5t-269.5 -71.5zM223 620h761
q20 119 -11.5 218t-106.5 156t-180 57q-155 0 -288 -125.5t-175 -305.5zM561 1545l159 -216l233 216h91l-3 -7l-302 -283h-60l-212 283l3 7h91z" />
    <glyph glyph-name="uni011C" unicode="&#x11c;" horiz-adv-x="1515" 
d="M1332 1024q-4 79 -30.5 148.5t-75.5 127t-129.5 90.5t-183.5 33q-110 0 -214.5 -45.5t-193.5 -129.5t-154 -214t-92 -289q-52 -313 64 -495.5t366 -182.5q218 0 383.5 148.5t208.5 398.5h-475l15 84h564l-16 -84q-32 -194 -131.5 -338.5t-244 -220t-315.5 -75.5
q-288 0 -427.5 209.5t-81.5 555.5q56 344 265 554.5t489 210.5q123 0 221 -42t158 -112t91.5 -155t31.5 -177h-93zM738 1612h-91v7l306 284h60l209 -284l-1 -7h-91l-161 216z" />
    <glyph glyph-name="uni011D" unicode="&#x11d;" horiz-adv-x="1213" 
d="M424 -442q-154 0 -252.5 59.5t-128.5 164.5l80 41q25 -85 101.5 -134.5t206.5 -49.5q166 0 274 85.5t136 252.5l46 278h-9q-57 -113 -163 -181t-239 -68q-200 0 -297.5 151.5t-55.5 401.5q42 254 191 414.5t350 160.5q136 0 213.5 -73.5t103.5 -192.5h10l41 249h86
l-189 -1143q-34 -205 -168.5 -310.5t-336.5 -105.5zM491 88q168 0 289.5 126.5t158.5 344.5q35 217 -39.5 354.5t-241.5 137.5q-168 0 -289.5 -139t-156.5 -353t37.5 -342.5t241.5 -128.5zM521 1239h-91v8l305 283h61l208 -283v-8h-91l-161 217z" />
    <glyph glyph-name="uni011E" unicode="&#x11e;" horiz-adv-x="1515" 
d="M1332 1024q-4 79 -30.5 148.5t-75.5 127t-129.5 90.5t-183.5 33q-110 0 -214.5 -45.5t-193.5 -129.5t-154 -214t-92 -289q-52 -313 64 -495.5t366 -182.5q218 0 383.5 148.5t208.5 398.5h-475l15 84h564l-16 -84q-32 -194 -131.5 -338.5t-244 -220t-315.5 -75.5
q-288 0 -427.5 209.5t-81.5 555.5q56 344 265 554.5t489 210.5q123 0 221 -42t158 -112t91.5 -155t31.5 -177h-93zM1102 1862h84q-15 -91 -80.5 -145.5t-162.5 -54.5q-96 0 -142.5 54.5t-31.5 145.5h84q-10 -59 16 -93t87 -34t98.5 34t47.5 93z" />
    <glyph glyph-name="uni011F" unicode="&#x11f;" horiz-adv-x="1213" 
d="M424 -442q-154 0 -252.5 59.5t-128.5 164.5l80 41q25 -85 101.5 -134.5t206.5 -49.5q166 0 274 85.5t136 252.5l46 278h-9q-57 -113 -163 -181t-239 -68q-200 0 -297.5 151.5t-55.5 401.5q42 254 191 414.5t350 160.5q136 0 213.5 -73.5t103.5 -192.5h10l41 249h86
l-189 -1143q-34 -205 -168.5 -310.5t-336.5 -105.5zM491 88q168 0 289.5 126.5t158.5 344.5q35 217 -39.5 354.5t-241.5 137.5q-168 0 -289.5 -139t-156.5 -353t37.5 -342.5t241.5 -128.5zM884 1489h85q-15 -91 -80.5 -145.5t-162.5 -54.5q-96 0 -143 54.5t-32 145.5h85
q-10 -59 15.5 -93t86.5 -34t98.5 34t47.5 93z" />
    <glyph glyph-name="uni0120" unicode="&#x120;" horiz-adv-x="1515" 
d="M1332 1024q-4 79 -30.5 148.5t-75.5 127t-129.5 90.5t-183.5 33q-110 0 -214.5 -45.5t-193.5 -129.5t-154 -214t-92 -289q-52 -313 64 -495.5t366 -182.5q218 0 383.5 148.5t208.5 398.5h-475l15 84h564l-16 -84q-32 -194 -131.5 -338.5t-244 -220t-315.5 -75.5
q-288 0 -427.5 209.5t-81.5 555.5q56 344 265 554.5t489 210.5q123 0 221 -42t158 -112t91.5 -155t31.5 -177h-93zM958 1687q-31 0 -52 22t-18 52q2 26 23.5 46t49.5 20q32 0 52.5 -21.5t17.5 -52.5q-2 -27 -23.5 -46.5t-49.5 -19.5z" />
    <glyph glyph-name="uni0121" unicode="&#x121;" horiz-adv-x="1213" 
d="M424 -442q-154 0 -252.5 59.5t-128.5 164.5l80 41q25 -85 101.5 -134.5t206.5 -49.5q166 0 274 85.5t136 252.5l46 278h-9q-57 -113 -163 -181t-239 -68q-200 0 -297.5 151.5t-55.5 401.5q42 254 191 414.5t350 160.5q136 0 213.5 -73.5t103.5 -192.5h10l41 249h86
l-189 -1143q-34 -205 -168.5 -310.5t-336.5 -105.5zM491 88q168 0 289.5 126.5t158.5 344.5q35 217 -39.5 354.5t-241.5 137.5q-168 0 -289.5 -139t-156.5 -353t37.5 -342.5t241.5 -128.5zM740 1315q-31 0 -51.5 21.5t-17.5 51.5q2 27 23.5 47t49.5 20q32 0 52.5 -21.5
t17.5 -52.5q-1 -27 -23 -46.5t-51 -19.5z" />
    <glyph glyph-name="uni0122" unicode="&#x122;" horiz-adv-x="1515" 
d="M1332 1024q-4 79 -30.5 148.5t-75.5 127t-129.5 90.5t-183.5 33q-110 0 -214.5 -45.5t-193.5 -129.5t-154 -214t-92 -289q-52 -313 64 -495.5t366 -182.5q218 0 383.5 148.5t208.5 398.5h-475l15 84h564l-16 -84q-32 -194 -131.5 -338.5t-244 -220t-315.5 -75.5
q-288 0 -427.5 209.5t-81.5 555.5q56 344 265 554.5t489 210.5q123 0 221 -42t158 -112t91.5 -155t31.5 -177h-93zM703 -142l-24 -81q-80 -258 -176 -420l-72 10q5 12 24.5 56t27.5 63t25.5 61.5t28.5 72t25 71t26 82.5l23 85h92z" />
    <glyph glyph-name="uni0123" unicode="&#x123;" horiz-adv-x="1213" 
d="M424 -442q-154 0 -252.5 59.5t-128.5 164.5l80 41q25 -85 101.5 -134.5t206.5 -49.5q166 0 274 85.5t136 252.5l46 278h-9q-57 -113 -163 -181t-239 -68q-200 0 -297.5 151.5t-55.5 401.5q42 254 191 414.5t350 160.5q136 0 213.5 -73.5t103.5 -192.5h10l41 249h86
l-189 -1143q-34 -205 -168.5 -310.5t-336.5 -105.5zM491 88q168 0 289.5 126.5t158.5 344.5q35 217 -39.5 354.5t-241.5 137.5q-168 0 -289.5 -139t-156.5 -353t37.5 -342.5t241.5 -128.5zM631 1260l21 122q12 69 75 158t120 141l70 -98q-34 -46 -53.5 -85.5t-24.5 -59
t-13 -63.5l-17 -115h-178z" />
    <glyph glyph-name="uni0124" unicode="&#x124;" horiz-adv-x="1509" 
d="M122 0l247 1489h91l-116 -701h897l117 701h91l-248 -1489h-90l116 703h-898l-116 -703h-91zM735 1612h-91v8l306 283h60l209 -283l-1 -8h-91l-160 217z" />
    <glyph glyph-name="uni0125" unicode="&#x125;" horiz-adv-x="1178" 
d="M300 724l-120 -724h-89l247 1489h89l-90 -549h8q53 89 149.5 140.5t215.5 51.5q171 0 258 -106.5t57 -288.5l-123 -737h-88l122 733q23 143 -45.5 229.5t-207.5 86.5q-143 0 -251 -90t-132 -235zM207 1612h-91v7l305 284h60l209 -284l-1 -7h-90l-161 216z" />
    <glyph glyph-name="uni0126" unicode="&#x126;" horiz-adv-x="1545" 
d="M1527 1138l-20 -135h-119l-166 -1003h-91l116 703h-897l-117 -703h-90l166 1003h-116l19 135h120l58 351h91l-58 -351h897l58 351h91l-58 -351h116zM1297 1003h-897l-36 -215h898z" />
    <glyph glyph-name="uni0127" unicode="&#x127;" horiz-adv-x="1178" 
d="M300 724l-120 -724h-89l212 1279h-245l14 76h244l22 134h89l-22 -134h249l-14 -76h-247l-56 -339h8q53 89 149.5 140.5t215.5 51.5q171 0 258 -106.5t57 -288.5l-123 -737h-88l122 733q23 143 -45.5 229.5t-207.5 86.5q-143 0 -251 -90t-132 -235z" />
    <glyph glyph-name="uni0128" unicode="&#x128;" horiz-adv-x="779" 
d="M589 1489l-247 -1489h-91l247 1489h91zM307 1664l-74 6q20 82 85.5 134.5t146.5 52.5q42 0 78.5 -17.5t58.5 -38t55 -38t68 -17.5q48 0 91 32.5t58 80.5l72 -12q-23 -80 -88.5 -130.5t-141.5 -50.5q-43 0 -78 17.5t-55.5 38t-54 38t-73.5 17.5q-52 0 -93.5 -32t-54.5 -81
z" />
    <glyph glyph-name="uni0129" unicode="&#x129;" horiz-adv-x="512" 
d="M125 0l186 1117h88l-186 -1117h-88zM161 1292l-74 5q20 82 85.5 134.5t146.5 52.5q35 0 64.5 -11.5t51 -27.5t42.5 -32t47 -27.5t55 -11.5q48 0 91 32.5t58 80.5l72 -12q-23 -80 -89 -130.5t-142 -50.5q-35 0 -64 11.5t-49.5 27.5t-40 32t-47 27.5t-60.5 11.5
q-52 0 -93 -31.5t-54 -80.5z" />
    <glyph glyph-name="uni012A" unicode="&#x12a;" horiz-adv-x="520" 
d="M460 1489l-247 -1489h-91l247 1489h91zM735 1796l-14 -80h-536l13 80h537z" />
    <glyph glyph-name="uni012B" unicode="&#x12b;" horiz-adv-x="464" 
d="M95 0l186 1117h88l-186 -1117h-88zM645 1424l-14 -79h-536l13 79h537z" />
    <glyph glyph-name="uni012C" unicode="&#x12c;" horiz-adv-x="520" 
d="M460 1489l-247 -1489h-91l247 1489h91zM601 1862h85q-15 -91 -80.5 -145.5t-162.5 -54.5q-96 0 -143 54.5t-32 145.5h85q-10 -59 15.5 -93t86.5 -34t98.5 34t47.5 93z" />
    <glyph glyph-name="uni012D" unicode="&#x12d;" horiz-adv-x="464" 
d="M95 0l186 1117h88l-186 -1117h-88zM511 1490h85q-15 -91 -80.5 -145.5t-162.5 -54.5q-96 0 -143 54.5t-32 145.5h85q-10 -59 15.5 -93t86.5 -34t98.5 34t47.5 93z" />
    <glyph glyph-name="uni012E" unicode="&#x12e;" horiz-adv-x="522" 
d="M458 1489l-241 -1454q6 3 24 11l-29 -43l-1 -3h-2q-49 -40 -74.5 -62.5t-62 -59.5t-56 -71.5t-25.5 -70.5q-7 -33 6.5 -50t60.5 -18q61 1 118 32l-20 -107q-70 -42 -154 -43q-89 1 -133 51.5t-18 140.5q42 137 289 258h-20l247 1489h91z" />
    <glyph glyph-name="uni012F" unicode="&#x12f;" horiz-adv-x="430" 
d="M-36 -450q-90 1 -134 51.5t-18 140.5q42 136 290 258h-9l186 1117h88l-179 -1078q2 1 7.5 3.5t7.5 3.5l-19 -27l-3 -19h-10q-50 -40 -75 -62t-62 -59.5t-56.5 -72t-25.5 -70.5q-7 -33 7 -50t61 -18q60 1 117 32l-20 -107q-70 -42 -153 -43zM360 1320q-31 0 -52 21.5
t-18 51.5q2 26 24 46.5t50 20.5q32 0 52 -21.5t17 -52.5q-2 -27 -23.5 -46.5t-49.5 -19.5z" />
    <glyph glyph-name="uni0130" unicode="&#x130;" horiz-adv-x="520" 
d="M460 1489l-247 -1489h-91l247 1489h91zM457 1687q-31 0 -51.5 21.5t-17.5 52.5q2 26 23.5 46t49.5 20q32 0 52.5 -21.5t17.5 -52.5q-1 -27 -23 -46.5t-51 -19.5z" />
    <glyph glyph-name="uni0131" unicode="&#x131;" horiz-adv-x="464" 
d="M95 0l186 1117h88l-186 -1117h-88z" />
    <glyph glyph-name="uni0132" unicode="&#x132;" horiz-adv-x="1600" 
d="M1448 1489h91l-179 -1085q-35 -213 -156.5 -318.5t-292.5 -105.5q-166 0 -260.5 90.5t-71.5 232.5h89q-17 -105 54.5 -172t195.5 -67q131 0 226.5 84t125.5 259zM460 1489l-247 -1489h-91l247 1489h91z" />
    <glyph glyph-name="uni0133" unicode="&#x133;" horiz-adv-x="928" 
d="M746 1117h88l-207 -1253q-22 -128 -112 -205.5t-214 -77.5q-16 0 -25 2l16 82h22q84 0 146.5 53.5t77.5 145.5zM95 0l186 1117h88l-186 -1117h-88zM830 1315q-31 0 -52 21.5t-18 51.5q2 27 23.5 47t49.5 20q32 0 52.5 -21.5t17.5 -52.5q-2 -27 -23.5 -46.5t-49.5 -19.5z
M367 1316q-31 0 -52 21.5t-18 51.5q2 26 24 46t50 20q32 0 52.5 -21t17.5 -52q-1 -27 -23 -46.5t-51 -19.5z" />
    <glyph glyph-name="uni0134" unicode="&#x134;" horiz-adv-x="1080" 
d="M928 1489h91l-179 -1085q-35 -213 -156.5 -318.5t-292.5 -105.5q-166 0 -260.5 90.5t-71.5 232.5h89q-17 -105 54.5 -172t195.5 -67q131 0 226.5 84t125.5 259zM797 1612h-91v7l306 284h60l209 -284l-1 -7h-91l-161 216z" />
    <glyph glyph-name="uni0135" unicode="&#x135;" horiz-adv-x="464" 
d="M281 1117h88l-207 -1253q-22 -128 -112 -205.5t-214 -77.5q-16 0 -25 2l17 82h21q84 0 146.5 53.5t77.5 145.5zM145 1239h-90v8l305 283h60l209 -283l-1 -8h-91l-160 217z" />
    <glyph glyph-name="uni0136" unicode="&#x136;" horiz-adv-x="1285" 
d="M122 0l247 1489h91l-143 -864h10l929 864h121l-763 -704l510 -785h-114l-465 719l-250 -234l-82 -485h-91zM596 -142l-24 -81q-80 -258 -176 -420l-72 10q5 12 24.5 56t27.5 63t25.5 61.5t28.5 72t25 71t26 82.5l23 85h92z" />
    <glyph glyph-name="uni0137" unicode="&#x137;" horiz-adv-x="1036" 
d="M91 0l247 1489h89l-154 -924h11l647 552h119l-565 -481l402 -636h-110l-365 579l-158 -132l-74 -447h-89zM494 -142l-23 -81q-80 -258 -176 -420l-73 10q5 12 24.5 56t27.5 63t25.5 61.5t28.5 72t25 71t26 82.5l23 85h92z" />
    <glyph glyph-name="uni0138" unicode="&#x138;" horiz-adv-x="1237" 
d="M410 1082l-81 -489h75l17 16l19 45l13 -17l492 445h144l-581 -515l443 -567h-160l-403 501h-75l-83 -501h-129l180 1082h129z" />
    <glyph glyph-name="uni0139" unicode="&#x139;" horiz-adv-x="1152" 
d="M122 0l247 1489h91l-232 -1405h727l-15 -84h-818zM395 1649l249 321h106l-274 -321h-81z" />
    <glyph glyph-name="uni013A" unicode="&#x13a;" horiz-adv-x="456" 
d="M427 1489l-247 -1489h-89l247 1489h89zM361 1649l249 321h106l-274 -321h-81z" />
    <glyph glyph-name="uni013B" unicode="&#x13b;" horiz-adv-x="1152" 
d="M122 0l247 1489h91l-232 -1405h727l-15 -84h-818zM570 -142l-23 -81q-80 -258 -176 -420l-73 10q5 12 24.5 56t27.5 63t25.5 61.5t28.5 72t25 71t26 82.5l24 85h91z" />
    <glyph glyph-name="uni013C" unicode="&#x13c;" horiz-adv-x="456" 
d="M427 1489l-247 -1489h-89l247 1489h89zM172 -142l-24 -81q-80 -258 -176 -420l-72 10q5 12 24.5 56t27.5 63t25.5 61.5t28.5 72t25 71t26 82.5l23 85h92z" />
    <glyph glyph-name="uni013D" unicode="&#x13d;" horiz-adv-x="1152" 
d="M122 0l247 1489h91l-232 -1405h727l-15 -84h-818zM889 1447l-23 -81q-80 -260 -176 -421l-73 10q5 12 29 66.5t34.5 80t30 73.5t35 93t29.5 93l23 86h91z" />
    <glyph glyph-name="uni013E" unicode="&#x13e;" horiz-adv-x="511" 
d="M423 1489l-247 -1489h-89l248 1489h88zM660 1447l-23 -81q-80 -260 -176 -421l-73 10q5 12 24.5 56t27.5 63t25.5 61.5t28.5 72t25 71t26 82.5l24 86h91z" />
    <glyph glyph-name="uni013F" unicode="&#x13f;" horiz-adv-x="1128" 
d="M119 0l247 1489h91l-233 -1405h727l-14 -84h-818zM713 713q-31 0 -51.5 21.5t-17.5 51.5q2 26 23.5 46t49.5 20q32 0 52.5 -21t17.5 -52q-1 -27 -23 -46.5t-51 -19.5z" />
    <glyph glyph-name="uni0140" unicode="&#x140;" horiz-adv-x="526" 
d="M423 1489l-247 -1489h-89l248 1489h88zM491 735q-31 0 -52 22t-18 52q2 26 24 46t50 20q32 0 52 -21.5t17 -52.5q-2 -27 -23.5 -46.5t-49.5 -19.5z" />
    <glyph glyph-name="uni0141" unicode="&#x141;" horiz-adv-x="1120" 
d="M561 910l11 -102l-284 -102l-103 -622h727l-15 -84h-818l112 671l-139 -49l-14 103l171 61l118 703h90l-110 -669z" />
    <glyph glyph-name="uni0142" unicode="&#x142;" horiz-adv-x="438" 
d="M489 905l-14 -98l-173 -70l-122 -737h-89l116 700l-193 -77l21 98l188 77l115 691h89l-108 -653z" />
    <glyph glyph-name="uni0143" unicode="&#x143;" horiz-adv-x="1568" 
d="M1508 1489l-248 -1489h-88l-730 1324h-9l-220 -1324h-91l247 1489h90l730 -1325h9l219 1325h91zM917 1649l250 321h105l-273 -321h-82z" />
    <glyph glyph-name="uni0144" unicode="&#x144;" horiz-adv-x="1175" 
d="M300 724l-120 -724h-89l186 1117h87l-29 -177h8q53 88 149.5 140t214.5 52q170 0 257 -107t57 -288l-123 -737h-89l123 733q23 143 -45.5 229.5t-206.5 86.5q-142 0 -248.5 -90t-131.5 -235zM658 1276l250 322h105l-273 -322h-82z" />
    <glyph glyph-name="uni0145" unicode="&#x145;" horiz-adv-x="1568" 
d="M1508 1489l-248 -1489h-88l-730 1324h-9l-220 -1324h-91l247 1489h90l730 -1325h9l219 1325h91zM727 -142l-23 -81q-80 -258 -176 -420l-73 10q5 12 24.5 56t27.5 63t25.5 61.5t28.5 72t25 71t26 82.5l24 85h91z" />
    <glyph glyph-name="uni0146" unicode="&#x146;" horiz-adv-x="1175" 
d="M300 724l-120 -724h-89l186 1117h87l-29 -177h8q53 88 149.5 140t214.5 52q170 0 257 -107t57 -288l-123 -737h-89l123 733q23 143 -45.5 229.5t-206.5 86.5q-142 0 -248.5 -90t-131.5 -235zM531 -142l-23 -81q-80 -258 -176 -420l-73 10q5 12 24.5 56t27.5 63t25.5 61.5
t28.5 72t25 71t26 82.5l23 85h92z" />
    <glyph glyph-name="uni0147" unicode="&#x147;" horiz-adv-x="1568" 
d="M1508 1489l-248 -1489h-88l-730 1324h-9l-220 -1324h-91l247 1489h90l730 -1325h9l219 1325h91zM816 1918l159 -217l233 217h91l-2 -7l-303 -284h-60l-212 284l3 7h91z" />
    <glyph glyph-name="uni0148" unicode="&#x148;" horiz-adv-x="1175" 
d="M300 724l-120 -724h-89l186 1117h87l-29 -177h8q53 88 149.5 140t214.5 52q170 0 257 -107t57 -288l-123 -737h-89l123 733q23 143 -45.5 229.5t-206.5 86.5q-142 0 -248.5 -90t-131.5 -235zM557 1545l159 -216l233 216h91l-2 -7l-303 -283h-60l-212 283l3 7h91z" />
    <glyph glyph-name="uni014A" unicode="&#x14a;" horiz-adv-x="1565" 
d="M1150 0h22l-730 1324h-9l-220 -1324h-91l247 1489h90l730 -1325h9l219 1325h91l-248 -1489h-1l-31 -160q-24 -97 -97.5 -170.5t-144.5 -73.5h-28q-47 -2 -60 3l13 93q15 -3 23 -3q72 0 118.5 35t66.5 125z" />
    <glyph glyph-name="uni014B" unicode="&#x14b;" horiz-adv-x="1139" 
d="M794 0h15l123 733q23 143 -45.5 229.5t-206.5 86.5q-142 0 -248.5 -90t-131.5 -235l-120 -724h-89l186 1117h87l-29 -177h8q53 88 149.5 140t214.5 52q170 0 257 -107t57 -288l-123 -737h-25l-24 -154q-12 -107 -93 -181t-168 -74h-11q-43 0 -48 5l-2 75q14 -2 32 -2
q179 0 207 169z" />
    <glyph glyph-name="uni014C" unicode="&#x14c;" horiz-adv-x="1539" 
d="M1429 741q-57 -343 -265 -552t-486 -209q-187 0 -315.5 95.5t-179.5 270t-14 402.5q58 343 267 552.5t488 209.5q138 0 246.5 -55t174.5 -155.5t90.5 -242.5t-6.5 -316zM1341 748q51 309 -65 492t-353 183q-243 0 -427.5 -186.5t-237.5 -495.5q-52 -308 64.5 -491
t355.5 -183q244 0 429 186.5t234 494.5zM1240 1796l-14 -80h-537l14 80h537z" />
    <glyph glyph-name="uni014D" unicode="&#x14d;" horiz-adv-x="1198" 
d="M509 -23q-209 0 -318 165t-68 420q41 249 201 410.5t363 161.5q210 0 320 -166t69 -421q-41 -248 -201.5 -409t-365.5 -161zM510 59q177 0 311 144t168 359q22 136 -6 247t-105 176.5t-189 65.5q-116 0 -219 -67.5t-171 -182t-90 -254.5q-23 -136 5.5 -247t105.5 -176
t190 -65zM1012 1423l-14 -79h-537l13 79h538z" />
    <glyph glyph-name="uni014E" unicode="&#x14e;" horiz-adv-x="1539" 
d="M1429 741q-57 -343 -265 -552t-486 -209q-187 0 -315.5 95.5t-179.5 270t-14 402.5q58 343 267 552.5t488 209.5q138 0 246.5 -55t174.5 -155.5t90.5 -242.5t-6.5 -316zM1341 748q51 309 -65 492t-353 183q-243 0 -427.5 -186.5t-237.5 -495.5q-52 -308 64.5 -491
t355.5 -183q244 0 429 186.5t234 494.5zM1107 1862h84q-15 -91 -80.5 -145.5t-162.5 -54.5q-96 0 -142.5 54.5t-31.5 145.5h84q-10 -59 16 -93t87 -34t98.5 34t47.5 93z" />
    <glyph glyph-name="uni014F" unicode="&#x14f;" horiz-adv-x="1198" 
d="M509 -23q-209 0 -318 165t-68 420q41 249 201 410.5t363 161.5q210 0 320 -166t69 -421q-41 -248 -201.5 -409t-365.5 -161zM510 59q177 0 311 144t168 359q22 136 -6 247t-105 176.5t-189 65.5q-116 0 -219 -67.5t-171 -182t-90 -254.5q-23 -136 5.5 -247t105.5 -176
t190 -65zM878 1489h84q-15 -91 -80.5 -145.5t-162.5 -54.5q-96 0 -142.5 54.5t-31.5 145.5h84q-10 -59 16 -93t87 -34t98.5 34t47.5 93z" />
    <glyph glyph-name="uni0150" unicode="&#x150;" horiz-adv-x="1539" 
d="M1429 741q-57 -343 -265 -552t-486 -209q-187 0 -315.5 95.5t-179.5 270t-14 402.5q58 343 267 552.5t488 209.5q138 0 246.5 -55t174.5 -155.5t90.5 -242.5t-6.5 -316zM1341 748q51 309 -65 492t-353 183q-243 0 -427.5 -186.5t-237.5 -495.5q-52 -308 64.5 -491
t355.5 -183q244 0 429 186.5t234 494.5zM975 1608l273 312h145l-311 -312h-107zM724 1608l196 312h143l-254 -312h-85z" />
    <glyph glyph-name="uni0151" unicode="&#x151;" horiz-adv-x="1198" 
d="M509 -23q-209 0 -318 165t-68 420q41 249 201 410.5t363 161.5q210 0 320 -166t69 -421q-41 -248 -201.5 -409t-365.5 -161zM510 59q177 0 311 144t168 359q22 136 -6 247t-105 176.5t-189 65.5q-116 0 -219 -67.5t-171 -182t-90 -254.5q-23 -136 5.5 -247t105.5 -176
t190 -65zM747 1236l273 312h145l-311 -312h-107zM496 1236l196 312h142l-254 -312h-84z" />
    <glyph glyph-name="uni0152" unicode="&#x152;" horiz-adv-x="1905" 
d="M672 0q-185 0 -312.5 93.5t-178 263t-14.5 388.5q37 222 142.5 391t263.5 261t346 92h978l-14 -84h-738l-102 -617h694l-15 -85h-694l-101 -619h755l-14 -84h-996zM835 84l220 1321h-150q-158 1 -294.5 -81t-229 -233t-125.5 -346q-50 -298 67.5 -479.5t363.5 -181.5h148
z" />
    <glyph glyph-name="uni0153" unicode="&#x153;" horiz-adv-x="2047" 
d="M509 -23q-209 0 -318 165t-68 420q41 249 201 410.5t363 161.5q152 0 253.5 -89.5t132.5 -243.5q80 153 210.5 243t280.5 90q94 0 172 -38.5t130.5 -107t73 -171t0.5 -223.5l-11 -55h-853q-34 -218 51.5 -349t276.5 -131q123 0 216.5 58t144.5 134l74 -33
q-59 -97 -176 -169t-270 -72q-161 0 -265 86.5t-135 236.5q-80 -149 -208.5 -236t-275.5 -87zM510 59q177 0 311 144t168 359q22 136 -6 247t-105 176.5t-189 65.5q-116 0 -219 -67.5t-171 -182t-90 -254.5q-23 -136 5.5 -247t105.5 -176t190 -65zM1092 620h762
q20 119 -11.5 218t-106.5 156t-180 57q-155 0 -288.5 -125.5t-175.5 -305.5z" />
    <glyph glyph-name="uni0154" unicode="&#x154;" horiz-adv-x="1276" 
d="M122 0l247 1489h459q210 0 311.5 -119t70.5 -316q-26 -151 -118.5 -258t-234.5 -149l243 -647h-100l-235 628q-31 -5 -79 -5h-370l-103 -623h-91zM330 708h367q170 0 283.5 93.5t139.5 252.5q26 162 -55.5 256.5t-252.5 94.5h-366zM765 1649l250 321h105l-273 -321h-82z
" />
    <glyph glyph-name="uni0155" unicode="&#x155;" horiz-adv-x="756" 
d="M91 0l186 1117h87l-29 -174h8q49 86 145 137.5t207 51.5q76 0 125 -27l-43 -76q-39 18 -103 18q-140 0 -245 -88t-127 -223l-122 -736h-89zM488 1276l249 322h106l-274 -322h-81z" />
    <glyph glyph-name="uni0156" unicode="&#x156;" horiz-adv-x="1276" 
d="M122 0l247 1489h459q210 0 311.5 -119t70.5 -316q-26 -151 -118.5 -258t-234.5 -149l243 -647h-100l-235 628q-31 -5 -79 -5h-370l-103 -623h-91zM330 708h367q170 0 283.5 93.5t139.5 252.5q26 162 -55.5 256.5t-252.5 94.5h-366zM598 -142l-23 -81q-80 -258 -176 -420
l-73 10q5 12 24.5 56t27.5 63t25.5 61.5t28.5 72t25 71t26 82.5l23 85h92z" />
    <glyph glyph-name="uni0157" unicode="&#x157;" horiz-adv-x="756" 
d="M91 0l186 1117h87l-29 -174h8q49 86 145 137.5t207 51.5q76 0 125 -27l-43 -76q-39 18 -103 18q-140 0 -245 -88t-127 -223l-122 -736h-89zM171 -142l-23 -81q-80 -258 -176 -420l-73 10q5 12 24.5 56t27.5 63t25.5 61.5t28.5 72t25 71t26 82.5l23 85h92z" />
    <glyph glyph-name="uni0158" unicode="&#x158;" horiz-adv-x="1276" 
d="M122 0l247 1489h459q210 0 311.5 -119t70.5 -316q-26 -151 -118.5 -258t-234.5 -149l243 -647h-100l-235 628q-31 -5 -79 -5h-370l-103 -623h-91zM330 708h367q170 0 283.5 93.5t139.5 252.5q26 162 -55.5 256.5t-252.5 94.5h-366zM664 1918l159 -217l233 217h91l-2 -7
l-303 -284h-60l-212 284l3 7h91z" />
    <glyph glyph-name="uni0159" unicode="&#x159;" horiz-adv-x="756" 
d="M91 0l186 1117h87l-29 -174h8q49 86 145 137.5t207 51.5q76 0 125 -27l-43 -76q-39 18 -103 18q-140 0 -245 -88t-127 -223l-122 -736h-89zM386 1545l159 -216l233 216h91l-2 -7l-303 -283h-60l-212 283l3 7h91z" />
    <glyph glyph-name="uni015A" unicode="&#x15a;" horiz-adv-x="1271" 
d="M1111 1113q9 143 -77.5 229t-245.5 86q-162 0 -283 -87.5t-144 -220.5q-33 -203 258 -296l155 -48q85 -27 146.5 -59.5t109 -78.5t65.5 -109t5 -142q-31 -184 -182.5 -297.5t-381.5 -113.5q-213 0 -327.5 106t-97.5 279h93q-13 -138 82.5 -219t264.5 -81q180 0 307.5 91
t151.5 236q19 113 -49.5 184.5t-225.5 120.5l-167 52q-339 107 -297 372q29 174 179 284.5t352 110.5q197 0 306 -112t91 -287h-88zM769 1649l249 321h106l-274 -321h-81z" />
    <glyph glyph-name="uni015B" unicode="&#x15b;" horiz-adv-x="1029" 
d="M946 876l-85 -20q-33 197 -242 197q-125 0 -214 -62.5t-105 -161.5q-13 -79 30.5 -129.5t147.5 -77.5l166 -43q126 -33 181 -107.5t37 -183.5q-23 -139 -146 -225t-297 -86q-157 0 -245.5 74t-95.5 211l88 17q5 -109 71 -165t188 -56q138 0 234.5 66t113.5 169
q26 156 -165 204l-169 43q-132 33 -189.5 108.5t-39.5 185.5q23 133 138.5 216.5t276.5 83.5q279 0 321 -258zM599 1276l249 322h105l-273 -322h-81z" />
    <glyph glyph-name="uni015C" unicode="&#x15c;" horiz-adv-x="1271" 
d="M1111 1113q9 143 -77.5 229t-245.5 86q-162 0 -283 -87.5t-144 -220.5q-33 -203 258 -296l155 -48q85 -27 146.5 -59.5t109 -78.5t65.5 -109t5 -142q-31 -184 -182.5 -297.5t-381.5 -113.5q-213 0 -327.5 106t-97.5 279h93q-13 -138 82.5 -219t264.5 -81q180 0 307.5 91
t151.5 236q19 113 -49.5 184.5t-225.5 120.5l-167 52q-339 107 -297 372q29 174 179 284.5t352 110.5q197 0 306 -112t91 -287h-88zM614 1612h-91v7l305 284h61l208 -284v-7h-91l-161 216z" />
    <glyph glyph-name="uni015D" unicode="&#x15d;" horiz-adv-x="1029" 
d="M946 876l-85 -20q-33 197 -242 197q-125 0 -214 -62.5t-105 -161.5q-13 -79 30.5 -129.5t147.5 -77.5l166 -43q126 -33 181 -107.5t37 -183.5q-23 -139 -146 -225t-297 -86q-157 0 -245.5 74t-95.5 211l88 17q5 -109 71 -165t188 -56q138 0 234.5 66t113.5 169
q26 156 -165 204l-169 43q-132 33 -189.5 108.5t-39.5 185.5q23 133 138.5 216.5t276.5 83.5q279 0 321 -258zM444 1239h-91v8l305 283h61l208 -283v-8h-91l-161 217z" />
    <glyph glyph-name="uni015E" unicode="&#x15e;" horiz-adv-x="1271" 
d="M1111 1113q9 143 -77.5 229t-245.5 86q-162 0 -283 -87.5t-144 -220.5q-33 -203 258 -296l155 -48q85 -27 146.5 -59.5t109 -78.5t65.5 -109t5 -142q-30 -176 -170.5 -288t-354.5 -122l-11 -29q69 -12 102 -55.5t21 -114.5q-14 -83 -80.5 -127.5t-181.5 -46.5l9 69
q153 1 170 103q9 58 -25.5 85.5t-115.5 28.5l32 87q-195 11 -298 115.5t-86 268.5h93q-13 -138 82.5 -219t264.5 -81q180 0 307.5 91t151.5 236q19 113 -49.5 184.5t-225.5 120.5l-167 52q-339 107 -297 372q29 174 179 284.5t352 110.5q197 0 306 -112t91 -287h-88z" />
    <glyph glyph-name="uni015F" unicode="&#x15f;" horiz-adv-x="1029" 
d="M946 876l-85 -20q-33 197 -242 197q-125 0 -214 -62.5t-105 -161.5q-13 -79 30.5 -129.5t147.5 -77.5l166 -43q126 -33 181 -107.5t37 -183.5q-21 -130 -131 -214.5t-270 -95.5l-11 -30q69 -12 102 -55.5t21 -114.5q-28 -169 -261 -174l9 69q153 1 170 103q9 58 -26 85.5
t-116 28.5l33 87q-141 9 -219.5 82.5t-84.5 202.5l88 17q5 -109 71 -165t188 -56q138 0 234.5 66t113.5 169q26 156 -165 204l-169 43q-132 33 -189.5 108.5t-39.5 185.5q23 133 138.5 216.5t276.5 83.5q279 0 321 -258z" />
    <glyph glyph-name="uni0160" unicode="&#x160;" horiz-adv-x="1271" 
d="M1111 1113q9 143 -77.5 229t-245.5 86q-162 0 -283 -87.5t-144 -220.5q-33 -203 258 -296l155 -48q85 -27 146.5 -59.5t109 -78.5t65.5 -109t5 -142q-31 -184 -182.5 -297.5t-381.5 -113.5q-213 0 -327.5 106t-97.5 279h93q-13 -138 82.5 -219t264.5 -81q180 0 307.5 91
t151.5 236q19 113 -49.5 184.5t-225.5 120.5l-167 52q-339 107 -297 372q29 174 179 284.5t352 110.5q197 0 306 -112t91 -287h-88zM668 1918l159 -217l233 217h91l-3 -7l-302 -284h-61l-211 284l3 7h91z" />
    <glyph glyph-name="uni0161" unicode="&#x161;" horiz-adv-x="1029" 
d="M946 876l-85 -20q-33 197 -242 197q-125 0 -214 -62.5t-105 -161.5q-13 -79 30.5 -129.5t147.5 -77.5l166 -43q126 -33 181 -107.5t37 -183.5q-23 -139 -146 -225t-297 -86q-157 0 -245.5 74t-95.5 211l88 17q5 -109 71 -165t188 -56q138 0 234.5 66t113.5 169
q26 156 -165 204l-169 43q-132 33 -189.5 108.5t-39.5 185.5q23 133 138.5 216.5t276.5 83.5q279 0 321 -258zM497 1545l159 -216l233 216h91l-3 -7l-302 -283h-60l-212 283l3 7h91z" />
    <glyph glyph-name="uni0162" unicode="&#x162;" horiz-adv-x="1276" 
d="M256 1405l15 84h1043l-14 -84h-477l-232 -1405h-1l-21 -56q69 -12 102 -55t21 -114q-28 -169 -261 -174l9 69q153 1 170 102q9 58 -26 86t-116 29l43 113h-11l232 1405h-476z" />
    <glyph glyph-name="uni0163" unicode="&#x163;" horiz-adv-x="723" 
d="M672 1117l-14 -79h-235l-127 -774q-16 -97 29.5 -146.5t127.5 -49.5q32 0 77 13l8 -81q-49 -18 -107 -18q-13 0 -20 1l-12 -35q69 -12 101.5 -55.5t20.5 -114.5q-28 -169 -261 -174l9 69q153 1 170 103q9 58 -26 85.5t-116 28.5l41 108q-73 26 -110.5 91.5t-21.5 158.5
l130 790h-165l13 79h164l45 268h88l-45 -268h236z" />
    <glyph glyph-name="uni0164" unicode="&#x164;" horiz-adv-x="1276" 
d="M256 1405l15 84h1043l-14 -84h-477l-232 -1405h-91l232 1405h-476zM670 1918l159 -217l233 217h91l-2 -7l-303 -284h-60l-212 284l3 7h91z" />
    <glyph glyph-name="uni0165" unicode="&#x165;" horiz-adv-x="736" 
d="M672 1117l-14 -79h-235l-127 -774q-16 -97 29.5 -146.5t127.5 -49.5q32 0 77 13l8 -81q-49 -18 -107 -18q-111 0 -178 72t-47 194l130 790h-165l13 79h164l45 268h88l-45 -268h43q5 11 23.5 54t26.5 62t25 60t27.5 69.5t24 69t25.5 79.5l23 85h91l-23 -81
q-72 -236 -163 -398h113z" />
    <glyph glyph-name="uni0166" unicode="&#x166;" horiz-adv-x="1276" 
d="M256 1405l15 84h1043l-14 -84h-477l-99 -599h248l-14 -76h-247l-120 -730h-91l120 730h-244l14 76h243l99 599h-476z" />
    <glyph glyph-name="uni0167" unicode="&#x167;" horiz-adv-x="723" 
d="M95 646l24 124h173l44 268h-165l13 79h164l45 268h88l-45 -268h236l-14 -79h-235l-43 -268h253l-21 -124h-253l-63 -382q-16 -97 29.5 -146.5t127.5 -49.5q32 0 77 13l8 -81q-49 -18 -107 -18q-111 0 -178 72t-47 194l65 398h-176z" />
    <glyph glyph-name="uni0168" unicode="&#x168;" horiz-adv-x="1530" 
d="M1378 1489h91l-163 -986q-39 -232 -220.5 -379.5t-416.5 -147.5q-114 0 -209 39t-157.5 107.5t-88.5 167t-7 213.5l162 986h91l-163 -986q-22 -128 21 -229t137.5 -156t222.5 -55q196 0 350 123.5t187 316.5zM684 1664l-75 6q20 82 86 134.5t147 52.5q42 0 78.5 -17.5
t58.5 -38t55 -38t68 -17.5q48 0 91 32.5t58 80.5l72 -12q-23 -80 -89 -130.5t-142 -50.5q-43 0 -78 17.5t-55.5 38t-54 38t-73.5 17.5q-51 0 -92.5 -32t-54.5 -81z" />
    <glyph glyph-name="uni0169" unicode="&#x169;" horiz-adv-x="1172" 
d="M873 396l120 721h88l-186 -1117h-88l30 181h-8q-54 -88 -151.5 -142t-214.5 -54q-167 0 -253 107t-56 288l123 737h89l-122 -733q-23 -139 47.5 -225.5t205.5 -86.5t243.5 89.5t132.5 234.5zM441 1292l-74 5q20 82 85.5 134.5t146.5 52.5q35 0 64.5 -11.5t51 -27.5
t42.5 -32t47 -27.5t55 -11.5q48 0 91 32.5t58 80.5l72 -12q-23 -80 -89 -130.5t-142 -50.5q-35 0 -64 11.5t-49.5 27.5t-40 32t-47 27.5t-60.5 11.5q-52 0 -93 -31.5t-54 -80.5z" />
    <glyph glyph-name="uni016A" unicode="&#x16a;" horiz-adv-x="1530" 
d="M1378 1489h91l-163 -986q-39 -232 -220.5 -379.5t-416.5 -147.5q-114 0 -209 39t-157.5 107.5t-88.5 167t-7 213.5l162 986h91l-163 -986q-22 -128 21 -229t137.5 -156t222.5 -55q196 0 350 123.5t187 316.5zM1240 1796l-14 -80h-537l14 80h537z" />
    <glyph glyph-name="uni016B" unicode="&#x16b;" horiz-adv-x="1172" 
d="M873 396l120 721h88l-186 -1117h-88l30 181h-8q-54 -88 -151.5 -142t-214.5 -54q-167 0 -253 107t-56 288l123 737h89l-122 -733q-23 -139 47.5 -225.5t205.5 -86.5t243.5 89.5t132.5 234.5zM998 1423l-14 -79h-537l13 79h538z" />
    <glyph glyph-name="uni016C" unicode="&#x16c;" horiz-adv-x="1530" 
d="M1378 1489h91l-163 -986q-39 -232 -220.5 -379.5t-416.5 -147.5q-114 0 -209 39t-157.5 107.5t-88.5 167t-7 213.5l162 986h91l-163 -986q-22 -128 21 -229t137.5 -156t222.5 -55q196 0 350 123.5t187 316.5zM1107 1862h84q-15 -91 -80.5 -145.5t-162.5 -54.5
q-96 0 -142.5 54.5t-31.5 145.5h84q-10 -59 16 -93t87 -34t98.5 34t47.5 93z" />
    <glyph glyph-name="uni016D" unicode="&#x16d;" horiz-adv-x="1172" 
d="M873 396l120 721h88l-186 -1117h-88l30 181h-8q-54 -88 -151.5 -142t-214.5 -54q-167 0 -253 107t-56 288l123 737h89l-122 -733q-23 -139 47.5 -225.5t205.5 -86.5t243.5 89.5t132.5 234.5zM864 1489h84q-15 -91 -80.5 -145.5t-162.5 -54.5q-96 0 -142.5 54.5
t-31.5 145.5h84q-10 -59 16 -93t87 -34t98.5 34t47.5 93z" />
    <glyph glyph-name="uni016E" unicode="&#x16e;" horiz-adv-x="1530" 
d="M1378 1489h91l-163 -986q-39 -232 -220.5 -379.5t-416.5 -147.5q-114 0 -209 39t-157.5 107.5t-88.5 167t-7 213.5l162 986h91l-163 -986q-22 -128 21 -229t137.5 -156t222.5 -55q196 0 350 123.5t187 316.5zM938 1571q-78 0 -126 54t-38 132q9 78 71.5 132t142.5 54
q81 0 130 -54t38 -132q-12 -81 -73.5 -133.5t-144.5 -52.5zM948 1639q50 0 90.5 35t45.5 83q5 51 -25 85t-81 34q-49 0 -87.5 -35t-45.5 -84q-7 -50 23 -84t80 -34z" />
    <glyph glyph-name="uni016F" unicode="&#x16f;" horiz-adv-x="1172" 
d="M873 396l120 721h88l-186 -1117h-88l30 181h-8q-54 -88 -151.5 -142t-214.5 -54q-167 0 -253 107t-56 288l123 737h89l-122 -733q-23 -139 47.5 -225.5t205.5 -86.5t243.5 89.5t132.5 234.5zM710 1252q-84 0 -136 56t-42 137q9 81 74 138.5t148 57.5t133 -57t42 -139
q-8 -81 -71.5 -137t-147.5 -56zM719 1320q52 0 91.5 36.5t46.5 88.5t-26 89.5t-86 37.5t-94 -37.5t-46 -89.5t28 -88.5t86 -36.5z" />
    <glyph glyph-name="uni0170" unicode="&#x170;" horiz-adv-x="1530" 
d="M1378 1489h91l-163 -986q-39 -232 -220.5 -379.5t-416.5 -147.5q-114 0 -209 39t-157.5 107.5t-88.5 167t-7 213.5l162 986h91l-163 -986q-22 -128 21 -229t137.5 -156t222.5 -55q196 0 350 123.5t187 316.5zM975 1608l273 312h145l-311 -312h-107zM724 1608l196 312h143
l-254 -312h-85z" />
    <glyph glyph-name="uni0171" unicode="&#x171;" horiz-adv-x="1172" 
d="M873 396l120 721h88l-186 -1117h-88l30 181h-8q-54 -88 -151.5 -142t-214.5 -54q-167 0 -253 107t-56 288l123 737h89l-122 -733q-23 -139 47.5 -225.5t205.5 -86.5t243.5 89.5t132.5 234.5zM733 1236l273 312h145l-311 -312h-107zM482 1236l196 312h142l-253 -312h-85z
" />
    <glyph glyph-name="uni0172" unicode="&#x172;" horiz-adv-x="1530" 
d="M1378 1489h91l-163 -986q-35 -208 -187.5 -350.5t-359.5 -170.5q-82 -66 -131.5 -123t-59.5 -118q-7 -33 7 -50t61 -18q60 1 117 32l-20 -106q-72 -43 -153 -44q-90 1 -134 51.5t-18 140.5q37 122 234 229q-113 1 -206.5 40.5t-154.5 108t-87 166.5t-7 212l162 986h91
l-163 -986q-22 -128 21 -229t137.5 -156t222.5 -55q196 0 350 123.5t187 316.5z" />
    <glyph glyph-name="uni0173" unicode="&#x173;" horiz-adv-x="1172" 
d="M873 396l120 721h88l-180 -1082q4 2 13.5 5.5t12.5 5.5l-32 -45v-1q-50 -40 -75 -62t-62 -59.5t-56.5 -72t-25.5 -70.5q-7 -33 6.5 -50t60.5 -18q61 1 118 32l-20 -107q-70 -42 -154 -43q-89 1 -133 51.5t-18 140.5q42 137 289 258h-18l30 181h-8q-54 -88 -151.5 -142
t-214.5 -54q-167 0 -253 107t-56 288l123 737h89l-122 -733q-23 -139 47.5 -225.5t205.5 -86.5t243.5 89.5t132.5 234.5z" />
    <glyph glyph-name="uni0174" unicode="&#x174;" horiz-adv-x="1865" 
d="M369 0l-162 1489h95l137 -1349h9l584 1349h111l133 -1349h9l588 1349h96l-657 -1489h-107l-138 1340h-8l-585 -1340h-105zM909 1612h-91v7l306 284h60l209 -284l-1 -7h-91l-161 216z" />
    <glyph glyph-name="uni0175" unicode="&#x175;" horiz-adv-x="1632" 
d="M335 0l-149 1117h91l124 -987h8l453 987h92l125 -986h7l452 986h95l-521 -1117h-99l-125 971h-9l-446 -971h-98zM730 1239h-91v8l306 283h60l209 -283l-1 -8h-91l-161 217z" />
    <glyph glyph-name="uni0176" unicode="&#x176;" horiz-adv-x="1291" 
d="M218 1489h104l350 -718h12l588 718h110l-672 -813l-111 -676h-92l112 676zM624 1612h-91v7l306 284h60l209 -284l-1 -7h-91l-161 216z" />
    <glyph glyph-name="uni0177" unicode="&#x177;" horiz-adv-x="1093" 
d="M84 -439q-72 0 -121 26l38 78q96 -41 173.5 -3t144.5 163l86 161l-219 1131h91l189 -1003h8l521 1003h99l-699 -1326q-123 -230 -311 -230zM460 1239h-91v8l305 283h61l208 -283v-8h-91l-161 217z" />
    <glyph glyph-name="uni0178" unicode="&#x178;" horiz-adv-x="1291" 
d="M218 1489h104l350 -718h12l588 718h110l-672 -813l-111 -676h-92l112 676zM1004 1687q-31 0 -50.5 23.5t-13.5 54.5q5 25 27 43.5t47 18.5q33 0 52.5 -22.5t12.5 -55.5q-5 -25 -27 -43.5t-48 -18.5zM679 1687q-31 0 -50 23.5t-14 54.5q4 25 25.5 43.5t47.5 18.5
q33 0 51.5 -22.5t13.5 -55.5q-3 -24 -25 -43t-49 -19z" />
    <glyph glyph-name="uni0179" unicode="&#x179;" horiz-adv-x="1253" 
d="M53 0l14 75l1068 1330h-846l13 84h958l-10 -74l-1072 -1331h857l-15 -84h-967zM764 1649l250 321h105l-273 -321h-82z" />
    <glyph glyph-name="uni017A" unicode="&#x17a;" horiz-adv-x="1064" 
d="M53 0l14 75l812 950l2 8h-620l15 84h733l-13 -76l-805 -949l-1 -8h674l-15 -84h-796zM600 1276l249 322h106l-274 -322h-81z" />
    <glyph glyph-name="uni017B" unicode="&#x17b;" horiz-adv-x="1253" 
d="M53 0l14 75l1068 1330h-846l13 84h958l-10 -74l-1072 -1331h857l-15 -84h-967zM828 1687q-31 0 -51.5 21.5t-17.5 52.5q2 26 23.5 46t49.5 20q32 0 52.5 -21.5t17.5 -52.5q-1 -27 -23 -46.5t-51 -19.5z" />
    <glyph glyph-name="uni017C" unicode="&#x17c;" horiz-adv-x="1064" 
d="M53 0l14 75l812 950l2 8h-620l15 84h733l-13 -76l-805 -949l-1 -8h674l-15 -84h-796zM665 1315q-31 0 -52 21.5t-18 51.5q2 27 23.5 47t49.5 20q32 0 52.5 -21.5t17.5 -52.5q-2 -27 -23.5 -46.5t-49.5 -19.5z" />
    <glyph glyph-name="uni017D" unicode="&#x17d;" horiz-adv-x="1253" 
d="M53 0l14 75l1068 1330h-846l13 84h958l-10 -74l-1072 -1331h857l-15 -84h-967zM663 1918l159 -217l233 217h90l-2 -7l-302 -284h-61l-211 284l3 7h91z" />
    <glyph glyph-name="uni017E" unicode="&#x17e;" horiz-adv-x="1064" 
d="M53 0l14 75l812 950l2 8h-620l15 84h733l-13 -76l-805 -949l-1 -8h674l-15 -84h-796zM499 1545l159 -216l233 216h91l-2 -7l-303 -283h-60l-212 283l3 7h91z" />
    <glyph glyph-name="uni017F" unicode="&#x17f;" horiz-adv-x="517" 
d="M81 0h-130l200 1207q27 166 123 257.5t236 91.5q58 0 126 -20l-40 -92q-23 8 -76 8q-96 0 -158.5 -65.5t-79.5 -179.5z" />
    <glyph glyph-name="uni0180" unicode="&#x180;" horiz-adv-x="1240" 
d="M122 0l207 1242h-247l14 76h245l28 171h88l-28 -171h249l-14 -76h-247l-61 -374h8q60 117 164.5 191.5t239.5 74.5q132 0 222 -74t123 -205.5t5 -298.5q-42 -255 -191 -417t-350 -162q-136 0 -214.5 74.5t-102.5 192.5h-11l-40 -244h-87zM303 556q-36 -220 36 -358.5
t239 -138.5q168 0 292 141t160 356q23 142 0.5 253t-94 176.5t-183.5 65.5q-168 0 -291 -139t-159 -356z" />
    <glyph glyph-name="uni0181" unicode="&#x181;" horiz-adv-x="1557" 
d="M361 0l248 1489h483q200 0 292 -104t62 -280q-23 -133 -100 -222t-187 -116l-1 -8q118 -10 186 -113t42 -260q-29 -176 -160 -281t-342 -105h-523zM467 84h432q164 0 269.5 83t129.5 219q23 142 -58 235.5t-233 93.5h-435zM586 798h424q137 0 231.5 87.5t115.5 219.5
q24 140 -49 220t-230 80h-393zM564 1396h-93q-41 0 -68.5 -13.5t-43 -41t-23 -54t-14.5 -68.5l-5 -36h-93l9 68q12 94 80 166t169 72h99z" />
    <glyph glyph-name="uni0182" unicode="&#x182;" horiz-adv-x="1336" 
d="M122 0l247 1489h839l-15 -93h-749l-98 -582h468q220 0 315 -105.5t63 -292.5q-31 -190 -162.5 -303t-348.5 -113h-559zM228 93h469q161 0 273.5 98t132.5 228q22 124 -59 209t-245 85h-470z" />
    <glyph glyph-name="uni0183" unicode="&#x183;" horiz-adv-x="1240" 
d="M1145 1489l-14 -84h-687l-88 -537h8q60 117 164.5 191.5t239.5 74.5q132 0 222 -74t123 -205.5t5 -298.5q-42 -255 -191 -417t-350 -162q-136 0 -214.5 74.5t-102.5 192.5h-11l-40 -244h-87l247 1489h776zM303 556q-36 -220 36 -358.5t239 -138.5q168 0 292 141t160 356
q23 142 0.5 253t-94 176.5t-183.5 65.5q-168 0 -291 -139t-159 -356z" />
    <glyph glyph-name="uni0184" unicode="&#x184;" horiz-adv-x="1368" 
d="M640 1489l-15 -93h-35l-98 -582h468q218 0 313 -106t63 -292q-32 -191 -163 -303.5t-348 -112.5h-558l232 1396h-343l15 93h469zM476 713l-104 -620h469q162 0 274.5 98t132.5 228q20 124 -60.5 209t-244.5 85h-467z" />
    <glyph glyph-name="uni0185" unicode="&#x185;" horiz-adv-x="1240" 
d="M380 1536h45l-8 -47h61l-96 -582h17q7 7 30 38.5t49.5 59.5t68 59t105 49.5t140.5 18.5q151 0 251 -75.5t136.5 -205.5t9.5 -295q-43 -259 -203 -421t-381 -162q-62 0 -112.5 14t-80.5 34.5t-54.5 49t-36 51t-23 48.5t-16.5 34h-24l-35 -204h-72l173 1047h-25l-108 227
l7 37zM1099 559q11 79 9 150t-23.5 131.5t-57.5 104.5t-94.5 69t-132.5 25q-177 0 -301 -129t-159 -351q-37 -225 44.5 -359t254.5 -133q91 0 170.5 39t136.5 107.5t96 156.5t57 189z" />
    <glyph glyph-name="uni0186" unicode="&#x186;" horiz-adv-x="1455" 
d="M599 -20q-77 0 -146.5 15.5t-133 51t-110.5 87.5t-76 129.5t-33 172.5h89q9 -172 127 -266.5t286 -94.5q116 0 225 45.5t200 129.5t157 214t93 290q25 162 3.5 286t-83 207t-152 125.5t-202.5 42.5t-218.5 -38.5t-197 -120.5t-136.5 -195h-91q83 207 258 328t376 121
q187 0 317.5 -96.5t184 -273t17.5 -405.5q-38 -225 -147.5 -397.5t-267.5 -265t-339 -92.5z" />
    <glyph glyph-name="uni0187" unicode="&#x187;" horiz-adv-x="1491" 
d="M1423 1024h-91q-2 103 -49.5 192.5t-144.5 148t-225 58.5q-111 0 -217 -45.5t-194.5 -130t-153 -215.5t-90.5 -291q-27 -165 -6 -290.5t81.5 -211t150 -129t200.5 -43.5q129 0 246 58t194.5 147t115.5 193h93q-32 -93 -92 -178t-142.5 -154.5t-192.5 -111t-230 -41.5
q-281 0 -422.5 211.5t-84.5 556.5q57 343 265.5 552.5t487.5 209.5q161 0 274.5 -69.5t171.5 -184.5l1 7q20 108 80.5 169.5t147.5 62.5q56 -3 63 -9l-11 -76q-18 6 -34 6q-71 0 -106.5 -27.5t-48.5 -100.5l-39 -219q2 -30 2 -45z" />
    <glyph glyph-name="uni0188" unicode="&#x188;" horiz-adv-x="1206" 
d="M507 -23q-142 0 -239.5 75.5t-135 207t-10.5 295.5q41 251 203 415t373 164q97 0 173 -36t122 -102q38 99 114.5 163.5t171.5 64.5q42 0 59 -3l-14 -80q-30 2 -45 2q-78 0 -140 -63t-79 -160l-11 -66q4 -27 4 -66h-90q0 27 -4 47h-2l1 5q-18 97 -88.5 154t-179.5 57
q-174 0 -309.5 -139.5t-170.5 -355.5q-36 -216 48.5 -356.5t257.5 -140.5q124 0 227.5 73.5t145.5 193.5h91q-51 -157 -181 -253t-292 -96z" />
    <glyph glyph-name="uni0189" unicode="&#x189;" horiz-adv-x="1466" 
d="M537 0h-415l120 722h-233l14 76h232l114 691h443q314 0 459.5 -198t86.5 -546q-60 -353 -275 -549t-546 -196zM345 798h259l-13 -76h-258l-106 -638h318q292 0 482.5 178.5t241.5 490.5q51 313 -68.5 482.5t-402.5 169.5h-351z" />
    <glyph glyph-name="uni018A" unicode="&#x18a;" horiz-adv-x="1714" 
d="M793 0h-416l248 1489h443q314 0 459 -198t86 -546q-60 -353 -275 -549t-545 -196zM482 84h318q292 0 482.5 178.5t241.5 490.5q51 313 -68.5 482.5t-402.5 169.5h-351zM224 1183l9 68q11 94 79 166t170 72h99l-14 -86h-93q-41 0 -69.5 -14.5t-44.5 -43.5t-23.5 -56
t-14.5 -70l-5 -36h-93z" />
    <glyph glyph-name="uni018B" unicode="&#x18b;" horiz-adv-x="1237" 
d="M1027 0h-556q-219 0 -315 112.5t-63 303.5q32 188 164 297t350 110h423l85 509h-703l16 108h837zM913 108l97 601h-422q-162 0 -250 -80t-109 -210q-6 -49 -4.5 -94.5t19.5 -85t48 -68.5t81 -46t118 -17h422z" />
    <glyph glyph-name="uni018C" unicode="&#x18c;" horiz-adv-x="1216" 
d="M380 1489h776l-245 -1489h-87l40 244h-10q-63 -118 -166.5 -192.5t-239.5 -74.5q-133 0 -222.5 74.5t-122 205.5t-4.5 299q42 254 191.5 416t349.5 162q135 0 215 -74.5t101 -191.5h8l91 537h-688zM914 556q24 142 -1.5 254t-99.5 176.5t-185 64.5q-112 0 -205 -65.5
t-152.5 -176.5t-83.5 -253q-24 -141 2 -253t100 -178t185 -66q167 0 285 138.5t155 358.5z" />
    <glyph glyph-name="uni018D" unicode="&#x18d;" horiz-adv-x="948" 
d="M631 -375h-639l17 96h457q-11 26 -72 105t-97 116q-80 86 -129.5 150t-92.5 140.5t-56 154.5t1 163l3 20q38 232 185.5 382.5t355.5 150.5q139 0 231.5 -73.5t126.5 -199t9 -283.5l-3 -20q-30 -172 -175.5 -301.5t-377.5 -153.5q-7 -1 -13.5 -2t-9 -1.5t-4.5 -0.5h-3
q-4 0 -8 1q34 -40 145.5 -156t166.5 -194zM801 550l3 20q19 122 -1 217.5t-85.5 153.5t-170.5 58q-156 0 -262 -123t-134 -306l-3 -20q-20 -114 19.5 -210.5t111.5 -153.5q48 -14 104 -14q86 0 160 31.5t126 84.5t85.5 120t46.5 142z" />
    <glyph glyph-name="uni018E" unicode="&#x18e;" horiz-adv-x="1184" 
d="M1093 1489l-247 -1489h-829l14 84h738l102 618h-694l15 84h694l102 619h-756l15 84h846z" />
    <glyph glyph-name="uni018F" unicode="&#x18f;" horiz-adv-x="1419" 
d="M612 -20q-280 0 -396.5 173.5t-66.5 483.5l17 96h1013l2 12q15 107 14.5 202t-26.5 174t-71 136t-120 89t-172 32q-75 0 -146.5 -16t-107.5 -31t-87 -40l-34 79l14 10q14 9 19 12t22 13.5t28.5 15t32.5 13.5t39 14t45 11.5t52.5 10t58.5 6t67 2.5q197 0 325.5 -94
t174.5 -258.5t10 -380.5l-7 -36q-27 -158 -96 -295.5t-163 -231.5t-208.5 -148t-232.5 -54zM1161 642h-879l-6 -32q-82 -534 353 -534q189 0 332 159t200 407z" />
    <glyph glyph-name="uni0190" unicode="&#x190;" horiz-adv-x="1238" 
d="M401 745q-99 44 -143.5 124.5t-26.5 192.5q32 200 181 308t376 108q126 0 223 -47.5t145 -138.5t28 -208h-135q20 120 -58.5 201.5t-218.5 81.5q-180 0 -283 -81.5t-125 -212.5q-20 -124 48 -198t248 -74h152l-3 -16l-16 -99h-149q-366 0 -411 -287q-27 -152 58 -232
t265 -80q157 0 269 92t134 225h131q-14 -86 -53.5 -157.5t-93.5 -120t-121.5 -82t-138 -49t-142.5 -15.5q-110 0 -196.5 23.5t-150.5 72.5t-90 133.5t-7 197.5q20 123 98 209t206 129z" />
    <glyph glyph-name="uni0191" unicode="&#x191;" horiz-adv-x="1166" 
d="M89 0l248 1489h831l-15 -84h-740l-102 -617h672l-15 -85h-671l-117 -703l-24 -152q-21 -130 -96.5 -197.5t-195.5 -67.5q-38 0 -63 13l30 76q12 -7 43 -7q164 0 192 184z" />
    <glyph glyph-name="uni0192" unicode="&#x192;" horiz-adv-x="678" 
d="M646 1082l-21 -99h-194l-182 -1104q-26 -154 -109.5 -234.5t-218.5 -80.5q-56 0 -86 14l31 101q20 -11 98 -11q56 0 112.5 58.5t74.5 152.5l180 1104h-188l20 99h188l19 125q25 162 113 255.5t194 93.5q40 0 92.5 -8.5t71.5 -20.5l-72 -105q-33 11 -65 11
q-199 0 -233 -226l-21 -125h196z" />
    <glyph glyph-name="uni0193" unicode="&#x193;" horiz-adv-x="1497" 
d="M1332 1024v12h-2l2 4q-6 77 -34 144t-77 121.5t-128.5 86t-179.5 31.5q-110 0 -214.5 -45.5t-193.5 -129.5t-154 -214t-92 -289q-52 -313 64 -495.5t366 -182.5q218 0 383.5 148.5t208.5 398.5h-475l15 84h564l-16 -84q-32 -194 -131.5 -338.5t-244 -220t-315.5 -75.5
q-288 0 -427.5 209.5t-81.5 555.5q56 344 265 554.5t489 210.5q173 0 290.5 -79.5t171.5 -207.5q29 79 74 116t129 37q14 0 21 1q38 2 44 -4l-12 -78q-7 5 -30 5q-144 0 -172 -154l-14 -96q1 0 1 -13l-1 -13h-93z" />
    <glyph glyph-name="uni0194" unicode="&#x194;" horiz-adv-x="1135" 
d="M136 1507h86l299 -1197l710 1197h86l-761 -1340l8 -28q23 -93 59 -205q19 -61 24.5 -91.5t0.5 -69.5q-18 -95 -79 -152t-167 -57t-145.5 56.5t-21.5 152.5q5 30 10.5 50.5t21.5 52.5t29.5 54.5t52 87t71.5 121.5l31 53zM486 47q-18 -30 -49.5 -80.5t-44 -71.5t-29 -50.5
t-23.5 -47t-9 -32.5q-5 -30 23.5 -53t70.5 -23q41 0 77.5 23.5t41.5 52.5q4 28 -3.5 66.5t-29.5 121.5q-4 15 -12.5 46t-12.5 48z" />
    <glyph glyph-name="uni0195" unicode="&#x195;" horiz-adv-x="1885" 
d="M85 0l247 1489h87l-88 -531h14q112 174 355 174q177 0 260.5 -101.5t48.5 -320.5l-26 -151l-20 -111q-12 -70 -12 -127.5t8.5 -97t25.5 -69.5t36.5 -47t43.5 -28t45 -14.5t43 -3.5q59 0 116.5 25.5t120.5 89t116.5 161.5t102.5 255t82 356l30 169h79l-28 -169
q-34 -205 -91 -372t-122 -276t-141 -182.5t-148 -105.5t-143 -32q-61 0 -111 24.5t-90 79.5t-50.5 144.5t6.5 219.5l21 111l27 168q25 151 -40 235t-203 85q-153 -1 -265.5 -95.5t-142.5 -262.5l-113 -689h-81z" />
    <glyph glyph-name="uni0196" unicode="&#x196;" horiz-adv-x="691" 
d="M424 1536l-200 -1204q-18 -116 20.5 -182.5t133.5 -65.5q35 -1 82 11l8 -95q-70 -20 -133 -20q-140 0 -203.5 92t-36.5 260l200 1204h129z" />
    <glyph glyph-name="uni0197" unicode="&#x197;" horiz-adv-x="520" 
d="M460 1489l-113 -683h248l-14 -76h-246l-122 -730h-91l122 730h-245l14 76h243l113 683h91z" />
    <glyph glyph-name="uni0198" unicode="&#x198;" horiz-adv-x="1298" 
d="M122 0l247 1489h90l-132 -802h16l779 741q52 51 113.5 69.5t111.5 7t81 -44.5l-67 -76q-24 21 -54 27.5t-72 -9t-86 -56.5l-558 -517l494 -829h-113l-440 768l-227 -219l-93 -549h-90z" />
    <glyph glyph-name="uni0199" unicode="&#x199;" horiz-adv-x="1030" 
d="M776 0l-360 579l-181 -163l-69 -416h-79l200 1216h2l5 29q16 103 92.5 184t180.5 81h8q33 2 51 -7l-18 -86q-8 6 -37 6q-82 0 -132 -40.5t-67 -137.5l-17 -120h-4l-95 -585h15l625 577h123l-530 -477l404 -640h-117z" />
    <glyph glyph-name="uni019A" unicode="&#x19a;" horiz-adv-x="456" 
d="M427 1489l-114 -683h250l-14 -76h-248l-121 -730h-89l121 730h-245l14 76h244l113 683h89z" />
    <glyph glyph-name="uni019B" unicode="&#x19b;" horiz-adv-x="1240" 
d="M761 1451l-25 -154l-65 -26l40 -189h1l-1 -1l193 -913q9 -44 21 -54t39 -9h11h34l-6 -105q-15 -15 -60 -17h-23q-24 0 -35 0.5t-29 5t-28 16t-23 31.5t-22.5 53t-19.5 79l-154 657l-440 -825h-149l549 995l-47 215l-245 -99l23 149l190 78q-12 33 -27.5 45t-38.5 13
q-4 0 -21 -1t-21 -2l22 99l48 5h5q81 0 122.5 -23.5t60.5 -72.5z" />
    <glyph glyph-name="uni019C" unicode="&#x19c;" horiz-adv-x="1781" 
d="M803 189q-131 -209 -384 -209q-343 0 -268 474l167 1003h133l-169 -1003q-16 -90 -11.5 -154t16 -104.5t36.5 -63.5t49.5 -31t55.5 -8q280 -1 374 316q0 7 1 14.5t2.5 16.5t2.5 14l169 1003h128l-169 -1003q-16 -90 -11.5 -154t17 -104.5t38 -63.5t51 -31t56.5 -8
q301 -1 382 371l166 993h124l-241 -1457h-131l23 120q-124 -140 -334 -140q-113 0 -182.5 48.5t-90.5 160.5z" />
    <glyph glyph-name="uni019D" unicode="&#x19d;" horiz-adv-x="1590" 
d="M145 0h1l247 1489h90l730 -1325h9l219 1325h91l-248 -1489h-88l-730 1324h-9l-220 -1324h-1l-29 -154q-66 -269 -253 -270q-30 1 -99 14l13 90q45 -8 51 -8q82 0 132 41t68 138z" />
    <glyph glyph-name="uni019E" unicode="&#x19e;" horiz-adv-x="1175" 
d="M300 724l-120 -724h-89l186 1117h87l-29 -177h8q53 88 149.5 140t214.5 52q171 0 257.5 -107t56.5 -288l-193 -1156h-88l192 1152q23 143 -45 229.5t-206 86.5q-141 0 -249 -90t-132 -235z" />
    <glyph glyph-name="uni019F" unicode="&#x19f;" horiz-adv-x="1530" 
d="M1429 741q-57 -343 -265 -552t-486 -209q-187 0 -315.5 95.5t-179.5 270t-14 402.5q58 343 267 552.5t488 209.5q138 0 246.5 -55t174.5 -155.5t90.5 -242.5t-6.5 -316zM1322 656q-56 -23 -115.5 -32.5t-104 -9.5t-108 12t-98 21t-102.5 29q-70 20 -104 29t-99.5 21
t-111.5 12t-107.5 -10t-119.5 -33q-37 -289 79.5 -458.5t346.5 -169.5q224 0 401 160t243 429zM1349 804q33 285 -84 452t-342 167q-221 0 -396.5 -157t-246.5 -424q68 25 134 33t138 -2.5t117.5 -21.5t126.5 -35q70 -20 106.5 -30t102 -21.5t113 -10.5t109.5 12.5t122 37.5
z" />
    <glyph glyph-name="uni01A0" unicode="&#x1a0;" horiz-adv-x="1532" 
d="M1527 1620h154q-25 -146 -104 -239.5t-205 -126.5q109 -207 57 -513q-57 -343 -265 -552t-486 -209q-187 0 -315.5 95.5t-179.5 270t-14 402.5q58 343 267 552.5t488 209.5q227 0 365 -141q98 11 159 76t79 175zM1341 748q51 307 -63 490q-34 -2 -54 -2l9 60
q-115 127 -310 127q-243 0 -427.5 -186.5t-237.5 -495.5q-52 -308 64.5 -491t355.5 -183q244 0 429 186.5t234 494.5z" />
    <glyph glyph-name="uni01A1" unicode="&#x1a1;" horiz-adv-x="1181" 
d="M1145 1215h143q-23 -134 -79 -217t-160 -111q57 -149 27 -340q-41 -248 -201.5 -409t-365.5 -161q-209 0 -318 165t-68 420q41 249 201 410.5t363 161.5q189 0 300 -138q32 4 56.5 17.5t40 31t27.5 48t18.5 55.5t15.5 67zM510 59q177 0 311 144t168 359q30 178 -29 312
q-8 -1 -24 -1l5 36q-84 142 -252 142q-116 0 -219 -67.5t-171 -182t-90 -254.5q-23 -136 5.5 -247t105.5 -176t190 -65z" />
    <glyph glyph-name="uni01A2" unicode="&#x1a2;" horiz-adv-x="1501" 
d="M1164 646l-77 -440q-148 -226 -508 -226q-124 0 -222.5 44t-164 131.5t-87.5 217.5t5 301l3 21l11 66l4 22l1 2q35 212 137.5 370.5t247.5 240.5t312 82q361 0 437 -226l-79 -472l-124 2l74 457q-12 20 -21 31.5t-35 32.5t-58 32.5t-90 21.5t-132 10q-124 -1 -235 -68
t-193 -200.5t-112 -313.5l-14 -90l-3 -21q-45 -269 47 -428t308 -159q84 0 149.5 12t107.5 34.5t64.5 40t44.5 41.5l76 431h126zM1562 1457l-308 -1873h-133l296 1786l-184 -43l12 61l212 69h105z" />
    <glyph glyph-name="uni01A3" unicode="&#x1a3;" horiz-adv-x="1138" 
d="M1164 1082l-248 -1498h-125l213 1295l-152 -99l-47 -280h1l-67 -408q-65 -51 -154 -81.5t-152 -30.5q-94 0 -167.5 29.5t-118 80.5t-72 119.5t-30 146.5t9.5 161l7 50q18 105 63 199.5t113.5 170.5t167 121t213.5 45q98 0 161.5 -17t109.5 -76l-2 -11l153 83h123zM453 84
q67 -1 162 41l56 346h-2l82 489q-63 39 -143 39q-75 0 -139 -26t-108.5 -67.5t-79 -99t-55 -116.5t-31.5 -123l-8 -50q-35 -211 40 -322.5t226 -110.5z" />
    <glyph glyph-name="uni01A4" unicode="&#x1a4;" horiz-adv-x="1466" 
d="M311 1202h-87l7 49q18 111 90 174.5t188 63.5h503q209 0 311 -125t68 -323q-31 -196 -175.5 -321.5t-352.5 -125.5h-368l-99 -594h-91l234 1405h-44q-81 0 -124 -43t-55 -126zM509 679h367q169 0 283 100.5t141 261.5q27 163 -54 263.5t-251 100.5h-366z" />
    <glyph glyph-name="uni01A5" unicode="&#x1a5;" horiz-adv-x="1216" 
d="M346 1117h14l-41 -249h10q62 118 165 192t239 74q133 0 223 -74t122.5 -205t4.5 -299q-42 -255 -192 -417t-349 -162q-134 0 -213.5 74.5t-103.5 192.5h-9l-111 -663h-88l256 1536q16 106 94.5 175t176.5 69h15q37 0 40 -3l-15 -105q-25 1 -28 0q-95 -1 -146.5 -33
t-63.5 -103zM268 556q-24 -144 -0.5 -255.5t94.5 -176.5t181 -65q168 0 292 141t160 356q23 142 0.5 253t-94 176.5t-183.5 65.5q-168 0 -291 -139t-159 -356z" />
    <glyph glyph-name="uni01A6" unicode="&#x1a6;" horiz-adv-x="1421" 
d="M247 1356l35 203h138l-18 -102h298q240 0 342.5 -111.5t68.5 -325.5q-19 -119 -109 -221.5t-227 -151.5l377 -1004v-12h-142l-368 997h-376l-105 -628h-136l225 1356h-3zM284 736h296q169 0 274.5 86.5t125.5 215.5q23 147 -44.5 228t-251.5 81h-298z" />
    <glyph glyph-name="uni01A7" unicode="&#x1a7;" horiz-adv-x="1272" 
d="M347 1113h-89q39 175 185.5 287t343.5 112q202 0 315.5 -110.5t85.5 -284.5q-45 -264 -421 -372l-184 -52q-174 -49 -265.5 -120.5t-110.5 -184.5q-24 -145 74 -236t278 -91q169 0 290.5 81t154.5 219h93q-39 -173 -189 -279t-363 -106q-230 0 -344 113.5t-84 297.5
q13 79 52.5 142t102 109t135 78.5t165.5 59.5l171 48q322 92 355 296q21 133 -70.5 220.5t-253.5 87.5q-159 0 -273.5 -86t-153.5 -229z" />
    <glyph glyph-name="uni01A8" unicode="&#x1a8;" horiz-adv-x="1010" 
d="M170 876q127 258 406 258q161 0 249 -83.5t67 -216.5q-18 -110 -100 -185.5t-225 -108.5l-184 -43q-207 -48 -233 -204q-17 -103 57.5 -169t212.5 -66q249 0 333 221l82 -17q-52 -137 -165 -211t-271 -74q-174 0 -268 86t-71 225q18 109 98 183.5t217 107.5l179 43
q222 53 247 207q17 99 -51.5 161.5t-193.5 62.5q-208 0 -307 -197z" />
    <glyph glyph-name="uni01A9" unicode="&#x1a9;" horiz-adv-x="1234" 
d="M1026 108l-19 -108h-943l3 17l-18 -17h-41l26 151l583 562l-396 573l8 47h-22l15 107h958l-14 -107h-807l406 -606l-3 -23l-603 -596h867z" />
    <glyph glyph-name="uni01AA" unicode="&#x1aa;" horiz-adv-x="952" 
d="M216 1254q19 123 117 208t219 86q118 -1 189 -86t53 -208l-222 -1338q-20 -110 3 -152.5t91 -42.5q34 0 50 9l-19 -102q-30 -17 -96 -20q-113 1 -150 77t-10 231l182 1093q-82 -49 -169 -49q-121 -1 -190 85.5t-48 208.5zM476 1091q69 0 120 42.5t64 123.5q12 78 -24 122
t-104 44q-69 0 -120.5 -44t-63.5 -122q-13 -81 23 -123.5t105 -42.5z" />
    <glyph glyph-name="uni01AB" unicode="&#x1ab;" horiz-adv-x="728" 
d="M399 81l144 27l-10 -58l5 -50q-2 0 -7 -2t-7 -3l-27 -149q-22 -122 -109.5 -194t-193.5 -73q-8 1 -27 1q-39 0 -48 4l18 107q18 -6 40 -6q79 0 122 37t58 124l25 140q-92 16 -143 85.5t-33 176.5l130 790h-165l13 79h164l45 268h88l-45 -268h236l-14 -79h-235l-127 -774
q-14 -79 14.5 -126.5t86.5 -62.5z" />
    <glyph glyph-name="uni01AC" unicode="&#x1ac;" horiz-adv-x="1367" 
d="M1405 1489l-14 -93h-477l-233 -1396h-93l233 1396h-342q-65 0 -104 -44.5t-49 -110.5l-5 -34h-97l7 49q16 99 91 166t172 67h911z" />
    <glyph glyph-name="uni01AD" unicode="&#x1ad;" horiz-adv-x="586" 
d="M672 1082l-20 -99h-201l-117 -712q-17 -94 11.5 -135t72.5 -40q18 -1 79 12l8 2l-18 -116l-19 -4q-20 -4 -48 -7t-59 -3q-84 0 -133.5 78t-23.5 236l114 689h-219l20 99h216l9 58h133l-9 -58h204zM482 1163h-131l18 123q17 101 106 181t189 81l11 -2q11 -2 25 -5.5
t21 -7.5l-12 -87q-11 4 -44 9q-74 -1 -110.5 -39.5t-53.5 -129.5z" />
    <glyph glyph-name="uni01AE" unicode="&#x1ae;" horiz-adv-x="1279" 
d="M593 0l-26 -154q-16 -93 26.5 -127t131.5 -34h52l-18 -104h-69q-105 0 -169.5 80.5t-47.5 179.5l27 159l232 1405h-476l15 84h1043l-14 -84h-477l-232 -1405h2z" />
    <glyph glyph-name="uni01AF" unicode="&#x1af;" horiz-adv-x="1765" 
d="M1673 1605h147q-29 -188 -128 -289.5t-272 -119.5l-114 -693q-39 -232 -220.5 -379.5t-416.5 -147.5q-114 0 -209 39t-157.5 107.5t-88.5 167t-7 213.5l162 986h91l-163 -986q-22 -128 21 -229t137.5 -156t222.5 -55q196 0 350 123.5t187 316.5l163 986h91l-27 -161
q99 19 155 87t76 190z" />
    <glyph glyph-name="uni01B0" unicode="&#x1b0;" horiz-adv-x="1157" 
d="M1163 1159h134q-23 -141 -81 -212.5t-181 -85.5l-143 -861h-89l30 181h-8q-54 -88 -151.5 -142t-214.5 -54q-166 0 -252 107t-56 288l122 737h89l-122 -733q-23 -139 47.5 -225.5t205.5 -86.5t243.5 89.5t132.5 234.5l120 721h89l-25 -148q57 11 75.5 45.5t31.5 123.5z
" />
    <glyph glyph-name="uni01B1" unicode="&#x1b1;" horiz-adv-x="1536" 
d="M169 719q36 223 151.5 392t292.5 273l3 12h-335l15 93h489l-22 -122q-183 -74 -332 -254.5t-187 -408.5q-27 -174 19 -317.5t158 -227.5t268 -84t296 84t233 227.5t120 317.5q38 229 -50.5 409t-248.5 254l21 122h488l-14 -93h-333l-5 -12q143 -100 202 -270t22 -395
q-35 -214 -142.5 -383t-266 -262.5t-339.5 -93.5t-308 93.5t-179 262.5t-16 383z" />
    <glyph glyph-name="uni01B2" unicode="&#x1b2;" horiz-adv-x="1240" 
d="M523 -20q-105 0 -189 29t-143 86t-83 148.5t-4 208.5l167 1005h133l-165 -1005q-32 -184 51.5 -274.5t248.5 -90.5q166 0 281.5 90.5t147.5 274.5l119 720q35 195 -150 195h-5q-36 0 -45 -5l16 101q45 14 91 17q122 -1 186.5 -83t40.5 -225l-118 -720q-16 -94 -58 -173
t-99.5 -133t-128 -92.5t-145 -56t-149.5 -17.5z" />
    <glyph glyph-name="uni01B3" unicode="&#x1b3;" horiz-adv-x="1331" 
d="M1172 1294l-500 -655l-105 -639h-92l106 639l-369 850h115l312 -730h18l438 578l27 33q48 62 100 97t107 40.5t107 -26.5l-46 -85q-24 15 -53.5 17.5t-64 -14.5t-61.5 -54z" />
    <glyph glyph-name="uni01B4" unicode="&#x1b4;" horiz-adv-x="1248" 
d="M989 962l-601 -1131q-40 -74 -88.5 -128t-98.5 -83t-97.5 -42.5t-94.5 -13.5q-11 0 -53 5q-71 6 -72 6l19 105q9 -6 106 -6q67 0 113 11t96.5 52.5t92.5 117.5l64 125l-198 1137h94l182 -1013l472 908l5 11q36 68 64.5 116t71 104t83 88.5t93.5 52t110 12.5
q95 -33 140 -118l-70 -39q-59 48 -134 58q-73 9 -129.5 -56t-146.5 -240z" />
    <glyph glyph-name="uni01B5" unicode="&#x1b5;" horiz-adv-x="1253" 
d="M53 0l14 75l514 640h-214l14 76h260l494 614h-846l13 84h958l-10 -74l-502 -624h215l-14 -76h-262l-509 -631h857l-15 -84h-967z" />
    <glyph glyph-name="uni01B6" unicode="&#x1b6;" horiz-adv-x="1064" 
d="M53 0l14 75l381 446h-213l14 75h264l366 429l2 8h-620l15 84h733l-13 -76l-377 -445h212l-14 -75h-262l-364 -429l-1 -8h674l-15 -84h-796z" />
    <glyph glyph-name="uni01B7" unicode="&#x1b7;" horiz-adv-x="1411" 
d="M36 75h92q-25 -177 94 -294.5t322 -117.5q212 0 373 143.5t196 361.5q37 229 -101.5 378t-394.5 157h-84l15 82l688 619h-899l14 85h1026l-10 -69l-699 -629l-1 -9q280 -13 429.5 -185t107.5 -429q-20 -118 -77.5 -225t-144 -188.5t-205 -129.5t-250.5 -48
q-117 0 -215.5 38t-164 103.5t-96 158t-15.5 198.5z" />
    <glyph glyph-name="uni01B8" unicode="&#x1b8;" horiz-adv-x="1325" 
d="M1129 75q-27 -141 -123 -255.5t-236.5 -178.5t-296.5 -64q-89 0 -165 22t-132 61.5t-98.5 94.5t-64 120.5t-29 140t7.5 152.5q43 257 249 429t491 185l2 9l-490 629l13 69h1025l-14 -85h-899l483 -619l-12 -82h-84q-258 -8 -446.5 -157t-227.5 -378q-37 -218 76.5 -361.5
t325.5 -143.5q203 0 361.5 117.5t191.5 294.5h92z" />
    <glyph glyph-name="uni01B9" unicode="&#x1b9;" horiz-adv-x="1267" 
d="M1022 0q-22 -114 -99 -204.5t-190 -139.5t-240 -49q-207 0 -315 125.5t-77 310.5q31 190 188.5 308.5t381.5 128.5v8l-360 560l13 69h817l-14 -84h-687l-2 -8l345 -541l-12 -80h-42q-239 0 -375.5 -99.5t-162.5 -261.5q-26 -152 64 -251.5t259 -99.5q157 0 272.5 85.5
t143.5 222.5h92z" />
    <glyph glyph-name="uni01BA" unicode="&#x1ba;" horiz-adv-x="1056" 
d="M223 1082h847l-15 -89l-454 -365q121 -21 182.5 -85t45.5 -163q-22 -133 -125 -199t-328 -115q-143 -31 -203 -79t-71 -123q-13 -78 44.5 -127t184.5 -50q49 0 96 12t93 37t81.5 71.5t50.5 108.5h136q-17 -94 -78 -172.5t-167 -129t-237 -50.5q-176 0 -267 85.5
t-68 229.5q22 121 132.5 195t321.5 120q144 30 197.5 68.5t66.5 117.5q12 63 -39 97t-182 35h-131l15 90l550 376h-695z" />
    <glyph glyph-name="uni01BB" unicode="&#x1bb;" horiz-adv-x="1260" 
d="M84 0l12 69l573 556q66 64 92 90h-181l13 76h241q94 101 137.5 173.5t56.5 151.5q23 136 -51.5 223t-214.5 87q-145 0 -254 -93t-133 -231h-88q29 174 167 291t319 117q176 0 273.5 -112.5t68.5 -281.5q-13 -83 -52.5 -156.5t-122.5 -168.5h235l-14 -76h-290
q-62 -64 -158 -156l-482 -467l-1 -8h782l-15 -84h-913z" />
    <glyph glyph-name="uni01BC" unicode="&#x1bc;" horiz-adv-x="1168" 
d="M463 -20q-180 0 -279 110.5t-73 281.5h90q-19 -136 55.5 -222t215.5 -86q162 0 288.5 115t153.5 286q29 178 -58.5 289.5t-245.5 111.5q-79 0 -158.5 -29t-139.5 -76l-100 15l182 629h-187l15 84h895l-14 -84h-621l-160 -558h7q134 104 300 104q94 0 172 -35.5t129 -98.5
t71.5 -154t2.5 -197q-36 -210 -189 -348t-352 -138z" />
    <glyph glyph-name="uni01BD" unicode="&#x1bd;" horiz-adv-x="948" 
d="M260 479l-99 15l125 463h-164l23 125h792l-21 -125h-503l-73 -274q32 24 96 45t113 25q176 5 258 -96t53 -288q-28 -173 -142 -279.5t-314 -106.5q-56 0 -114.5 20.5t-108.5 57.5t-75.5 98.5t-12.5 134.5l122 19q-23 -97 36.5 -160.5t170.5 -63.5q133 0 211.5 73
t98.5 193q19 122 -34 193.5t-177 71.5q-90 0 -150.5 -38t-110.5 -103z" />
    <glyph glyph-name="uni01BE" unicode="&#x1be;" horiz-adv-x="1056" 
d="M756 279q5 29 -1 55.5t-15 44t-31.5 39t-36 31.5t-43.5 32q-19 13 -28.5 20t-27 20.5t-27 23t-23 25t-20.5 28.5t-15 31.5t-10.5 37.5t-2 42t4.5 48l37 226h-222l18 99h221l41 253h131l-43 -253h203l-19 -99h-200l-36 -214q-6 -38 1 -68.5t31 -56t43 -40t57 -39.5
q19 -12 29.5 -19t27.5 -19.5t27 -21.5t23.5 -23.5t20.5 -27.5t15 -30.5t10.5 -35.5t3 -40t-3.5 -46q-25 -144 -148 -233t-296 -89q-133 0 -223 50t-123.5 130t-15.5 177h141q-9 -63 8 -110t53.5 -72.5t80.5 -37.5t95 -12q121 -1 197.5 49t90.5 125z" />
    <glyph glyph-name="uni01BF" unicode="&#x1bf;" horiz-adv-x="1232" 
d="M195 -156l-43 -260h-129l168 1019l-13 -16q7 31 25 87l68 408h113l-11 -115q141 136 351 136q199 0 282.5 -151.5t43.5 -405.5l-6 -17q-13 -85 -43 -157t-70 -129t-100.5 -107t-123 -88.5t-150 -75.5t-170 -65.5t-192.5 -62.5zM356 827l-144 -882q120 36 209.5 71
t178.5 85.5t149.5 109t104 139.5t59.5 179l8 17q18 124 -1.5 221.5t-86.5 159.5t-176 62q-166 0 -301 -162z" />
    <glyph glyph-name="uni01C0" unicode="&#x1c0;" horiz-adv-x="497" 
d="M479 1507l-249 -1507h-146l251 1507h144z" />
    <glyph glyph-name="uni01C1" unicode="&#x1c1;" horiz-adv-x="684" 
d="M429 1507l-249 -1507h-147l251 1507h145zM701 1507l-249 -1507h-147l251 1507h145z" />
    <glyph glyph-name="uni01C2" unicode="&#x1c2;" horiz-adv-x="306" 
d="M375 1507l-76 -458h198l-13 -75h-197l-74 -441h261l-14 -76h-259l-76 -457h-146l76 457h-176l13 76h176l73 441h-239l14 75h237l77 458h145z" />
    <glyph glyph-name="uni01C3" unicode="&#x1c3;" horiz-adv-x="546" 
d="M476 1489l-180 -1055h-87l170 1055h97zM189 -9q-33 0 -54.5 22.5t-20.5 55.5t25 55t57 22t55 -22.5t20 -54.5q-1 -33 -25.5 -55.5t-56.5 -22.5z" />
    <glyph glyph-name="uni01C5" unicode="&#x1c5;" horiz-adv-x="2530" 
d="M537 0h-415l247 1489h443q314 0 459.5 -198t86.5 -546q-60 -353 -275 -549t-546 -196zM227 84h318q292 0 482.5 178.5t241.5 490.5q51 313 -68.5 482.5t-402.5 169.5h-351zM1519 0l14 75l812 950l2 8h-620l15 84h734l-14 -76l-805 -949l-1 -8h674l-14 -84h-797z
M1965 1545l159 -216l233 216h91l-2 -7l-303 -283h-60l-212 283l3 7h91z" />
    <glyph glyph-name="uni01C6" unicode="&#x1c6;" horiz-adv-x="2130" 
d="M472 -23q-133 0 -222.5 74t-122.5 205.5t-6 299.5q43 255 193 416.5t350 161.5q135 0 214 -74.5t102 -191.5h8l104 621h88l-247 -1489h-86l40 244h-11q-63 -118 -166 -192.5t-238 -74.5zM487 59q168 0 291 139.5t159 357.5q37 219 -36.5 357t-240.5 138
q-168 0 -291 -139.5t-159 -355.5q-23 -142 -0.5 -253.5t94 -177.5t183.5 -66zM1120 0l14 75l812 950l2 8h-620l15 84h733l-13 -76l-805 -949l-1 -8h674l-15 -84h-796zM1566 1545l159 -216l233 216h91l-2 -7l-303 -283h-60l-212 283l3 7h91z" />
    <glyph glyph-name="uni01C7" unicode="&#x1c7;" horiz-adv-x="2232" 
d="M122 0l247 1489h91l-232 -1405h727l-15 -84h-818zM2080 1489h91l-179 -1085q-35 -213 -156.5 -318.5t-292.5 -105.5q-166 0 -260.5 90.5t-71.5 232.5h89q-17 -105 54.5 -172t195.5 -67q131 0 226.5 84t125.5 259z" />
    <glyph glyph-name="uni01C8" unicode="&#x1c8;" horiz-adv-x="1616" 
d="M122 0l247 1489h91l-232 -1405h727l-15 -84h-818zM1433 1117h88l-207 -1253q-22 -128 -112 -205.5t-214 -77.5q-16 0 -25 2l17 82h21q84 0 146.5 53.5t77.5 145.5zM1517 1315q-31 0 -52 21.5t-18 51.5q2 26 24 46.5t50 20.5q32 0 52.5 -21.5t17.5 -52.5q-1 -27 -23 -46.5
t-51 -19.5z" />
    <glyph glyph-name="uni01C9" unicode="&#x1c9;" horiz-adv-x="883" 
d="M748 1117h88l-208 -1253q-22 -129 -112 -206t-213 -77q-17 0 -26 2l17 82h22q84 0 146.5 53.5t77.5 145.5zM427 1489l-247 -1489h-89l247 1489h89zM831 1315q-31 0 -52 21.5t-18 51.5q2 26 24 46.5t50 20.5q32 0 52.5 -21.5t17.5 -52.5q-1 -27 -23 -46.5t-51 -19.5z" />
    <glyph glyph-name="uni01CA" unicode="&#x1ca;" horiz-adv-x="2649" 
d="M1508 1489l-248 -1489h-88l-730 1324h-9l-220 -1324h-91l247 1489h90l730 -1325h9l219 1325h91zM2497 1489h91l-179 -1085q-24 -144 -91 -241t-157.5 -140t-201.5 -43q-166 0 -260 90.5t-71 232.5h88q-17 -105 55 -172t196 -67q131 0 226.5 84t125.5 259z" />
    <glyph glyph-name="uni01CB" unicode="&#x1cb;" horiz-adv-x="1969" 
d="M1508 1489l-248 -1489h-88l-730 1324h-9l-220 -1324h-91l247 1489h90l730 -1325h9l219 1325h91zM1835 1117h88l-207 -1253q-22 -128 -112 -205.5t-214 -77.5q-17 0 -26 2l17 82h22q84 0 146.5 53.5t77.5 145.5zM1919 1315q-31 0 -52 21.5t-18 51.5q2 27 23.5 47t49.5 20
q32 0 52.5 -21.5t17.5 -52.5q-2 -27 -23.5 -46.5t-49.5 -19.5z" />
    <glyph glyph-name="uni01CC" unicode="&#x1cc;" horiz-adv-x="1640" 
d="M300 724l-120 -724h-89l186 1117h87l-29 -177h8q53 88 149.5 140t214.5 52q170 0 257 -107t57 -288l-123 -737h-89l123 733q23 143 -45.5 229.5t-206.5 86.5q-142 0 -248.5 -90t-131.5 -235zM1457 1117h88l-208 -1253q-22 -129 -112 -206t-213 -77q-17 0 -26 2l17 82h22
q84 0 146.5 53.5t77.5 145.5zM1540 1315q-31 0 -51.5 21.5t-17.5 51.5q2 27 23.5 47t49.5 20q32 0 52.5 -21.5t17.5 -52.5q-1 -27 -23 -46.5t-51 -19.5z" />
    <glyph glyph-name="uni01CD" unicode="&#x1cd;" horiz-adv-x="1303" 
d="M65 0h-96l784 1489h105l290 -1489h-96l-91 476h-647zM359 561h586l-154 811h-8zM683 1918l159 -217l233 217h91l-2 -7l-303 -284h-60l-212 284l3 7h91z" />
    <glyph glyph-name="uni01CE" unicode="&#x1ce;" horiz-adv-x="1123" 
d="M384 -24q-151 0 -237.5 89t-62.5 243q24 140 137.5 215t340.5 102q174 20 223 35q83 25 93 80l7 46q21 123 -41.5 194.5t-196.5 71.5q-116 0 -211 -52t-144 -136l-77 31q65 116 183.5 177.5t253.5 61.5q76 0 139.5 -21.5t110 -63.5t66 -111.5t4.5 -157.5l-129 -780h-89
l34 201h-6q-62 -99 -166.5 -162t-231.5 -63zM401 58q157 0 278.5 112.5t149.5 282.5l28 164q-60 -45 -298 -71q-186 -22 -277.5 -79.5t-109.5 -161.5q-18 -113 46 -180t183 -67zM535 1545l159 -216l233 216h90l-2 -7l-302 -283h-61l-211 283l3 7h91z" />
    <glyph glyph-name="uni01CF" unicode="&#x1cf;" horiz-adv-x="520" 
d="M460 1489l-247 -1489h-91l247 1489h91zM292 1918l159 -217l233 217h91l-3 -7l-302 -284h-61l-211 284l3 7h91z" />
    <glyph glyph-name="uni01D0" unicode="&#x1d0;" horiz-adv-x="464" 
d="M95 0l186 1117h88l-186 -1117h-88zM201 1546l160 -217l232 217h91l-2 -7l-302 -284h-61l-211 284l3 7h90z" />
    <glyph glyph-name="uni01D1" unicode="&#x1d1;" horiz-adv-x="1539" 
d="M1429 741q-57 -343 -265 -552t-486 -209q-187 0 -315.5 95.5t-179.5 270t-14 402.5q58 343 267 552.5t488 209.5q138 0 246.5 -55t174.5 -155.5t90.5 -242.5t-6.5 -316zM1341 748q51 309 -65 492t-353 183q-243 0 -427.5 -186.5t-237.5 -495.5q-52 -308 64.5 -491
t355.5 -183q244 0 429 186.5t234 494.5zM796 1918l160 -217l232 217h91l-2 -7l-302 -284h-61l-211 284l2 7h91z" />
    <glyph glyph-name="uni01D2" unicode="&#x1d2;" horiz-adv-x="1198" 
d="M509 -23q-209 0 -318 165t-68 420q41 249 201 410.5t363 161.5q210 0 320 -166t69 -421q-41 -248 -201.5 -409t-365.5 -161zM510 59q177 0 311 144t168 359q22 136 -6 247t-105 176.5t-189 65.5q-116 0 -219 -67.5t-171 -182t-90 -254.5q-23 -136 5.5 -247t105.5 -176
t190 -65zM568 1545l159 -216l233 216h91l-2 -7l-303 -283h-60l-212 283l3 7h91z" />
    <glyph glyph-name="uni01D3" unicode="&#x1d3;" horiz-adv-x="1530" 
d="M1378 1489h91l-163 -986q-39 -232 -220.5 -379.5t-416.5 -147.5q-114 0 -209 39t-157.5 107.5t-88.5 167t-7 213.5l162 986h91l-163 -986q-22 -128 21 -229t137.5 -156t222.5 -55q196 0 350 123.5t187 316.5zM796 1918l160 -217l232 217h91l-2 -7l-302 -284h-61l-211 284
l2 7h91z" />
    <glyph glyph-name="uni01D4" unicode="&#x1d4;" horiz-adv-x="1172" 
d="M873 396l120 721h88l-186 -1117h-88l30 181h-8q-54 -88 -151.5 -142t-214.5 -54q-167 0 -253 107t-56 288l123 737h89l-122 -733q-23 -139 47.5 -225.5t205.5 -86.5t243.5 89.5t132.5 234.5zM554 1545l159 -216l233 216h91l-2 -7l-303 -283h-60l-212 283l3 7h91z" />
    <glyph glyph-name="uni01D5" unicode="&#x1d5;" horiz-adv-x="1530" 
d="M1378 1489h91l-163 -986q-39 -232 -220.5 -379.5t-416.5 -147.5q-114 0 -209 39t-157.5 107.5t-88.5 167t-7 213.5l162 986h91l-163 -986q-22 -128 21 -229t137.5 -156t222.5 -55q196 0 350 123.5t187 316.5zM1292 2109l-13 -79h-537l13 79h537zM1124 1687
q-31 0 -50.5 23.5t-13.5 54.5q5 25 26.5 43.5t46.5 18.5q33 0 52.5 -22.5t12.5 -55.5q-5 -25 -26.5 -43.5t-47.5 -18.5zM798 1687q-31 0 -50 23.5t-14 54.5q4 25 25.5 43.5t47.5 18.5q33 0 51.5 -22.5t13.5 -55.5q-3 -24 -25 -43t-49 -19z" />
    <glyph glyph-name="uni01D6" unicode="&#x1d6;" horiz-adv-x="1172" 
d="M873 396l120 721h88l-186 -1117h-88l30 181h-8q-54 -88 -151.5 -142t-214.5 -54q-167 0 -253 107t-56 288l123 737h89l-122 -733q-23 -139 47.5 -225.5t205.5 -86.5t243.5 89.5t132.5 234.5zM1050 1737l-14 -80h-536l13 80h537zM881 1315q-31 0 -50.5 23.5t-13.5 54.5
q5 25 27 43.5t47 18.5q33 0 52.5 -22.5t12.5 -55.5q-5 -25 -27 -43.5t-48 -18.5zM556 1315q-31 0 -50 23.5t-14 54.5q4 25 25.5 43.5t47.5 18.5q33 0 51.5 -22.5t13.5 -55.5q-3 -24 -25 -43t-49 -19z" />
    <glyph glyph-name="uni01D7" unicode="&#x1d7;" horiz-adv-x="1530" 
d="M1378 1489h91l-163 -986q-39 -232 -220.5 -379.5t-416.5 -147.5q-114 0 -209 39t-157.5 107.5t-88.5 167t-7 213.5l162 986h91l-163 -986q-22 -128 21 -229t137.5 -156t222.5 -55q196 0 350 123.5t187 316.5zM932 1873l213 198h112l-237 -198h-88zM1105 1601
q-31 0 -50.5 23.5t-13.5 54.5q5 25 27 43.5t47 18.5q33 0 52.5 -22.5t12.5 -55.5q-5 -25 -27 -43.5t-48 -18.5zM780 1601q-31 0 -50 23.5t-14 54.5q4 25 25.5 43.5t47.5 18.5q33 0 51.5 -22.5t13.5 -55.5q-3 -24 -25 -43t-49 -19z" />
    <glyph glyph-name="uni01D8" unicode="&#x1d8;" horiz-adv-x="1172" 
d="M873 396l120 721h88l-186 -1117h-88l30 181h-8q-54 -88 -151.5 -142t-214.5 -54q-167 0 -253 107t-56 288l123 737h89l-122 -733q-23 -139 47.5 -225.5t205.5 -86.5t243.5 89.5t132.5 234.5zM720 1649l249 321h106l-274 -321h-81zM881 1315q-31 0 -50.5 23.5t-13.5 54.5
q5 25 27 43.5t47 18.5q33 0 52.5 -22.5t12.5 -55.5q-5 -25 -27 -43.5t-48 -18.5zM556 1315q-31 0 -50 23.5t-14 54.5q4 25 25.5 43.5t47.5 18.5q33 0 51.5 -22.5t13.5 -55.5q-3 -24 -25 -43t-49 -19z" />
    <glyph glyph-name="uni01D9" unicode="&#x1d9;" horiz-adv-x="1530" 
d="M1378 1489h91l-163 -986q-39 -232 -220.5 -379.5t-416.5 -147.5q-114 0 -209 39t-157.5 107.5t-88.5 167t-7 213.5l162 986h91l-163 -986q-22 -128 21 -229t137.5 -156t222.5 -55q196 0 350 123.5t187 316.5zM859 2063l131 -135l174 135h113l-3 -18l-270 -210h-64
l-190 204l3 24h106zM626 1751q7 48 37 78.5t77 31.5q50 -1 70 -31t13 -79q-8 -46 -37 -74t-79 -28q-49 0 -69 29.5t-12 72.5zM1112 1751q6 45 36.5 75t79.5 30q48 0 67 -30t12 -75q-9 -45 -37 -75t-79 -29q-48 -1 -68 28.5t-11 75.5z" />
    <glyph glyph-name="uni01DA" unicode="&#x1da;" horiz-adv-x="1172" 
d="M873 396l120 721h88l-186 -1117h-88l30 181h-8q-54 -88 -151.5 -142t-214.5 -54q-167 0 -253 107t-56 288l123 737h89l-122 -733q-23 -139 47.5 -225.5t205.5 -86.5t243.5 89.5t132.5 234.5zM653 1826l111 -188l172 188h113v-11l-264 -273h-73l-166 273v11h107zM819 1376
q7 45 35 73.5t77 28.5q50 0 69 -28.5t12 -73.5q-4 -40 -32 -67t-78 -27q-94 0 -83 94zM444 1381q7 42 33.5 69.5t75.5 27.5q94 0 81 -97q-5 -43 -33 -68.5t-79 -25.5q-88 0 -78 94z" />
    <glyph glyph-name="uni01DB" unicode="&#x1db;" horiz-adv-x="1530" 
d="M1378 1489h91l-163 -986q-39 -232 -220.5 -379.5t-416.5 -147.5q-114 0 -209 39t-157.5 107.5t-88.5 167t-7 213.5l162 986h91l-163 -986q-22 -128 21 -229t137.5 -156t222.5 -55q196 0 350 123.5t187 316.5zM627 1751q5 48 34.5 78.5t78.5 31.5q49 -1 69 -30.5t14 -79.5
q-21 -102 -116 -102q-50 0 -70 29.5t-10 72.5zM1111 1751q6 45 36 75t80 30q46 0 66.5 -29.5t14.5 -75.5q-10 -45 -39.5 -75t-77.5 -29q-50 -1 -69.5 28.5t-10.5 75.5zM948 2027l85 -250h-105l-141 250h161z" />
    <glyph glyph-name="uni01DC" unicode="&#x1dc;" horiz-adv-x="1172" 
d="M873 396l120 721h88l-186 -1117h-88l30 181h-8q-54 -88 -151.5 -142t-214.5 -54q-167 0 -253 107t-56 288l123 737h89l-122 -733q-23 -139 47.5 -225.5t205.5 -86.5t243.5 89.5t132.5 234.5zM693 1823l142 -287h-119l-203 287h180zM818 1376q8 44 35.5 73t77.5 29
t69.5 -28.5t13.5 -73.5q-6 -41 -34.5 -67.5t-79.5 -26.5q-91 0 -82 94zM443 1381q18 97 110 97q94 0 81 -97q-5 -43 -33.5 -68.5t-79.5 -25.5q-87 0 -78 94z" />
    <glyph glyph-name="uni01DD" unicode="&#x1dd;" horiz-adv-x="1186" 
d="M663 1140q149 0 250 -74.5t140 -205t11 -296.5q-41 -251 -203 -416t-369 -165q-94 0 -172 38.5t-130.5 107t-73 171t-0.5 223.5l11 55h853q34 218 -51.5 349t-276.5 131q-123 0 -216.5 -58t-144.5 -134l-74 33q59 97 176 169t270 72zM964 497h-762q-20 -119 11.5 -218
t106.5 -156t180 -57q155 0 288.5 125.5t175.5 305.5z" />
    <glyph glyph-name="uni01DE" unicode="&#x1de;" horiz-adv-x="1303" 
d="M65 0h-96l784 1489h105l290 -1489h-96l-91 476h-647zM359 561h586l-154 811h-8zM1179 2109l-14 -79h-537l13 79h538zM1010 1687q-31 0 -50.5 23.5t-13.5 54.5q5 25 27 43.5t47 18.5q33 0 52 -22.5t12 -55.5q-5 -25 -26.5 -43.5t-47.5 -18.5zM684 1687q-31 0 -50 23.5
t-14 54.5q4 25 26 43.5t48 18.5q33 0 51.5 -22.5t13.5 -55.5q-3 -24 -25.5 -43t-49.5 -19z" />
    <glyph glyph-name="uni01DF" unicode="&#x1df;" horiz-adv-x="1123" 
d="M384 -24q-151 0 -237.5 89t-62.5 243q24 140 137.5 215t340.5 102q174 20 223 35q83 25 93 80l7 46q21 123 -41.5 194.5t-196.5 71.5q-116 0 -211 -52t-144 -136l-77 31q65 116 183.5 177.5t253.5 61.5q76 0 139.5 -21.5t110 -63.5t66 -111.5t4.5 -157.5l-129 -780h-89
l34 201h-6q-62 -99 -166.5 -162t-231.5 -63zM401 58q157 0 278.5 112.5t149.5 282.5l28 164q-60 -45 -298 -71q-186 -22 -277.5 -79.5t-109.5 -161.5q-18 -113 46 -180t183 -67zM1031 1737l-14 -80h-537l13 80h538zM862 1315q-31 0 -50.5 23.5t-13.5 54.5q5 25 26.5 43.5
t46.5 18.5q33 0 52.5 -22.5t12.5 -55.5q-5 -25 -26.5 -43.5t-47.5 -18.5zM536 1315q-31 0 -50 23.5t-14 54.5q4 25 25.5 43.5t47.5 18.5q33 0 51.5 -22.5t13.5 -55.5q-3 -24 -25 -43t-49 -19z" />
    <glyph glyph-name="uni01E0" unicode="&#x1e0;" horiz-adv-x="1303" 
d="M65 0h-96l784 1489h105l290 -1489h-96l-91 476h-647zM359 561h586l-154 811h-8zM1150 1978l-14 -79h-537l13 79h538zM834 1595q-31 0 -52 21.5t-18 51.5q2 26 24 46.5t50 20.5q32 0 52.5 -21.5t17.5 -52.5q-1 -27 -23 -46.5t-51 -19.5z" />
    <glyph glyph-name="uni01E1" unicode="&#x1e1;" horiz-adv-x="1123" 
d="M384 -24q-151 0 -237.5 89t-62.5 243q24 140 137.5 215t340.5 102q174 20 223 35q83 25 93 80l7 46q21 123 -41.5 194.5t-196.5 71.5q-116 0 -211 -52t-144 -136l-77 31q65 116 183.5 177.5t253.5 61.5q76 0 139.5 -21.5t110 -63.5t66 -111.5t4.5 -157.5l-129 -780h-89
l34 201h-6q-62 -99 -166.5 -162t-231.5 -63zM401 58q157 0 278.5 112.5t149.5 282.5l28 164q-60 -45 -298 -71q-186 -22 -277.5 -79.5t-109.5 -161.5q-18 -113 46 -180t183 -67zM1003 1620l-14 -79h-537l13 79h538zM687 1237q-31 0 -52 22t-18 52q2 26 24 46t50 20
q32 0 52.5 -21.5t17.5 -52.5q-1 -27 -23 -46.5t-51 -19.5z" />
    <glyph glyph-name="uni01E2" unicode="&#x1e2;" horiz-adv-x="1984" 
d="M-31 0l994 1489h1015l-14 -84h-739l-101 -617h693l-14 -85h-694l-102 -619h756l-15 -84h-846l78 476h-592l-316 -476h-103zM444 561h551l140 844h-131zM1754 1796l-14 -80h-536l13 80h537z" />
    <glyph glyph-name="uni01E3" unicode="&#x1e3;" horiz-adv-x="1890" 
d="M1228 -23q-154 0 -256 79t-133 215q-71 -143 -196 -219t-259 -76q-151 0 -237.5 89t-62.5 243q24 140 137.5 215t340.5 102q174 20 223 35q83 25 93 80l7 46q21 122 -45 194t-201 72q-116 0 -207 -51t-140 -137l-77 31q65 116 183.5 177.5t253.5 61.5q132 0 219.5 -63
t101.5 -179q80 114 190.5 178t235.5 64q94 0 172 -38.5t130.5 -107t73 -171t0.5 -223.5l-10 -55h-852l-5 -26q-24 -202 65 -328t270 -126q124 0 214.5 57.5t142.5 134.5l73 -33q-59 -98 -175.5 -169.5t-269.5 -71.5zM942 676l-12 -56h759q29 182 -58 306.5t-246 124.5
q-145 0 -267 -105.5t-176 -269.5zM407 58q156 0 275 112t147 283l28 164q-60 -45 -298 -71q-186 -22 -277.5 -79.5t-109.5 -161.5q-18 -113 49 -180t186 -67zM1353 1423l-14 -79h-537l13 79h538z" />
    <glyph glyph-name="uni01E4" unicode="&#x1e4;" horiz-adv-x="1484" 
d="M1433 462l-13 -80h-121q-89 -190 -254 -296t-367 -106q-288 0 -427.5 209.5t-81.5 555.5q56 344 265 554.5t489 210.5q123 0 221 -42t158 -112t91.5 -155t31.5 -177h-93q-4 79 -30.5 148.5t-75.5 127t-129.5 90.5t-183.5 33q-110 0 -214.5 -45.5t-193.5 -129.5t-154 -214
t-92 -289q-52 -313 64 -495.5t366 -182.5q160 0 295.5 83t216.5 232h-431l13 80h456q30 77 42 152h-475l15 84h564l-16 -84q-14 -82 -37 -152h101z" />
    <glyph glyph-name="uni01E5" unicode="&#x1e5;" horiz-adv-x="1213" 
d="M424 -442q-154 0 -252.5 59.5t-128.5 164.5l80 41q25 -85 101.5 -134.5t206.5 -49.5q166 0 274 85.5t136 252.5l46 278h-9q-57 -113 -163 -181t-239 -68q-200 0 -297.5 151.5t-55.5 401.5q42 254 191 414.5t350 160.5q136 0 213.5 -73.5t103.5 -192.5h10l41 249h86
l-86 -518h250l-14 -76h-248l-91 -549q-34 -205 -168.5 -310.5t-336.5 -105.5zM491 88q161 0 279.5 116.5t161.5 318.5h-245l13 76h245q24 201 -52 326.5t-235 125.5q-168 0 -289.5 -139t-156.5 -353t37.5 -342.5t241.5 -128.5z" />
    <glyph glyph-name="uni01E6" unicode="&#x1e6;" horiz-adv-x="1515" 
d="M1332 1024q-4 79 -30.5 148.5t-75.5 127t-129.5 90.5t-183.5 33q-110 0 -214.5 -45.5t-193.5 -129.5t-154 -214t-92 -289q-52 -313 64 -495.5t366 -182.5q218 0 383.5 148.5t208.5 398.5h-475l15 84h564l-16 -84q-32 -194 -131.5 -338.5t-244 -220t-315.5 -75.5
q-288 0 -427.5 209.5t-81.5 555.5q56 344 265 554.5t489 210.5q123 0 221 -42t158 -112t91.5 -155t31.5 -177h-93zM792 1918l159 -217l233 217h91l-2 -7l-303 -284h-60l-212 284l3 7h91z" />
    <glyph glyph-name="uni01E7" unicode="&#x1e7;" horiz-adv-x="1213" 
d="M424 -442q-154 0 -252.5 59.5t-128.5 164.5l80 41q25 -85 101.5 -134.5t206.5 -49.5q166 0 274 85.5t136 252.5l46 278h-9q-57 -113 -163 -181t-239 -68q-200 0 -297.5 151.5t-55.5 401.5q42 254 191 414.5t350 160.5q136 0 213.5 -73.5t103.5 -192.5h10l41 249h86
l-189 -1143q-34 -205 -168.5 -310.5t-336.5 -105.5zM491 88q168 0 289.5 126.5t158.5 344.5q35 217 -39.5 354.5t-241.5 137.5q-168 0 -289.5 -139t-156.5 -353t37.5 -342.5t241.5 -128.5zM575 1545l159 -216l233 216h90l-2 -7l-302 -283h-61l-211 283l3 7h91z" />
    <glyph glyph-name="uni01E8" unicode="&#x1e8;" horiz-adv-x="1285" 
d="M122 0l247 1489h91l-143 -864h10l929 864h121l-763 -704l510 -785h-114l-465 719l-250 -234l-82 -485h-91zM679 1918l160 -217l232 217h91l-2 -7l-303 -284h-60l-212 284l3 7h91z" />
    <glyph glyph-name="uni01E9" unicode="&#x1e9;" horiz-adv-x="1036" 
d="M91 0l247 1489h89l-154 -924h11l647 552h119l-565 -481l402 -636h-110l-365 579l-158 -132l-74 -447h-89zM260 1918l160 -217l232 217h91l-2 -7l-302 -284h-61l-211 284l2 7h91z" />
    <glyph glyph-name="uni01EA" unicode="&#x1ea;" horiz-adv-x="1539" 
d="M1429 741q-51 -305 -223 -506.5t-411 -244.5q-40 -33 -59.5 -49t-53 -47.5t-51 -54t-33.5 -53t-21 -59.5q-7 -33 6.5 -50t60.5 -18q61 1 118 32l-20 -107q-72 -43 -154 -44q-89 1 -133 51.5t-18 140.5q39 131 269 248h-28q-187 0 -315.5 95.5t-179.5 270t-14 402.5
q58 343 267 552.5t488 209.5q138 0 246.5 -55t174.5 -155.5t90.5 -242.5t-6.5 -316zM1341 748q51 309 -65 492t-353 183q-243 0 -427.5 -186.5t-237.5 -495.5q-52 -308 64.5 -491t355.5 -183q244 0 429 186.5t234 494.5z" />
    <glyph glyph-name="uni01EB" unicode="&#x1eb;" horiz-adv-x="1198" 
d="M509 -23q-209 0 -318 165t-68 420q41 249 201 410.5t363 161.5q210 0 320 -166t69 -421q-34 -203 -151.5 -352t-277.5 -198q-48 -39 -73.5 -61.5t-62 -59t-55.5 -71t-25 -69.5q-7 -33 7 -50t61 -18q61 1 118 32l-21 -107q-70 -42 -153 -43q-89 1 -133 51.5t-18 140.5
q39 126 245 235h-28zM510 59q177 0 311 144t168 359q22 136 -6 247t-105 176.5t-189 65.5q-116 0 -219 -67.5t-171 -182t-90 -254.5q-23 -136 5.5 -247t105.5 -176t190 -65z" />
    <glyph glyph-name="uni01EC" unicode="&#x1ec;" horiz-adv-x="1539" 
d="M1429 741q-51 -305 -223 -506.5t-411 -244.5q-40 -33 -59.5 -49t-53 -47.5t-51 -54t-33.5 -53t-21 -59.5q-7 -33 6.5 -50t60.5 -18q61 1 118 32l-20 -107q-72 -43 -154 -44q-89 1 -133 51.5t-18 140.5q39 131 269 248h-28q-187 0 -315.5 95.5t-179.5 270t-14 402.5
q58 343 267 552.5t488 209.5q138 0 246.5 -55t174.5 -155.5t90.5 -242.5t-6.5 -316zM1341 748q51 309 -65 492t-353 183q-243 0 -427.5 -186.5t-237.5 -495.5q-52 -308 64.5 -491t355.5 -183q244 0 429 186.5t234 494.5zM1240 1796l-14 -80h-537l14 80h537z" />
    <glyph glyph-name="uni01ED" unicode="&#x1ed;" horiz-adv-x="1198" 
d="M509 -23q-209 0 -318 165t-68 420q41 249 201 410.5t363 161.5q210 0 320 -166t69 -421q-34 -203 -151.5 -352t-277.5 -198q-48 -39 -73.5 -61.5t-62 -59t-55.5 -71t-25 -69.5q-7 -33 7 -50t61 -18q61 1 118 32l-21 -107q-70 -42 -153 -43q-89 1 -133 51.5t-18 140.5
q39 126 245 235h-28zM510 59q177 0 311 144t168 359q22 136 -6 247t-105 176.5t-189 65.5q-116 0 -219 -67.5t-171 -182t-90 -254.5q-23 -136 5.5 -247t105.5 -176t190 -65zM1012 1423l-14 -79h-537l13 79h538z" />
    <glyph glyph-name="uni01EE" unicode="&#x1ee;" horiz-adv-x="1411" 
d="M36 75h92q-25 -177 94 -294.5t322 -117.5q212 0 373 143.5t196 361.5q37 229 -101.5 378t-394.5 157h-84l15 82l688 619h-899l14 85h1026l-10 -69l-699 -629l-1 -9q280 -13 429.5 -185t107.5 -429q-20 -118 -77.5 -225t-144 -188.5t-205 -129.5t-250.5 -48
q-117 0 -215.5 38t-164 103.5t-96 158t-15.5 198.5zM737 1918l160 -217l232 217h91l-2 -7l-302 -284h-61l-211 284l3 7h90z" />
    <glyph glyph-name="uni01EF" unicode="&#x1ef;" horiz-adv-x="1247" 
d="M57 0h92q-18 -137 69.5 -222.5t244.5 -85.5q169 0 292 99.5t148 251.5q27 163 -76.5 262t-342.5 99h-42l15 80l524 541v8h-687l14 84h818l-11 -69l-545 -560l-2 -8q220 -10 338.5 -128.5t86.5 -308.5q-30 -185 -180 -310.5t-357 -125.5q-194 0 -308.5 110t-90.5 283z
M591 1545l160 -216l232 216h91l-2 -7l-303 -283h-60l-212 283l3 7h91z" />
    <glyph glyph-name="uni01F0" unicode="&#x1f0;" horiz-adv-x="464" 
d="M281 1117h88l-207 -1253q-22 -128 -112 -205.5t-214 -77.5q-16 0 -25 2l17 82h21q84 0 146.5 53.5t77.5 145.5zM199 1545l160 -216l232 216h91l-2 -7l-303 -283h-60l-212 283l3 7h91z" />
    <glyph glyph-name="uni01F1" unicode="&#x1f1;" horiz-adv-x="2719" 
d="M537 0h-415l247 1489h443q314 0 459.5 -198t86.5 -546q-60 -353 -275 -549t-546 -196zM227 84h318q292 0 482.5 178.5t241.5 490.5q51 313 -68.5 482.5t-402.5 169.5h-351zM1519 0l14 75l1068 1330h-846l13 84h959l-11 -74l-1072 -1331h857l-14 -84h-968z" />
    <glyph glyph-name="uni01F2" unicode="&#x1f2;" horiz-adv-x="2530" 
d="M537 0h-415l247 1489h443q314 0 459.5 -198t86.5 -546q-60 -353 -275 -549t-546 -196zM227 84h318q292 0 482.5 178.5t241.5 490.5q51 313 -68.5 482.5t-402.5 169.5h-351zM1519 0l14 75l812 950l2 8h-620l15 84h734l-14 -76l-805 -949l-1 -8h674l-14 -84h-797z" />
    <glyph glyph-name="uni01F4" unicode="&#x1f4;" horiz-adv-x="1515" 
d="M1332 1024q-4 79 -30.5 148.5t-75.5 127t-129.5 90.5t-183.5 33q-110 0 -214.5 -45.5t-193.5 -129.5t-154 -214t-92 -289q-52 -313 64 -495.5t366 -182.5q218 0 383.5 148.5t208.5 398.5h-475l15 84h564l-16 -84q-32 -194 -131.5 -338.5t-244 -220t-315.5 -75.5
q-288 0 -427.5 209.5t-81.5 555.5q56 344 265 554.5t489 210.5q123 0 221 -42t158 -112t91.5 -155t31.5 -177h-93zM893 1649l250 321h105l-273 -321h-82z" />
    <glyph glyph-name="uni01F5" unicode="&#x1f5;" horiz-adv-x="1213" 
d="M424 -442q-154 0 -252.5 59.5t-128.5 164.5l80 41q25 -85 101.5 -134.5t206.5 -49.5q166 0 274 85.5t136 252.5l46 278h-9q-57 -113 -163 -181t-239 -68q-200 0 -297.5 151.5t-55.5 401.5q42 254 191 414.5t350 160.5q136 0 213.5 -73.5t103.5 -192.5h10l41 249h86
l-189 -1143q-34 -205 -168.5 -310.5t-336.5 -105.5zM491 88q168 0 289.5 126.5t158.5 344.5q35 217 -39.5 354.5t-241.5 137.5q-168 0 -289.5 -139t-156.5 -353t37.5 -342.5t241.5 -128.5zM676 1276l249 322h106l-274 -322h-81z" />
    <glyph glyph-name="uni01F6" unicode="&#x1f6;" horiz-adv-x="2268" 
d="M1556 -20q-204 0 -306 120t-65 352l42 249h-899l-116 -701h-90l247 1489h90l-116 -696h898l117 696h91l-173 -1037q-64 -373 294 -373q174 0 276.5 90t134.5 283l114 685h90l-114 -685q-40 -235 -179 -353.5t-336 -118.5z" />
    <glyph glyph-name="uni01F7" unicode="&#x1f7;" horiz-adv-x="1132" 
d="M363 1457l-7 -38q129 59 284 59q272 0 396 -145t76 -440l-9 -52q-32 -189 -131 -367.5t-236.5 -312t-305.5 -222.5t-335 -110l-40 -245h-139l309 1873h138zM113 -57q148 27 280 97t228 162t171.5 203t119.5 221t63 215l8 55q12 93 12 163.5t-21 123t-51 87.5t-77.5 56.5
t-101 31t-121.5 9.5q-111 -1 -181.5 -34.5t-115.5 -101.5z" />
    <glyph glyph-name="uni01F8" unicode="&#x1f8;" horiz-adv-x="1568" 
d="M1508 1489l-248 -1489h-88l-730 1324h-9l-220 -1324h-91l247 1489h90l730 -1325h9l219 1325h91zM1015 1649h-80l-165 321h103z" />
    <glyph glyph-name="uni01F9" unicode="&#x1f9;" horiz-adv-x="1175" 
d="M300 724l-120 -724h-89l186 1117h87l-29 -177h8q53 88 149.5 140t214.5 52q170 0 257 -107t57 -288l-123 -737h-89l123 733q23 143 -45.5 229.5t-206.5 86.5q-142 0 -248.5 -90t-131.5 -235zM756 1276h-80l-165 322h104z" />
    <glyph glyph-name="uni01FA" unicode="&#x1fa;" horiz-adv-x="1303" 
d="M65 0h-96l784 1489h105l290 -1489h-96l-91 476h-647zM359 561h586l-154 811h-8zM820 1575q-67 0 -108 48t-31 117q13 67 69.5 115t122.5 48q68 0 108 -48t27 -115q-10 -69 -65 -117t-123 -48zM829 1934l138 161h147l-208 -161h-77zM833 1670q30 -1 53 19.5t28 50.5
q4 27 -12 46.5t-46 20.5q-28 -1 -52 -21.5t-27 -45.5q-5 -29 11.5 -50t44.5 -20z" />
    <glyph glyph-name="uni01FB" unicode="&#x1fb;" horiz-adv-x="1123" 
d="M384 -24q-151 0 -237.5 89t-62.5 243q24 140 137.5 215t340.5 102q174 20 223 35q83 25 93 80l7 46q21 123 -41.5 194.5t-196.5 71.5q-116 0 -211 -52t-144 -136l-77 31q65 116 183.5 177.5t253.5 61.5q76 0 139.5 -21.5t110 -63.5t66 -111.5t4.5 -157.5l-129 -780h-89
l34 201h-6q-62 -99 -166.5 -162t-231.5 -63zM401 58q157 0 278.5 112.5t149.5 282.5l28 164q-60 -45 -298 -71q-186 -22 -277.5 -79.5t-109.5 -161.5q-18 -113 46 -180t183 -67zM672 1202q-67 0 -108.5 48t-31.5 117q13 67 70 115t123 48q68 0 108 -48t27 -115
q-10 -69 -65 -117t-123 -48zM681 1561l137 161h148l-208 -161h-77zM684 1297q30 -1 53.5 19.5t28.5 50.5q4 27 -12 46.5t-46 20.5q-28 -1 -52.5 -21.5t-27.5 -45.5q-5 -29 11.5 -50t44.5 -20z" />
    <glyph glyph-name="uni01FC" unicode="&#x1fc;" horiz-adv-x="1984" 
d="M-31 0l994 1489h1015l-14 -84h-739l-101 -617h693l-14 -85h-694l-102 -619h756l-15 -84h-846l78 476h-592l-316 -476h-103zM444 561h551l140 844h-131zM1412 1649l249 321h106l-274 -321h-81z" />
    <glyph glyph-name="uni01FD" unicode="&#x1fd;" horiz-adv-x="1890" 
d="M1228 -23q-154 0 -256 79t-133 215q-71 -143 -196 -219t-259 -76q-151 0 -237.5 89t-62.5 243q24 140 137.5 215t340.5 102q174 20 223 35q83 25 93 80l7 46q21 122 -45 194t-201 72q-116 0 -207 -51t-140 -137l-77 31q65 116 183.5 177.5t253.5 61.5q132 0 219.5 -63
t101.5 -179q80 114 190.5 178t235.5 64q94 0 172 -38.5t130.5 -107t73 -171t0.5 -223.5l-10 -55h-852l-5 -26q-24 -202 65 -328t270 -126q124 0 214.5 57.5t142.5 134.5l73 -33q-59 -98 -175.5 -169.5t-269.5 -71.5zM942 676l-12 -56h759q29 182 -58 306.5t-246 124.5
q-145 0 -267 -105.5t-176 -269.5zM407 58q156 0 275 112t147 283l28 164q-60 -45 -298 -71q-186 -22 -277.5 -79.5t-109.5 -161.5q-18 -113 49 -180t186 -67zM1010 1276l250 322h105l-273 -322h-82z" />
    <glyph glyph-name="uni01FE" unicode="&#x1fe;" horiz-adv-x="1541" 
d="M239 -44l-61 43l109 142q-87 103 -118 257.5t0 344.5q58 343 267 552.5t488 209.5q198 0 333 -112l107 139l58 -43l-114 -146q89 -103 121.5 -258.5t-0.5 -348.5q-57 -343 -265 -552t-486 -209q-203 0 -338 113zM1341 743q27 172 4 305t-93 221l-857 -1110
q112 -97 283 -97q244 0 429 186.5t234 494.5zM344 214l857 1108q-110 95 -278 95q-243 0 -427.5 -186t-237.5 -495q-27 -170 -4.5 -301.5t90.5 -220.5zM898 1644l250 321h105l-273 -321h-82z" />
    <glyph glyph-name="uni01FF" unicode="&#x1ff;" horiz-adv-x="1198" 
d="M145 -40l-58 43l110 131q-116 167 -74 430q41 249 201 410.5t363 161.5q160 0 266 -101l100 119l58 -43l-110 -131q117 -168 75 -431q-41 -248 -201.5 -409t-365.5 -161q-158 0 -264 100zM510 61q177 0 311 144t168 359q34 210 -47 347l-642 -766q82 -84 210 -84z
M255 204l642 765q-81 84 -208 84q-116 0 -219 -67.5t-171 -182t-90 -254.5q-35 -208 46 -345zM669 1279l250 321h105l-273 -321h-82z" />
    <glyph glyph-name="uni0200" unicode="&#x200;" horiz-adv-x="1303" 
d="M65 0h-96l784 1489h105l290 -1489h-96l-91 476h-647zM359 561h586l-154 811h-8zM778 1633h-131l-268 264h204zM983 1633h-102l-197 264h173z" />
    <glyph glyph-name="uni0201" unicode="&#x201;" horiz-adv-x="1123" 
d="M384 -24q-151 0 -237.5 89t-62.5 243q24 140 137.5 215t340.5 102q174 20 223 35q83 25 93 80l7 46q21 123 -41.5 194.5t-196.5 71.5q-116 0 -211 -52t-144 -136l-77 31q65 116 183.5 177.5t253.5 61.5q76 0 139.5 -21.5t110 -63.5t66 -111.5t4.5 -157.5l-129 -780h-89
l34 201h-6q-62 -99 -166.5 -162t-231.5 -63zM401 58q157 0 278.5 112.5t149.5 282.5l28 164q-60 -45 -298 -71q-186 -22 -277.5 -79.5t-109.5 -161.5q-18 -113 46 -180t183 -67zM630 1260h-132l-267 265h204zM835 1260h-102l-197 265h172z" />
    <glyph glyph-name="uni0202" unicode="&#x202;" horiz-adv-x="1303" 
d="M65 0h-96l784 1489h105l290 -1489h-96l-91 476h-647zM359 561h586l-154 811h-8zM579 1664q18 110 101 179.5t202 69.5q121 0 180 -69.5t40 -179.5h-124q12 69 -15 112.5t-95 43.5q-73 0 -114 -44t-52 -112h-123z" />
    <glyph glyph-name="uni0203" unicode="&#x203;" horiz-adv-x="1123" 
d="M384 -24q-151 0 -237.5 89t-62.5 243q24 140 137.5 215t340.5 102q174 20 223 35q83 25 93 80l7 46q21 123 -41.5 194.5t-196.5 71.5q-116 0 -211 -52t-144 -136l-77 31q65 116 183.5 177.5t253.5 61.5q76 0 139.5 -21.5t110 -63.5t66 -111.5t4.5 -157.5l-129 -780h-89
l34 201h-6q-62 -99 -166.5 -162t-231.5 -63zM401 58q157 0 278.5 112.5t149.5 282.5l28 164q-60 -45 -298 -71q-186 -22 -277.5 -79.5t-109.5 -161.5q-18 -113 46 -180t183 -67zM431 1292q18 110 101 179.5t202 69.5q121 0 179.5 -69.5t39.5 -179.5h-123q12 69 -15 112
t-96 43q-73 0 -114 -43.5t-52 -111.5h-122z" />
    <glyph glyph-name="uni0204" unicode="&#x204;" horiz-adv-x="1205" 
d="M122 0l247 1489h830l-15 -84h-738l-102 -617h694l-15 -85h-694l-101 -619h755l-14 -84h-847zM757 1633h-132l-267 264h204zM962 1633h-102l-197 264h173z" />
    <glyph glyph-name="uni0205" unicode="&#x205;" horiz-adv-x="1186" 
d="M524 -23q-149 0 -250.5 74.5t-140.5 205t-11 296.5q41 251 203.5 416t369.5 165q94 0 172 -38.5t130 -107t72.5 -171t0.5 -223.5l-10 -55h-853q-34 -218 51.5 -349t276.5 -131q123 0 216 58t144 134l74 -33q-59 -98 -175.5 -169.5t-269.5 -71.5zM223 620h761
q20 119 -11.5 218t-106.5 156t-180 57q-155 0 -288 -125.5t-175 -305.5zM656 1260h-132l-267 265h204zM861 1260h-102l-197 265h173z" />
    <glyph glyph-name="uni0206" unicode="&#x206;" horiz-adv-x="1205" 
d="M122 0l247 1489h830l-15 -84h-738l-102 -617h694l-15 -85h-694l-101 -619h755l-14 -84h-847zM558 1664q18 110 101 179.5t202 69.5q121 0 180 -69.5t40 -179.5h-124q12 69 -15 112.5t-95 43.5q-73 0 -114 -44t-52 -112h-123z" />
    <glyph glyph-name="uni0207" unicode="&#x207;" horiz-adv-x="1186" 
d="M524 -23q-149 0 -250.5 74.5t-140.5 205t-11 296.5q41 251 203.5 416t369.5 165q94 0 172 -38.5t130 -107t72.5 -171t0.5 -223.5l-10 -55h-853q-34 -218 51.5 -349t276.5 -131q123 0 216 58t144 134l74 -33q-59 -98 -175.5 -169.5t-269.5 -71.5zM223 620h761
q20 119 -11.5 218t-106.5 156t-180 57q-155 0 -288 -125.5t-175 -305.5zM457 1292q18 110 101 179.5t202 69.5q121 0 180 -69.5t40 -179.5h-124q12 69 -15 112t-96 43q-73 0 -113.5 -43.5t-51.5 -111.5h-123z" />
    <glyph glyph-name="uni0208" unicode="&#x208;" horiz-adv-x="520" 
d="M460 1489l-247 -1489h-91l247 1489h91zM387 1633h-132l-267 264h204zM592 1633h-102l-197 264h172z" />
    <glyph glyph-name="uni0209" unicode="&#x209;" horiz-adv-x="464" 
d="M95 0l186 1117h88l-186 -1117h-88zM297 1262h-132l-268 265h205zM502 1262h-102l-197 265h172z" />
    <glyph glyph-name="uni020A" unicode="&#x20a;" horiz-adv-x="520" 
d="M460 1489l-247 -1489h-91l247 1489h91zM187 1664q18 110 101 179.5t202 69.5q121 0 180 -69.5t40 -179.5h-124q12 69 -15 112.5t-95 43.5q-73 0 -114 -44t-52 -112h-123z" />
    <glyph glyph-name="uni020B" unicode="&#x20b;" horiz-adv-x="464" 
d="M95 0l186 1117h88l-186 -1117h-88zM97 1292q18 110 101 180t202 70q121 0 180 -70t40 -180h-124q12 69 -15 112.5t-96 43.5q-73 0 -113.5 -44t-51.5 -112h-123z" />
    <glyph glyph-name="uni020C" unicode="&#x20c;" horiz-adv-x="1539" 
d="M1429 741q-57 -343 -265 -552t-486 -209q-187 0 -315.5 95.5t-179.5 270t-14 402.5q58 343 267 552.5t488 209.5q138 0 246.5 -55t174.5 -155.5t90.5 -242.5t-6.5 -316zM1341 748q51 309 -65 492t-353 183q-243 0 -427.5 -186.5t-237.5 -495.5q-52 -308 64.5 -491
t355.5 -183q244 0 429 186.5t234 494.5zM892 1633h-132l-268 264h205zM1097 1633h-102l-197 264h172z" />
    <glyph glyph-name="uni020D" unicode="&#x20d;" horiz-adv-x="1198" 
d="M509 -23q-209 0 -318 165t-68 420q41 249 201 410.5t363 161.5q210 0 320 -166t69 -421q-41 -248 -201.5 -409t-365.5 -161zM510 59q177 0 311 144t168 359q22 136 -6 247t-105 176.5t-189 65.5q-116 0 -219 -67.5t-171 -182t-90 -254.5q-23 -136 5.5 -247t105.5 -176
t190 -65zM663 1260h-131l-268 265h204zM868 1260h-101l-198 265h173z" />
    <glyph glyph-name="uni020E" unicode="&#x20e;" horiz-adv-x="1539" 
d="M1429 741q-57 -343 -265 -552t-486 -209q-187 0 -315.5 95.5t-179.5 270t-14 402.5q58 343 267 552.5t488 209.5q138 0 246.5 -55t174.5 -155.5t90.5 -242.5t-6.5 -316zM1341 748q51 309 -65 492t-353 183q-243 0 -427.5 -186.5t-237.5 -495.5q-52 -308 64.5 -491
t355.5 -183q244 0 429 186.5t234 494.5zM692 1664q18 110 101.5 179.5t202.5 69.5q121 0 179.5 -69.5t39.5 -179.5h-123q12 69 -15 112.5t-96 43.5q-73 0 -114 -44t-52 -112h-123z" />
    <glyph glyph-name="uni020F" unicode="&#x20f;" horiz-adv-x="1198" 
d="M509 -23q-209 0 -318 165t-68 420q41 249 201 410.5t363 161.5q210 0 320 -166t69 -421q-41 -248 -201.5 -409t-365.5 -161zM510 59q177 0 311 144t168 359q22 136 -6 247t-105 176.5t-189 65.5q-116 0 -219 -67.5t-171 -182t-90 -254.5q-23 -136 5.5 -247t105.5 -176
t190 -65zM463 1292q18 110 101.5 179.5t202.5 69.5q121 0 179.5 -69.5t39.5 -179.5h-123q12 69 -15 112t-96 43q-73 0 -114 -43.5t-52 -111.5h-123z" />
    <glyph glyph-name="uni0210" unicode="&#x210;" horiz-adv-x="1276" 
d="M122 0l247 1489h459q210 0 311.5 -119t70.5 -316q-26 -151 -118.5 -258t-234.5 -149l243 -647h-100l-235 628q-31 -5 -79 -5h-370l-103 -623h-91zM330 708h367q170 0 283.5 93.5t139.5 252.5q26 162 -55.5 256.5t-252.5 94.5h-366zM759 1633h-131l-268 264h204zM964 1633
h-101l-198 264h173z" />
    <glyph glyph-name="uni0211" unicode="&#x211;" horiz-adv-x="756" 
d="M91 0l186 1117h87l-29 -174h8q49 86 145 137.5t207 51.5q76 0 125 -27l-43 -76q-39 18 -103 18q-140 0 -245 -88t-127 -223l-122 -736h-89zM481 1260h-131l-268 265h205zM687 1260h-102l-197 265h172z" />
    <glyph glyph-name="uni0212" unicode="&#x212;" horiz-adv-x="1276" 
d="M122 0l247 1489h459q210 0 311.5 -119t70.5 -316q-26 -151 -118.5 -258t-234.5 -149l243 -647h-100l-235 628q-31 -5 -79 -5h-370l-103 -623h-91zM330 708h367q170 0 283.5 93.5t139.5 252.5q26 162 -55.5 256.5t-252.5 94.5h-366zM559 1664q18 110 101.5 179.5
t202.5 69.5q121 0 179.5 -69.5t39.5 -179.5h-123q12 69 -15 112.5t-96 43.5q-73 0 -114 -44t-52 -112h-123z" />
    <glyph glyph-name="uni0213" unicode="&#x213;" horiz-adv-x="756" 
d="M91 0l186 1117h87l-29 -174h8q49 86 145 137.5t207 51.5q76 0 125 -27l-43 -76q-39 18 -103 18q-140 0 -245 -88t-127 -223l-122 -736h-89zM317 1299q18 110 101 179.5t202 69.5q121 0 180 -69.5t40 -179.5h-124q12 69 -15 112.5t-95 43.5q-73 0 -114 -44t-52 -112h-123z
" />
    <glyph glyph-name="uni0214" unicode="&#x214;" horiz-adv-x="1530" 
d="M1378 1489h91l-163 -986q-39 -232 -220.5 -379.5t-416.5 -147.5q-114 0 -209 39t-157.5 107.5t-88.5 167t-7 213.5l162 986h91l-163 -986q-22 -128 21 -229t137.5 -156t222.5 -55q196 0 350 123.5t187 316.5zM892 1633h-132l-268 264h205zM1097 1633h-102l-197 264h172z
" />
    <glyph glyph-name="uni0215" unicode="&#x215;" horiz-adv-x="1172" 
d="M873 396l120 721h88l-186 -1117h-88l30 181h-8q-54 -88 -151.5 -142t-214.5 -54q-167 0 -253 107t-56 288l123 737h89l-122 -733q-23 -139 47.5 -225.5t205.5 -86.5t243.5 89.5t132.5 234.5zM649 1260h-131l-268 265h205zM855 1260h-102l-197 265h172z" />
    <glyph glyph-name="uni0216" unicode="&#x216;" horiz-adv-x="1530" 
d="M1378 1489h91l-163 -986q-39 -232 -220.5 -379.5t-416.5 -147.5q-114 0 -209 39t-157.5 107.5t-88.5 167t-7 213.5l162 986h91l-163 -986q-22 -128 21 -229t137.5 -156t222.5 -55q196 0 350 123.5t187 316.5zM692 1664q18 110 101.5 179.5t202.5 69.5q121 0 179.5 -69.5
t39.5 -179.5h-123q12 69 -15 112.5t-96 43.5q-73 0 -114 -44t-52 -112h-123z" />
    <glyph glyph-name="uni0217" unicode="&#x217;" horiz-adv-x="1172" 
d="M873 396l120 721h88l-186 -1117h-88l30 181h-8q-54 -88 -151.5 -142t-214.5 -54q-167 0 -253 107t-56 288l123 737h89l-122 -733q-23 -139 47.5 -225.5t205.5 -86.5t243.5 89.5t132.5 234.5zM450 1292q18 110 101 179.5t202 69.5q121 0 180 -69.5t40 -179.5h-124
q12 69 -14.5 112t-95.5 43q-73 0 -114 -43.5t-52 -111.5h-123z" />
    <glyph glyph-name="uni0218" unicode="&#x218;" horiz-adv-x="1271" 
d="M1111 1113q9 143 -77.5 229t-245.5 86q-162 0 -283 -87.5t-144 -220.5q-33 -203 258 -296l155 -48q85 -27 146.5 -59.5t109 -78.5t65.5 -109t5 -142q-31 -184 -182.5 -297.5t-381.5 -113.5q-213 0 -327.5 106t-97.5 279h93q-13 -138 82.5 -219t264.5 -81q180 0 307.5 91
t151.5 236q19 113 -49.5 184.5t-225.5 120.5l-167 52q-339 107 -297 372q29 174 179 284.5t352 110.5q197 0 306 -112t91 -287h-88zM577 -166l-23 -81q-80 -258 -176 -420l-73 10q5 12 29 66.5t34.5 80t30 73.5t35 93t29.5 93l23 85h91z" />
    <glyph glyph-name="uni0219" unicode="&#x219;" horiz-adv-x="1029" 
d="M946 876l-85 -20q-33 197 -242 197q-125 0 -214 -62.5t-105 -161.5q-13 -79 30.5 -129.5t147.5 -77.5l166 -43q126 -33 181 -107.5t37 -183.5q-23 -139 -146 -225t-297 -86q-157 0 -245.5 74t-95.5 211l88 17q5 -109 71 -165t188 -56q138 0 234.5 66t113.5 169
q26 156 -165 204l-169 43q-132 33 -189.5 108.5t-39.5 185.5q23 133 138.5 216.5t276.5 83.5q279 0 321 -258zM471 -142l-24 -81q-80 -258 -176 -420l-72 10q5 12 24.5 56t27.5 63t25.5 61.5t28.5 72t25 71t26 82.5l23 85h92z" />
    <glyph glyph-name="uni021A" unicode="&#x21a;" horiz-adv-x="1276" 
d="M256 1405l15 84h1043l-14 -84h-477l-232 -1405h-91l232 1405h-476zM581 -142l-23 -81q-80 -258 -176 -420l-73 10q5 12 24.5 56t27.5 63t25.5 61.5t28.5 72t25 71t26 82.5l23 85h92z" />
    <glyph glyph-name="uni021B" unicode="&#x21b;" horiz-adv-x="723" 
d="M672 1117l-14 -79h-235l-127 -774q-16 -97 29.5 -146.5t127.5 -49.5q32 0 77 13l8 -81q-49 -18 -107 -18q-111 0 -178 72t-47 194l130 790h-165l13 79h164l45 268h88l-45 -268h236zM313 -142l-23 -81q-80 -258 -176 -420l-73 10q5 12 29 66.5t34.5 80t30 73.5t35 93
t29.5 93l23 85h91z" />
    <glyph glyph-name="uni021C" unicode="&#x21c;" horiz-adv-x="1238" 
d="M175 337l14 93q141 41 252.5 83.5t218.5 101.5t181 126.5t127 157t71 195.5q18 114 -58.5 193.5t-250.5 79.5q-136 0 -247 -82.5t-131 -203.5h-133q28 174 179 286t347 113q232 -1 344.5 -109t79.5 -309q-25 -152 -174 -303q63 -74 81.5 -176t-6.5 -269
q-17 -104 -55 -190t-87 -151t-126 -120.5t-150 -93.5t-182 -75.5t-200 -62.5t-224 -57l19 107q130 26 229 53.5t195.5 65.5t166.5 86t128 110.5t94.5 144t53.5 182.5q22 122 12 210.5t-57 139.5q-141 -110 -327.5 -195t-384.5 -131z" />
    <glyph glyph-name="uni021D" unicode="&#x21d;" horiz-adv-x="1055" 
d="M148 247l19 99q70 11 142.5 31t159 59t155 89t121 125.5t66.5 164.5q9 70 -43.5 121.5t-171.5 52.5q-105 -1 -191.5 -62t-99.5 -139h-125q23 139 151.5 227t293.5 88q173 0 255 -82t56 -236q-19 -112 -116 -217q40 -66 47.5 -177t-10.5 -200q-52 -303 -249.5 -449.5
t-572.5 -177.5l17 110q88 12 162 29t147.5 44t132 66t107 90t81 120.5t45.5 153.5q30 192 -35 280q-122 -87 -271 -143t-273 -67z" />
    <glyph glyph-name="uni021E" unicode="&#x21e;" horiz-adv-x="1509" 
d="M122 0l247 1489h91l-116 -701h897l117 701h91l-248 -1489h-90l116 703h-898l-116 -703h-91zM789 1919l159 -217l233 217h91l-2 -8l-303 -283h-60l-212 283l3 8h91z" />
    <glyph glyph-name="uni021F" unicode="&#x21f;" horiz-adv-x="1178" 
d="M300 724l-120 -724h-89l247 1489h89l-90 -549h8q53 89 149.5 140.5t215.5 51.5q171 0 258 -106.5t57 -288.5l-123 -737h-88l122 733q23 143 -45.5 229.5t-207.5 86.5q-143 0 -251 -90t-132 -235zM260 1918l160 -217l232 217h91l-2 -7l-302 -284h-61l-211 284l2 7h91z" />
    <glyph glyph-name="uni0220" unicode="&#x220;" horiz-adv-x="1235" 
d="M972 -416h-128l226 1375q34 207 -57 306t-268 99q-63 0 -196 -5q-99 -3 -137 0l13 80q116 39 314 39q105 0 195.5 -32t158.5 -93.5t97.5 -163t8.5 -230.5zM380 1457l-241 -1457h-124l241 1457h124z" />
    <glyph glyph-name="uni0221" unicode="&#x221;" horiz-adv-x="1474" 
d="M470 -23q-133 0 -222.5 74t-122.5 205.5t-6 299.5q43 255 193 416.5t350 161.5q135 0 213.5 -74t101.5 -192h9l103 621h89l-205 -1236h11l-33 -219q109 69 205 69q85 0 138.5 -71t34.5 -183q-21 -116 -103 -192t-185 -76q-93 0 -143 58t-59 141l-144 -141l-85 64l228 237
l19 19l6 41h-19l41 244h-11q-63 -118 -166 -192.5t-238 -74.5zM484 59q168 0 291.5 139.5t159.5 357.5q37 219 -37 357t-241 138q-168 0 -290.5 -139.5t-158.5 -355.5q-23 -142 -0.5 -253.5t93.5 -177.5t183 -66zM926 -134q-11 -74 27 -117.5t101 -44.5q59 1 102 40.5
t54 99.5q7 50 -13.5 84t-59.5 47q-51 12 -86.5 0.5t-51.5 -37.5z" />
    <glyph glyph-name="uni0222" unicode="&#x222;" horiz-adv-x="1237" 
d="M642 855h50q398 0 442 263q18 113 -28.5 171t-165.5 90l16 99q76 -7 136.5 -31.5t104.5 -67t62.5 -109.5t5.5 -152q-41 -241 -293 -330q103 -55 151 -149t26 -222q-19 -111 -75.5 -196t-139.5 -137t-183.5 -78t-215.5 -26h-26q-115 0 -207 26t-158 77.5t-94 136t-9 194.5
q22 130 100 225t198 150q-220 89 -180 329q17 112 83 192.5t152 119t188 48.5l-17 -99q-126 -32 -191.5 -90.5t-83.5 -170.5q-10 -63 5 -111t47 -76t82.5 -46t102.5 -24t115 -6zM658 742h-25q-192 -1 -313.5 -81.5t-148.5 -246.5q-27 -167 68.5 -241.5t290.5 -73.5h26
q412 -2 462 318q28 165 -70 244.5t-290 80.5z" />
    <glyph glyph-name="uni0223" unicode="&#x223;" horiz-adv-x="1238" 
d="M655 859h26q20 0 58 -2q355 15 398 290q23 124 -20.5 195.5t-160.5 123.5l16 90q151 -11 239 -122.5t57 -290.5q-42 -250 -301 -344q106 -54 155.5 -150.5t27.5 -227.5q-19 -111 -75 -197t-139 -138.5t-184 -79t-217 -26.5h-24q-116 0 -208.5 26.5t-158 79t-93 137.5
t-8.5 195q22 131 103 228.5t204 151.5q-229 95 -187 345q20 122 87 215t157 142t192 56l-17 -90q-131 -52 -199 -123.5t-91 -195.5q-12 -79 8 -136t66.5 -88.5t103 -46.5t129.5 -19q36 2 56 2zM665 753h-25q-191 -1 -315.5 -84t-150.5 -251q-28 -170 67.5 -252.5
t285.5 -81.5h26q90 0 167 19.5t140 59t105 105.5t56 153q27 165 -72 248t-284 84z" />
    <glyph glyph-name="uni0224" unicode="&#x224;" horiz-adv-x="1222" 
d="M783 0h-734l18 94l1053 1302h-850l14 93h952l-15 -93l-1056 -1302h633q98 0 150.5 -67.5t35.5 -168.5l-9 -56h-99l8 42q10 64 -15 110t-86 46z" />
    <glyph glyph-name="uni0225" unicode="&#x225;" horiz-adv-x="1068" 
d="M761 -207l7 41q12 79 -11.5 122.5t-98.5 43.5h-615l17 122l843 893h-720l17 102h832l-17 -108l-838 -905h498q100 -1 150 -70.5t36 -163.5l-14 -77h-86z" />
    <glyph glyph-name="uni0226" unicode="&#x226;" horiz-adv-x="1303" 
d="M65 0h-96l784 1489h105l290 -1489h-96l-91 476h-647zM359 561h586l-154 811h-8zM849 1687q-31 0 -52 22t-18 52q2 26 23.5 46t49.5 20q32 0 52.5 -21.5t17.5 -52.5q-2 -27 -23.5 -46.5t-49.5 -19.5z" />
    <glyph glyph-name="uni0227" unicode="&#x227;" horiz-adv-x="1123" 
d="M384 -24q-151 0 -237.5 89t-62.5 243q24 140 137.5 215t340.5 102q174 20 223 35q83 25 93 80l7 46q21 123 -41.5 194.5t-196.5 71.5q-116 0 -211 -52t-144 -136l-77 31q65 116 183.5 177.5t253.5 61.5q76 0 139.5 -21.5t110 -63.5t66 -111.5t4.5 -157.5l-129 -780h-89
l34 201h-6q-62 -99 -166.5 -162t-231.5 -63zM401 58q157 0 278.5 112.5t149.5 282.5l28 164q-60 -45 -298 -71q-186 -22 -277.5 -79.5t-109.5 -161.5q-18 -113 46 -180t183 -67zM700 1315q-31 0 -51.5 21.5t-17.5 51.5q2 27 23.5 47t49.5 20q32 0 52.5 -21.5t17.5 -52.5
q-1 -27 -23 -46.5t-51 -19.5z" />
    <glyph glyph-name="uni0228" unicode="&#x228;" horiz-adv-x="1205" 
d="M122 0l247 1489h830l-15 -84h-738l-102 -617h694l-15 -85h-694l-101 -619h755l-14 -84h-418l-19 -52q69 -12 102 -55.5t21 -114.5q-28 -169 -261 -174l9 69q153 1 170 103q9 58 -26 85.5t-116 28.5l42 110h-351z" />
    <glyph glyph-name="uni0229" unicode="&#x229;" horiz-adv-x="1186" 
d="M533 -23l-11 -29q69 -12 102 -55.5t21 -114.5q-28 -169 -261 -174l9 69q153 1 170 103q9 58 -26 85.5t-116 28.5l34 91q-127 17 -211.5 94.5t-116 201t-5.5 276.5q41 251 203.5 416t369.5 165q94 0 172 -38.5t130 -107t72.5 -171t0.5 -223.5l-10 -55h-853
q-34 -218 51.5 -349t276.5 -131q123 0 216 58t144 134l74 -33q-58 -96 -172.5 -167t-263.5 -74zM223 620h761q20 119 -11.5 218t-106.5 156t-180 57q-155 0 -288 -125.5t-175 -305.5z" />
    <glyph glyph-name="uni022A" unicode="&#x22a;" horiz-adv-x="1539" 
d="M1429 741q-57 -343 -265 -552t-486 -209q-187 0 -315.5 95.5t-179.5 270t-14 402.5q58 343 267 552.5t488 209.5q138 0 246.5 -55t174.5 -155.5t90.5 -242.5t-6.5 -316zM1341 748q51 309 -65 492t-353 183q-243 0 -427.5 -186.5t-237.5 -495.5q-52 -308 64.5 -491
t355.5 -183q244 0 429 186.5t234 494.5zM1292 2109l-13 -79h-537l13 79h537zM1124 1687q-31 0 -50.5 23.5t-13.5 54.5q5 25 26.5 43.5t46.5 18.5q33 0 52.5 -22.5t12.5 -55.5q-5 -25 -26.5 -43.5t-47.5 -18.5zM798 1687q-31 0 -50 23.5t-14 54.5q4 25 25.5 43.5t47.5 18.5
q33 0 51.5 -22.5t13.5 -55.5q-3 -24 -25 -43t-49 -19z" />
    <glyph glyph-name="uni022B" unicode="&#x22b;" horiz-adv-x="1198" 
d="M509 -23q-209 0 -318 165t-68 420q41 249 201 410.5t363 161.5q210 0 320 -166t69 -421q-41 -248 -201.5 -409t-365.5 -161zM510 59q177 0 311 144t168 359q22 136 -6 247t-105 176.5t-189 65.5q-116 0 -219 -67.5t-171 -182t-90 -254.5q-23 -136 5.5 -247t105.5 -176
t190 -65zM1063 1737l-14 -80h-536l13 80h537zM895 1315q-31 0 -50.5 23.5t-13.5 54.5q5 25 26.5 43.5t46.5 18.5q33 0 52.5 -22.5t12.5 -55.5q-5 -25 -26.5 -43.5t-47.5 -18.5zM569 1315q-31 0 -50 23.5t-14 54.5q4 25 25.5 43.5t47.5 18.5q33 0 51.5 -22.5t13.5 -55.5
q-3 -24 -25 -43t-49 -19z" />
    <glyph glyph-name="uni022C" unicode="&#x22c;" horiz-adv-x="1539" 
d="M1429 741q-57 -343 -265 -552t-486 -209q-187 0 -315.5 95.5t-179.5 270t-14 402.5q58 343 267 552.5t488 209.5q138 0 246.5 -55t174.5 -155.5t90.5 -242.5t-6.5 -316zM1341 748q51 309 -65 492t-353 183q-243 0 -427.5 -186.5t-237.5 -495.5q-52 -308 64.5 -491
t355.5 -183q244 0 429 186.5t234 494.5zM1351 2077l-19 -140h-667l22 140h664zM1180 1832l59 -14q-13 -78 -69.5 -131.5t-130.5 -53.5q-35 0 -62.5 12.5t-42 28t-38.5 28t-53 12.5q-34 0 -63.5 -28t-37.5 -63l-56 15q12 74 68.5 130.5t126.5 57.5q30 0 57 -12.5t43.5 -27
t41.5 -26.5t53 -12q37 0 67 23.5t37 60.5z" />
    <glyph glyph-name="uni022D" unicode="&#x22d;" horiz-adv-x="1198" 
d="M509 -23q-209 0 -318 165t-68 420q41 249 201 410.5t363 161.5q210 0 320 -166t69 -421q-41 -248 -201.5 -409t-365.5 -161zM510 59q177 0 311 144t168 359q22 136 -6 247t-105 176.5t-189 65.5q-116 0 -219 -67.5t-171 -182t-90 -254.5q-23 -136 5.5 -247t105.5 -176
t190 -65zM990 1519l105 -12q-19 -111 -89 -172t-159 -60q-33 0 -61 9t-41 17.5t-34 25.5q-18 15 -29.5 22.5t-32.5 15t-46 7.5q-41 0 -78.5 -39t-44.5 -84l-102 5q22 112 91 176.5t156 64.5q38 0 70 -15.5t52 -34t51 -34t66 -15.5q44 0 82 38t44 85zM1138 1753l-26 -138
h-664l24 138h666z" />
    <glyph glyph-name="uni022E" unicode="&#x22e;" horiz-adv-x="1539" 
d="M1429 741q-57 -343 -265 -552t-486 -209q-187 0 -315.5 95.5t-179.5 270t-14 402.5q58 343 267 552.5t488 209.5q138 0 246.5 -55t174.5 -155.5t90.5 -242.5t-6.5 -316zM1341 748q51 309 -65 492t-353 183q-243 0 -427.5 -186.5t-237.5 -495.5q-52 -308 64.5 -491
t355.5 -183q244 0 429 186.5t234 494.5zM962 1687q-31 0 -52 22t-18 52q2 26 24 46t50 20q32 0 52.5 -21.5t17.5 -52.5q-1 -27 -23 -46.5t-51 -19.5z" />
    <glyph glyph-name="uni022F" unicode="&#x22f;" horiz-adv-x="1198" 
d="M509 -23q-209 0 -318 165t-68 420q41 249 201 410.5t363 161.5q210 0 320 -166t69 -421q-41 -248 -201.5 -409t-365.5 -161zM510 59q177 0 311 144t168 359q22 136 -6 247t-105 176.5t-189 65.5q-116 0 -219 -67.5t-171 -182t-90 -254.5q-23 -136 5.5 -247t105.5 -176
t190 -65zM734 1315q-31 0 -52 21.5t-18 51.5q2 27 23.5 47t49.5 20q32 0 52.5 -21.5t17.5 -52.5q-2 -27 -23.5 -46.5t-49.5 -19.5z" />
    <glyph glyph-name="uni0230" unicode="&#x230;" horiz-adv-x="1539" 
d="M1429 741q-57 -343 -265 -552t-486 -209q-187 0 -315.5 95.5t-179.5 270t-14 402.5q58 343 267 552.5t488 209.5q138 0 246.5 -55t174.5 -155.5t90.5 -242.5t-6.5 -316zM1341 748q51 309 -65 492t-353 183q-243 0 -427.5 -186.5t-237.5 -495.5q-52 -308 64.5 -491
t355.5 -183q244 0 429 186.5t234 494.5zM1263 1978l-14 -79h-536l13 79h537zM948 1595q-31 0 -52 21.5t-18 51.5q2 27 23.5 47t49.5 20q32 0 52.5 -21.5t17.5 -52.5q-2 -27 -23.5 -46.5t-49.5 -19.5z" />
    <glyph glyph-name="uni0231" unicode="&#x231;" horiz-adv-x="1198" 
d="M509 -23q-209 0 -318 165t-68 420q41 249 201 410.5t363 161.5q210 0 320 -166t69 -421q-41 -248 -201.5 -409t-365.5 -161zM510 59q177 0 311 144t168 359q22 136 -6 247t-105 176.5t-189 65.5q-116 0 -219 -67.5t-171 -182t-90 -254.5q-23 -136 5.5 -247t105.5 -176
t190 -65zM1036 1620l-13 -79h-537l13 79h537zM721 1237q-31 0 -52 22t-18 52q2 26 23.5 46t49.5 20q32 0 52.5 -21.5t17.5 -52.5q-2 -27 -23.5 -46.5t-49.5 -19.5z" />
    <glyph glyph-name="uni0232" unicode="&#x232;" horiz-adv-x="1291" 
d="M218 1489h104l350 -718h12l588 718h110l-672 -813l-111 -676h-92l112 676zM1121 1796l-14 -80h-537l13 80h538z" />
    <glyph glyph-name="uni0233" unicode="&#x233;" horiz-adv-x="1093" 
d="M84 -439q-72 0 -121 26l38 78q96 -41 173.5 -3t144.5 163l86 161l-219 1131h91l189 -1003h8l521 1003h99l-699 -1326q-123 -230 -311 -230zM957 1423l-14 -79h-536l13 79h537z" />
    <glyph glyph-name="uni0234" unicode="&#x234;" horiz-adv-x="592" 
d="M134 219h1l211 1270h79l-211 -1270h1q-20 -116 -38 -226q41 52 82.5 67t103.5 16q114 -1 177 -68.5t40 -187.5q-16 -116 -99 -177.5t-211 -61.5q-203 0 -207 170l-138 -136l-73 73l229 213zM152 -161q-1 -5 -2.5 -13.5t-1.5 -10.5q-8 -48 37 -87.5t103 -40.5q65 1 110 39
t53 100q11 68 -22.5 101t-103.5 33q-54 0 -94 -32.5t-63 -72.5z" />
    <glyph glyph-name="uni0235" unicode="&#x235;" horiz-adv-x="1512" 
d="M812 119h5l14 13l101 601q23 143 -45.5 229.5t-206.5 86.5q-142 0 -248.5 -90t-131.5 -235l-120 -724h-89l186 1117h87l-29 -177h8q53 88 149.5 140t214.5 52q170 0 257 -107t57 -288l-89 -532q112 68 170 68q110 0 169 -65.5t41 -175.5q-19 -109 -96.5 -175t-188.5 -66
q-190 0 -220 168l-176 -150l-63 96l244 209v5zM905 44l-7 -44h-21q5 -48 44.5 -80t95.5 -33q62 1 108 38.5t56 94.5q9 59 -25 92.5t-102 32.5q-35 0 -60.5 -12t-37.5 -24.5t-27.5 -34.5t-23.5 -30z" />
    <glyph glyph-name="uni0236" unicode="&#x236;" horiz-adv-x="928" 
d="M425 1385h89l-44 -268h233l-11 -79h-235l-108 -644q99 63 200 63q118 0 180.5 -67.5t45.5 -168.5q-17 -104 -104 -173t-203 -69q-107 0 -169.5 60t-65.5 153q-90 -94 -168 -185l-56 53q149 174 240 256l119 722h-164l11 79h166zM331 284l-8 -48q-13 -75 30.5 -126
t122.5 -51q75 0 135.5 45t72.5 114q12 66 -29 111.5t-123 45.5q-48 0 -94.5 -20t-106.5 -71z" />
    <glyph glyph-name="uni0237" unicode="&#x237;" horiz-adv-x="464" 
d="M281 1117h88l-207 -1253q-22 -128 -112 -205.5t-214 -77.5q-16 0 -25 2l17 82h21q84 0 146.5 53.5t77.5 145.5z" />
    <glyph glyph-name="uni0238" unicode="&#x238;" horiz-adv-x="1785" 
d="M1699 550l-6 -21q-40 -237 -179.5 -393t-324.5 -156q-218 0 -308 137l-20 -117h-119l11 105q-128 -125 -335 -125q-118 0 -203.5 71.5t-121 197.5t-9.5 280l6 21q39 245 185 399t332 154q199 0 289 -120l92 553h129l-95 -572q133 139 350 139q193 0 279.5 -150t47.5 -403
zM1560 529l8 21q16 91 8.5 171t-33 139.5t-83 94t-141.5 34.5q-100 0 -182.5 -51.5t-141.5 -135.5l-27 -161q0 -9 -2 -25t-2 -25l-16 -88q-2 -7 -5 -21.5t-5 -21.5l-28 -168q73 -199 259 -199q103 0 187 61.5t134 158t70 216.5zM221 550l-6 -21q-18 -90 -9.5 -169.5
t36.5 -139t85.5 -93.5t137.5 -34q181 -1 311 172l94 563q-71 161 -247 161q-111 0 -198.5 -62.5t-136.5 -159.5t-67 -217z" />
    <glyph glyph-name="uni0239" unicode="&#x239;" horiz-adv-x="1785" 
d="M665 -416l83 505q-130 -109 -320 -109q-130 0 -218 71.5t-120 196t-6 281.5l6 21q39 249 181 401t341 152q190 0 287 -112l17 91h112l-12 -115q141 136 351 136q198 0 282.5 -152t46.5 -405l-8 -17q-26 -159 -94 -282t-175 -195t-235 -72q-209 0 -305 117l-85 -513h-129z
M221 550l-8 -21q-21 -127 0.5 -227t88.5 -159t172 -59q168 -1 299 155l23 143q0 25 4 87l20 118q12 47 24 81l29 181q-80 150 -242 150q-83 0 -155.5 -37.5t-123.5 -100.5t-84.5 -142.5t-46.5 -168.5zM1556 529l7 17q16 88 6.5 168t-37 141t-87.5 97.5t-144 36.5
q-169 0 -302 -162l-12 -73q6 -78 -4 -167l-15 -86q-24 -100 -49 -161l-17 -101q77 -156 249 -155q83 0 153.5 35.5t120 97.5t83 141t48.5 171z" />
    <glyph glyph-name="uni023A" unicode="&#x23a;" horiz-adv-x="1286" 
d="M1256 1679l-320 -590l212 -1089h-96l-91 476h-357l-362 -665h-150l362 665h-140l-249 -476h-96l784 1489h105l39 -198l211 388h148zM500 561l330 607l-39 204h-8l-424 -811h141zM869 965l-220 -404h296z" />
    <glyph glyph-name="uni023B" unicode="&#x23b;" horiz-adv-x="1483" 
d="M232 -189l140 257q-133 94 -187 270.5t-16 409.5q57 343 265.5 552.5t487.5 209.5q118 0 213 -39l112 208h88l-131 -243q106 -65 162 -175.5t57 -236.5h-91q-2 98 -47.5 185.5t-126.5 142.5l-675 -1241q91 -44 201 -44q129 0 246 58t194.5 147t115.5 193h93
q-32 -93 -92 -178t-142.5 -154.5t-192.5 -111t-230 -41.5q-132 0 -237 50l-119 -219h-88zM417 151l673 1238q-84 34 -177 34q-111 0 -217 -45.5t-194.5 -130t-153 -215.5t-90.5 -291q-35 -207 9 -357.5t150 -232.5z" />
    <glyph glyph-name="uni023C" unicode="&#x23c;" horiz-adv-x="1101" 
d="M1196 1489l-261 -432q57 -46 88 -115.5t30 -153.5h-90q-2 117 -76 190l-530 -878q69 -41 159 -41q124 0 227.5 73.5t145.5 193.5h91q-51 -157 -181 -253t-292 -96q-113 0 -196 47l-267 -443h-114l303 501q-77 78 -106.5 201t-4.5 272q41 251 203 415t373 164
q81 0 155 -29l233 384h110zM807 1030q-51 21 -117 21q-174 0 -309.5 -139.5t-170.5 -355.5q-20 -123 -1 -224t74 -168z" />
    <glyph glyph-name="uni023D" unicode="&#x23d;" horiz-adv-x="1152" 
d="M122 0l122 730h-245l14 76h243l113 683h91l-113 -683h248l-14 -76h-246l-107 -646h727l-15 -84h-818z" />
    <glyph glyph-name="uni023E" unicode="&#x23e;" horiz-adv-x="1279" 
d="M104 -189l524 966l104 628h-476l15 84h744l102 190h151l-103 -190h149l-14 -84h-181l-425 -782l-103 -623h-91l63 383l-311 -572h-148zM759 1019l210 386h-146z" />
    <glyph glyph-name="uni023F" unicode="&#x23f;" horiz-adv-x="1014" 
d="M946 876l-85 -20q-33 197 -242 197q-125 0 -214 -62.5t-105 -161.5q-13 -79 30.5 -129.5t147.5 -77.5l166 -43q126 -33 181 -107.5t37 -183.5q-23 -139 -146 -225t-297 -86q-86 0 -151 22q13 -33 36 -90q59 -149 82 -188t58 -39q23 0 66 21t68 41l35 -85
q-26 -27 -76.5 -52.5t-82.5 -25.5q-72 0 -120.5 45t-92.5 157l-160 398l8 4q-9 31 -11 77l88 17q2 -31 7 -54q4 -10 15 -36t17 -39q63 -92 220 -92q138 0 234.5 66t113.5 169q26 156 -165 204l-169 43q-132 33 -189.5 108.5t-39.5 185.5q23 133 138.5 216.5t276.5 83.5
q279 0 321 -258z" />
    <glyph glyph-name="uni0240" unicode="&#x240;" horiz-adv-x="972" 
d="M177 104l-17 -104h-117l17 122l843 893h-720l17 102h832l-17 -108zM236 104q75 0 136.5 -24t101 -61.5t71.5 -83t55 -91t43.5 -83t45 -61t52.5 -23.5q77 0 126 42l33 -60q-31 -30 -77.5 -54t-95.5 -24q-45 0 -79.5 23t-57.5 60t-44 81.5t-47 89.5t-58.5 82t-85.5 60
t-122 23h-13zM236 104z" />
    <glyph glyph-name="uni0241" unicode="&#x241;" horiz-adv-x="1058" 
d="M473 415h6q76 0 139.5 25.5t106.5 65.5t76.5 96.5t52 112.5t30.5 119l19 111q9 66 10 126.5t-17.5 113.5t-50 92t-87 61.5t-129.5 22.5q-122 -1 -209.5 -72.5t-119.5 -194.5h-123q38 164 166.5 274t308.5 110q95 0 169 -29.5t118.5 -80t72 -118.5t29.5 -145t-9 -160
l-19 -111q-16 -98 -54.5 -187t-98 -162.5t-145.5 -122.5t-187 -61l-49 -301h-136l68 415h62z" />
    <glyph glyph-name="uni0242" unicode="&#x242;" horiz-adv-x="1055" 
d="M171 709q16 94 59.5 170.5t103 124.5t129 73.5t141.5 25.5q188 0 275.5 -100.5t50.5 -315.5q-50 -313 -355 -357l-56 -330h-129l70 421h85q110 1 175.5 73t83.5 201q13 61 5.5 116.5t-30 97t-72 66t-119.5 24.5q-107 0 -186.5 -84t-99.5 -206h-131zM495 324q-8 -1 -26 -1
h26v1z" />
    <glyph glyph-name="uni0243" unicode="&#x243;" horiz-adv-x="1421" 
d="M229 0l66 393h-245l14 75h243l169 1021h484q200 0 291.5 -104t61.5 -280q-23 -133 -100 -222t-187 -116l-1 -8q118 -10 186.5 -113.5t42.5 -259.5q-29 -176 -160 -281t-342 -105h-523zM335 84h432q164 0 269.5 83t129.5 219q23 142 -58.5 235.5t-233.5 93.5h-435
l-40 -247h247l-14 -75h-247zM454 798h424q137 0 231.5 87.5t115.5 219.5q23 140 -50 220t-230 80h-392z" />
    <glyph glyph-name="uni0244" unicode="&#x244;" horiz-adv-x="1493" 
d="M1547 876l-8 -79h-210l-48 -294q-39 -232 -220.5 -379.5t-416.5 -147.5q-234 0 -367.5 148t-95.5 379l49 294h-192l9 79h196l101 613h91l-101 -613h918l101 613h91l-101 -613h204zM1239 797h-918l-49 -294q-22 -128 21 -229t137 -156t222 -55t243 55t194 156t101 229z
" />
    <glyph glyph-name="uni0245" unicode="&#x245;" horiz-adv-x="1421" 
d="M1070 0l-247 1247l-652 -1247h-142l767 1412l-8 45h144l-23 -43l304 -1414h-143z" />
    <glyph glyph-name="uni0246" unicode="&#x246;" horiz-adv-x="1205" 
d="M1213 1679l-86 -190h72l-15 -84h-95l-281 -617h230l-15 -85h-254l-281 -619h495l-14 -84h-520l-85 -189h-166l86 189h-162l247 1489h592l86 190h166zM923 1405h-477l-102 -617h298zM604 703h-275l-101 -619h94z" />
    <glyph glyph-name="uni0247" unicode="&#x247;" horiz-adv-x="1171" 
d="M1196 1489l-263 -435q87 -69 124.5 -188.5t12.5 -271.5l-10 -55h-437l-266 -439q77 -41 178 -41q123 0 216 58t144 134l74 -33q-59 -98 -175.5 -169.5t-269.5 -71.5q-121 0 -211 49l-269 -445h-114l305 503q-78 77 -108 198.5t-5 270.5q41 251 203.5 416t369.5 165
q84 0 157 -31l234 386h110zM559 620l248 408q-55 23 -121 23q-155 0 -288 -125.5t-175 -305.5h336zM511 539h-304q-39 -249 74 -379zM886 977l-215 -357h313q19 111 -7.5 204.5t-90.5 152.5z" />
    <glyph glyph-name="uni0248" unicode="&#x248;" horiz-adv-x="1080" 
d="M928 1489h91l-94 -567h249l-14 -75h-247l-73 -443q-35 -213 -156.5 -318.5t-292.5 -105.5q-166 0 -260.5 90.5t-71.5 232.5h89q-17 -105 54.5 -172t195.5 -67q131 0 226.5 84t125.5 259l72 440h-244l14 75h243z" />
    <glyph glyph-name="uni0249" unicode="&#x249;" horiz-adv-x="464" 
d="M281 1117h88l-73 -444h247l-14 -76h-245l-122 -733q-22 -128 -112 -205.5t-214 -77.5q-16 0 -25 2l17 82h21q84 0 146.5 53.5t77.5 145.5l122 733h-247l13 76h247zM365 1315q-31 0 -52 21.5t-18 51.5q2 26 24 46.5t50 20.5q32 0 52.5 -21.5t17.5 -52.5q-1 -27 -23 -46.5
t-51 -19.5z" />
    <glyph glyph-name="uni024A" unicode="&#x24a;" horiz-adv-x="1529" 
d="M1475 1489l-274 -1643q-16 -96 21 -137t121 -41q27 0 40 5l-14 -85q-20 -9 -53 -7h-8q-95 0 -149 80.5t-36 184.5l64 401h-12q-76 -133 -209.5 -202t-290.5 -70q-286 1 -426 213.5t-81 564.5q54 338 263 547.5t497 209.5q158 0 270.5 -66.5t146.5 -191.5h19l40 237h71z
M647 75q115 0 209.5 36t161 96t119 148.5t85.5 183.5t57 211q12 90 9 175t-15.5 160t-44 137t-77.5 106.5t-115.5 69.5t-157.5 25q-152 0 -286 -89.5t-223 -242.5t-119 -341q-52 -303 62 -489t335 -186z" />
    <glyph glyph-name="uni024B" unicode="&#x24b;" horiz-adv-x="1245" 
d="M1026 -419q-96 0 -149 80t-38 185l14 70l41 252h-18q-3 -4 -28.5 -35t-49.5 -52.5t-64.5 -49.5t-97.5 -43t-124 -15q-220 0 -327 162t-65 421q28 165 108 295t205.5 205.5t275.5 75.5q67 0 118.5 -15t81 -40t47.5 -48t31 -49t19 -32h24l29 169h73l-198 -1201l-15 -70
q-15 -97 21 -137.5t119 -40.5q28 0 40 5l-12 -85q-24 -9 -54 -7h-7zM501 67q179 -1 300 134t158 358q35 220 -40 350t-256 130q-188 0 -311 -135.5t-157 -344.5q-20 -101 -8 -190.5t47 -156.5t104 -106t163 -39zM1007 649l-28 -170l21 64z" />
    <glyph glyph-name="uni024C" unicode="&#x24c;" horiz-adv-x="1253" 
d="M130 0l101 605h-194l18 113h194l128 771h459q210 0 311.5 -119t70.5 -316q-26 -151 -118.5 -258t-234.5 -149l243 -647h-100l-235 628q-31 -5 -79 -5h-370l-103 -623h-91zM338 708h367q170 0 283.5 93.5t139.5 252.5q26 162 -55.5 256.5t-252.5 94.5h-366z" />
    <glyph glyph-name="uni024D" unicode="&#x24d;" horiz-adv-x="756" 
d="M91 0l83 497h-245l14 76h243l91 544h87l-29 -174h8q49 86 145 137.5t207 51.5q76 0 125 -27l-43 -76q-39 18 -103 18q-140 0 -245 -88t-127 -223l-27 -163h250l-14 -76h-248l-83 -497h-89z" />
    <glyph glyph-name="uni024E" unicode="&#x24e;" horiz-adv-x="1288" 
d="M1396 1188l-14 -92h-325l-347 -420l-111 -676h-92l112 676l-207 420h-324l17 92h262l-149 301h104l147 -301h556l247 301h110l-250 -301h264zM513 1096l159 -325h12l266 325h-437z" />
    <glyph glyph-name="uni024F" unicode="&#x24f;" horiz-adv-x="1091" 
d="M1033 826l-21 -118h-142l-483 -917q-123 -230 -311 -230q-72 0 -121 26l38 78q96 -41 173.5 -3t144.5 163l86 161l-140 722h-120l23 118h74l-56 291h91l55 -291h512l151 291h99l-154 -291h101zM775 708h-429l112 -594h8z" />
    <glyph glyph-name="uni0250" unicode="&#x250;" horiz-adv-x="1123" 
d="M740 1141q151 0 237.5 -89t62.5 -243q-24 -139 -138 -214.5t-341 -102.5q-174 -20 -223 -35q-82 -25 -92 -80l-7 -46q-21 -123 41.5 -194.5t196.5 -71.5q116 0 211 52t144 136l77 -31q-65 -116 -183.5 -177.5t-253.5 -61.5q-77 0 -140.5 21.5t-110 63.5t-66 111.5
t-4.5 157.5l130 780h88l-34 -201h7q62 99 166.5 162t231.5 63zM723 1059q-157 0 -278.5 -112.5t-149.5 -282.5l-29 -164q60 45 298 71q186 22 278 79.5t110 161.5q18 113 -46 180t-183 67z" />
    <glyph glyph-name="uni0251" unicode="&#x251;" horiz-adv-x="1295" 
d="M485 -23q-208 2 -308 163t-56 421q41 254 193.5 412.5t358.5 158.5q74 0 138 -25t115.5 -73t82 -126.5t32.5 -178.5h2l129 388h85l-192 -561v-3l19 -553h-85l-8 381h-1q-36 -108 -93.5 -189t-126 -127t-140 -67.5t-145.5 -20.5zM986 561l-1 43q-1 196 -91 320.5
t-229 124.5q-156 0 -290 -145t-168 -352q-36 -215 42.5 -354t242.5 -139q94 0 182 47.5t167.5 153t130.5 259.5z" />
    <glyph glyph-name="uni0252" unicode="&#x252;" horiz-adv-x="1237" 
d="M1126 593l-3 -20q-44 -266 -182 -429t-333 -164q-221 1 -306 148l-37 -126h-103l137 821q6 51 6.5 81t-11 45.5t-21.5 20t-26 4.5q-2 0 -7 -1t-7 -1q-18 -2 -21 -1l-8 91q53 41 133 41q51 0 77.5 -35.5t26.5 -117.5q134 154 356 155q191 -1 279 -144t50 -368zM992 573
l3 20q32 181 -30 294t-220 114q-186 -1 -325 -234l-76 -464q65 -219 244 -219q85 0 155.5 39t119 108.5t80.5 155t49 186.5z" />
    <glyph glyph-name="uni0253" unicode="&#x253;" horiz-adv-x="1216" 
d="M340 948q-109 -131 -149 -325l103 622q16 101 90.5 183t176.5 82h6q36 3 53 -7l-18 -86q-8 6 -38 6q-80 0 -127.5 -40.5t-64.5 -137.5l-47 -297h15zM609 -40q-152 -34 -254 21t-149 187h6q5 -6 19.5 -35t32 -52.5t48 -50t82.5 -42t119 -15.5q220 0 381 162t203 421
q28 165 -9.5 295t-138 205.5t-249.5 75.5q-84 0 -157 -27q67 30 120 41q116 24 204 -1t141.5 -92t78.5 -165t22 -223q-7 -170 -65 -316.5t-171 -251.5t-264 -137zM87 0l92 551q-7 -51 -8 -97q-6 -171 35 -286h-19l-27 -168h-73zM404 1015q59 61 139 90q-75 -34 -139 -90z
M340 948q30 36 64 67q-13 -14 -33.5 -37.5t-27.5 -29.5h-3zM191 623l-12 -72q5 40 12 72z" />
    <glyph glyph-name="uni0254" unicode="&#x254;" horiz-adv-x="1058" 
d="M52 320h123q-5 -96 67 -166.5t178 -69.5q93 0 168.5 38t124 102.5t79 137.5t44.5 155l8 50q9 65 10 127t-17 117.5t-49 97t-86.5 66t-128.5 24.5q-118 0 -207.5 -77t-121.5 -189h-123q36 150 166 260t306 110q94 0 167.5 -29.5t117.5 -80.5t71.5 -119t29 -146t-10.5 -161
l-6 -50q-15 -84 -45 -161.5t-78.5 -146.5t-110.5 -119.5t-144.5 -80t-176.5 -29.5q-77 0 -146 31t-115.5 79.5t-72 109.5t-21.5 120z" />
    <glyph glyph-name="uni0255" unicode="&#x255;" horiz-adv-x="1098" 
d="M500 -25q-121 1 -209.5 55t-134.5 152q-33 -23 -133 -94q-73 -54 -107 -75.5t-35 -9.5l-53 85q16 -1 114 79q84 70 176 136q-22 113 2 258q41 248 201 409.5t368 161.5q150 0 249 -82.5t106 -214.5h-91q-14 82 -85 141.5t-193 59.5q-180 0 -312.5 -133t-165.5 -344
q-19 -112 -4 -206q273 179 493 179q139 0 192.5 -68t32.5 -177q-12 -74 -54 -135t-101 -98.5t-125 -58t-131 -20.5zM231 233q40 -76 113.5 -117.5t171.5 -40.5q102 -1 189 59.5t99 150.5q10 63 -32 97.5t-96 34.5q-163 0 -445 -184z" />
    <glyph glyph-name="uni0256" unicode="&#x256;" horiz-adv-x="1216" 
d="M1028 -419q-96 0 -149 80t-38 185l25 154h-19l40 244h-11q-63 -118 -166 -192.5t-238 -74.5q-133 0 -222.5 74t-122.5 205.5t-6 299.5q43 255 193 416.5t350 161.5q135 0 214 -74.5t102 -191.5h8l104 621h88l-215 -1294h15l-56 -332q-8 -45 -8.5 -78t7.5 -54t18.5 -34
t31.5 -19t39.5 -7.5t48.5 -1.5q24 0 42 6l-14 -87q-23 -9 -53 -7h-8zM487 59q168 0 291 139.5t159 357.5q37 219 -36.5 357t-240.5 138q-168 0 -291 -139.5t-159 -355.5q-23 -142 -0.5 -253.5t94 -177.5t183.5 -66z" />
    <glyph glyph-name="uni0257" unicode="&#x257;" horiz-adv-x="1203" 
d="M508 -27q-220 0 -327.5 162t-64.5 421q42 252 202.5 414t385.5 162q57 0 103 -11.5t74 -28t50.5 -39.5t33 -41.5t21 -38t15.5 -25.5h19l53 311q7 42 25 83t48 81.5t80 66t111 25.5q47 -4 60 -10l-16 -90q-2 4 -36 4h-5q-83 0 -128.5 -37.5t-59.5 -122.5l-209 -1259h-72
l26 168h-24q-7 -7 -31 -35.5t-49.5 -52t-64.5 -50t-96 -42t-124 -15.5zM497 67q179 -1 299.5 134t158.5 358q37 219 -39.5 349.5t-258.5 130.5q-96 0 -176.5 -37.5t-137.5 -103.5t-95 -152t-55 -187q-11 -81 -9.5 -154t24 -135t59 -107.5t95.5 -70.5t135 -25z" />
    <glyph glyph-name="uni0258" unicode="&#x258;" horiz-adv-x="1058" 
d="M404 -20q-79 0 -141 18t-103.5 52t-68 70t-48.5 84l108 44q22 -37 43.5 -63.5t53 -51t74.5 -37t97 -12.5q154 -1 263 120t141 299v2h-733l6 59q16 93 42 170.5t69 147t98.5 117.5t133 76t171.5 28q57 0 113.5 -21.5t108 -65.5t85.5 -110.5t47.5 -157t-6.5 -204.5l-6 -41
q-41 -239 -190 -381t-358 -142zM840 636q6 95 -12 167t-54 113.5t-81.5 62t-99.5 20.5q-253 0 -348 -354l2 -9h593z" />
    <glyph glyph-name="uni0259" unicode="&#x259;" horiz-adv-x="1186" 
d="M663 1140q149 0 250 -74.5t140 -205t11 -296.5q-41 -251 -203 -416t-369 -165q-94 0 -172 38.5t-130.5 107t-73 171t-0.5 223.5l11 55h853q34 218 -51.5 349t-276.5 131q-123 0 -216.5 -58t-144.5 -134l-74 33q59 97 176 169t270 72zM964 497h-762q-20 -119 11.5 -218
t106.5 -156t180 -57q155 0 288.5 125.5t175.5 305.5z" />
    <glyph glyph-name="uni025A" unicode="&#x25a;" horiz-adv-x="1315" 
d="M526 1103q174 0 277 -99.5t111 -271.5l156 24q-2 -59 2.5 -104t17.5 -82.5t38.5 -57.5t62.5 -20h18q37 0 43 3l5 -78q-69 -25 -110 -24q-53 0 -90.5 16.5t-57.5 48.5t-29 68t-11 83l-53 -10q0 -2 -1 -7t-1 -7l-6 -47q-18 -109 -62 -202.5t-100.5 -157.5t-123 -110
t-130.5 -67t-121 -21q-93 0 -161.5 28.5t-108 77t-59 119t-19 149t16.5 170.5l9 66l692 110l-25 -136l-551 -92l-3 -35q-6 -48 -7.5 -97t13.5 -95.5t39.5 -82t71 -57t109.5 -21.5q61 0 119 25t111.5 76.5t95 142.5t61.5 210l6 47q20 111 -1 204t-89 151.5t-173 58.5
q-175 0 -317 -165l-100 45q41 49 79.5 85t91.5 70t119.5 51.5t144.5 17.5z" />
    <glyph glyph-name="uni025B" unicode="&#x25b;" horiz-adv-x="948" 
d="M620 532h-2l-1 -8h-117q-134 -1 -222 -68.5t-103 -159.5q-16 -95 64 -150.5t226 -55.5q135 0 221.5 57.5t142.5 180.5h97q-57 -159 -183 -253.5t-320 -94.5q-176 0 -275.5 91t-76.5 232q32 191 242 251q-40 12 -68.5 28.5t-43.5 38.5t-23.5 41.5t-9 47t1 45t5.5 44.5
q27 154 145 243.5t292 89.5q182 0 275 -81.5t98 -233.5h-101q-9 93 -81.5 150.5t-199.5 58.5q-133 -1 -223.5 -57.5t-106.5 -153.5q-13 -87 45.5 -135.5t196.5 -48.5h118z" />
    <glyph glyph-name="uni025C" unicode="&#x25c;" horiz-adv-x="1056" 
d="M423 532l18 99h119q138 0 213 48.5t90 135.5q16 97 -55.5 153.5t-204.5 57.5q-127 -1 -218.5 -58.5t-132.5 -150.5h-101q55 152 175.5 233.5t302.5 81.5q174 0 262 -89.5t65 -243.5q-7 -42 -16 -69t-31 -65t-65 -66t-107 -45q189 -59 159 -251q-23 -141 -153 -232
t-306 -91q-194 0 -288.5 94.5t-99.5 253.5h96q15 -123 83 -180.5t203 -57.5q146 0 244.5 55.5t114.5 150.5q15 92 -50.5 159.5t-199.5 68.5h-118l2 8h-1z" />
    <glyph glyph-name="uni025D" unicode="&#x25d;" horiz-adv-x="1352" 
d="M420 532l19 99h119q138 0 213 48.5t90 135.5q16 97 -55.5 153.5t-204.5 57.5q-127 -1 -218.5 -58.5t-132.5 -150.5h-101q55 152 175.5 233.5t302.5 81.5q143 0 229.5 -62t99.5 -172l187 33q-1 -62 3.5 -107t17 -84t37 -59t61.5 -20q35 0 67 8l3 -76q-51 -28 -111 -28
q-101 0 -144.5 60t-44.5 154l-85 -12q-7 -35 -18.5 -62t-34 -57.5t-63 -54.5t-96.5 -39q189 -59 159 -251q-23 -141 -153 -232t-306 -91q-194 0 -288.5 94.5t-99.5 253.5h96q15 -123 82.5 -180.5t202.5 -57.5q146 0 245 55.5t115 150.5q15 92 -51 159.5t-200 68.5h-117l2 8
h-2z" />
    <glyph glyph-name="uni025E" unicode="&#x25e;" horiz-adv-x="1046" 
d="M436 -20q-495 0 -397 598q20 124 64.5 223t115 174.5t174.5 116t235 40.5q180 0 274 -90t70 -243q-7 -39 -17 -68.5t-33.5 -66t-69 -65t-111.5 -45.5q198 -60 171 -251q-23 -140 -158.5 -231.5t-317.5 -91.5zM358 532h-1l18 101h184q144 0 225 48t96 134
q16 97 -58.5 153.5t-207.5 57.5q-107 0 -193.5 -35t-144.5 -96.5t-94.5 -141t-52.5 -175.5q-19 -108 -8.5 -198t46 -154.5t105.5 -100t170 -35.5q146 -1 247.5 55t116.5 151q16 90 -57 157t-209 67h-184z" />
    <glyph glyph-name="uni025F" unicode="&#x25f;" horiz-adv-x="464" 
d="M281 1117h88l-73 -444h247l-14 -76h-245l-122 -733q-22 -128 -112 -205.5t-214 -77.5q-16 0 -25 2l17 82h21q84 0 146.5 53.5t77.5 145.5l122 733h-247l13 76h247z" />
    <glyph glyph-name="uni0260" unicode="&#x260;" horiz-adv-x="1208" 
d="M422 -442q-154 0 -252.5 59.5t-128.5 164.5l80 41q25 -85 101 -134.5t206 -49.5q166 0 274.5 85.5t136.5 252.5l45 278h-8q-57 -113 -163 -181t-239 -68q-200 0 -297.5 151.5t-55.5 401.5q42 254 191 414.5t350 160.5q136 0 213.5 -73.5t103.5 -192.5h10l41 249h86
l-189 -1143q-34 -205 -168.5 -310.5t-336.5 -105.5zM489 88q168 0 289.5 126.5t158.5 344.5q35 217 -39.5 354.5t-241.5 137.5q-169 0 -290.5 -139t-156.5 -353t38 -342.5t242 -128.5zM1135 1146h-72l19 99q22 106 90.5 185.5t170.5 79.5h5q35 3 51 -7l-14 -85v-1v1
q-10 5 -42 5q-79 0 -124.5 -40t-63.5 -138z" />
    <glyph glyph-name="uni0261" unicode="&#x261;" horiz-adv-x="1213" 
d="M424 -442q-154 0 -252.5 59.5t-128.5 164.5l80 41q25 -85 101.5 -134.5t206.5 -49.5q166 0 274 85.5t136 252.5l46 278h-9q-57 -113 -163 -181t-239 -68q-200 0 -297.5 151.5t-55.5 401.5q42 254 191 414.5t350 160.5q136 0 213.5 -73.5t103.5 -192.5h10l41 249h86
l-189 -1143q-34 -205 -168.5 -310.5t-336.5 -105.5zM491 88q168 0 289.5 126.5t158.5 344.5q35 217 -39.5 354.5t-241.5 137.5q-168 0 -289.5 -139t-156.5 -353t37.5 -342.5t241.5 -128.5z" />
    <glyph glyph-name="uni0262" unicode="&#x262;" horiz-adv-x="1235" 
d="M1067 529l-66 -376q-46 -58 -175 -116.5t-290 -59.5q-222 1 -337.5 136.5t-78.5 349.5l26 162q35 210 197.5 344t380.5 134q108 0 186.5 -30t120.5 -81.5t59.5 -112.5t12.5 -131h-103q7 119 -72 186t-222 67q-105 0 -206.5 -50t-172 -137t-86.5 -189l-26 -162
q-28 -160 71 -270t267 -109q111 -1 213.5 38.5t146.5 74.5l35 204h-319l23 128h415z" />
    <glyph glyph-name="uni0263" unicode="&#x263;" horiz-adv-x="1128" 
d="M396 -436q-107 0 -149 59.5t-24 161.5q4 34 59 128l154 241l-287 983h104l268 -851l544 851h104l-608 -978l78 -251q13 -44 3 -109q0 -2 -0.5 -7t-1.5 -7q-41 -221 -244 -221zM476 23q-24 -38 -58 -87.5t-49 -72.5t-28.5 -49.5t-16.5 -46.5q-4 -30 24 -50t71 -20
q42 0 78 22t40 48q3 29 -6 69t-37 128q-5 19 -18 59z" />
    <glyph glyph-name="uni0264" unicode="&#x264;" horiz-adv-x="1526" 
d="M311 863l-96 90q77 72 142 111t146 39q46 0 86.5 -22t69 -53.5t56 -83t44 -94t37.5 -103.5q40 60 71 103t75.5 94.5t83.5 83t87 53.5t95 22q138 0 235 -150l-122 -90q-41 93 -109 93q-37 0 -65.5 -12.5t-67.5 -53.5t-79.5 -94.5t-116.5 -158.5q-21 -30 -33 -46
q3 -7 8.5 -22t8.5 -22q29 -77 45 -124t27.5 -106t5.5 -100q-19 -111 -90 -174t-187 -63q-114 0 -165 63.5t-32 173.5q2 16 7 33.5t15 38.5t18 37.5t24 42t26 41t30.5 44.5t30.5 43t34 47t33 45q-84 227 -107 271q-36 73 -80 89q-20 7 -49 7q-63 0 -142 -93zM744 440
q-113 -167 -122 -234q-8 -44 7 -69t60 -24q85 -1 102 93q9 73 -47 234z" />
    <glyph glyph-name="uni0265" unicode="&#x265;" horiz-adv-x="1162" 
d="M884 428l114 689h78l-256 -1536h-84l95 578h-14q-115 -174 -355 -174q-377 0 -308 424l119 708h79l-120 -725q-26 -153 38.5 -237t206.5 -83q151 -1 263.5 93.5t143.5 262.5z" />
    <glyph glyph-name="uni0266" unicode="&#x266;" horiz-adv-x="1175" 
d="M364 1117l-29 -177h8q53 88 149.5 140t214.5 52q170 0 257 -107t57 -288l-123 -737h-89l123 733q23 143 -45.5 229.5t-206.5 86.5q-142 0 -248.5 -90t-131.5 -235l-120 -724h-89l186 1117l25 155q18 107 94.5 172.5t179.5 65.5q42 0 58 -3l-14 -79q-11 1 -43 1
q-72 0 -124.5 -41.5t-64.5 -115.5z" />
    <glyph glyph-name="uni0267" unicode="&#x267;" horiz-adv-x="1148" 
d="M794 0h15l123 733q23 143 -45.5 229.5t-206.5 86.5q-142 0 -248.5 -90t-131.5 -235l-120 -724h-89l186 1117l25 155q18 107 94.5 172.5t179.5 65.5q42 0 58 -3l-14 -79q-11 1 -43 1q-72 0 -124.5 -41.5t-64.5 -115.5l-24 -155l-29 -177h8q53 88 149.5 140t214.5 52
q170 0 257 -107t57 -288l-123 -737h-25l-29 -154q-24 -106 -102.5 -185.5t-172.5 -79.5h-7q-37 -3 -48 7l12 85q12 -5 41 -5q80 0 128.5 40.5t67.5 137.5z" />
    <glyph glyph-name="uni0268" unicode="&#x268;" horiz-adv-x="464" 
d="M95 0l92 548h-247l13 75h246l82 494h88l-82 -494h248l-14 -75h-246l-92 -548h-88zM367 1316q-31 0 -52 21.5t-18 51.5q2 26 24 46t50 20q32 0 52.5 -21t17.5 -52q-1 -27 -23 -46.5t-51 -19.5z" />
    <glyph glyph-name="uni0269" unicode="&#x269;" horiz-adv-x="691" 
d="M282 1082h126l-140 -835q-17 -91 9 -133t101 -41q8 -2 40 3l-11 -87q-41 -9 -61 -9q-100 0 -160.5 82t-42.5 185z" />
    <glyph glyph-name="uni026A" unicode="&#x26a;" horiz-adv-x="584" 
d="M591 1082l-16 -104h-148l-146 -874h147l-17 -104h-420l17 104h143l145 874h-141l17 104h419z" />
    <glyph glyph-name="uni026B" unicode="&#x26b;" horiz-adv-x="595" 
d="M502 1489l-110 -663q8 -6 25 -19.5t27 -20t25.5 -15t32 -12.5t34.5 -4q48 0 91 32.5t58 80.5l72 -12q-23 -80 -88.5 -130.5t-141.5 -50.5q-18 0 -34.5 3.5t-27 6.5t-27 13t-20.5 12.5t-22 17t-19 15.5l-122 -743h-89l130 783q-9 2 -31 2q-52 0 -93 -31.5t-54 -80.5l-74 6
q20 82 85.5 134t146.5 52q23 0 33 -2l104 626h89z" />
    <glyph glyph-name="uni026C" unicode="&#x26c;" horiz-adv-x="742" 
d="M740 632h-212l-22 -135h-1l-83 -497h-79l83 497h-1l22 135h-110q-47 0 -91.5 17.5t-78.5 49.5t-49.5 82.5t-4.5 110.5q15 103 95.5 171.5t184.5 68.5q79 0 131 -44l67 401h78l-92 -552q-1 -3 -1 -8t-1 -8l-26 -162h213zM468 759l24 143q9 49 -22 86.5t-98 38.5
q-50 -1 -89.5 -41.5t-47.5 -97.5q-11 -53 21 -91t89 -38h123z" />
    <glyph glyph-name="uni026D" unicode="&#x26d;" horiz-adv-x="467" 
d="M166 0l-26 -154q-16 -96 20.5 -137t118.5 -41q30 0 42 5l-13 -85q-19 -10 -55 -7h-6q-96 0 -150.5 81t-35.5 184l26 154h4l247 1489h89l-247 -1489h-14z" />
    <glyph glyph-name="uni026E" unicode="&#x26e;" horiz-adv-x="1187" 
d="M369 1489h91l-62 -372h718l-13 -76l-483 -526l-3 -12q82 -8 151 -41.5t117.5 -90t69.5 -141.5t5 -187q-35 -190 -183 -313t-346 -123q-202 0 -324 120l71 82q91 -108 270 -108q164 0 286 92.5t145 235.5q26 161 -61.5 263.5t-246.5 102.5h-112l18 97l480 515l3 12h-579
l-174 -1052h-91z" />
    <glyph glyph-name="uni026F" unicode="&#x26f;" horiz-adv-x="1733" 
d="M1643 1117l-186 -1117h-87l29 169h-8q-48 -85 -135.5 -134.5t-196.5 -49.5q-230 0 -268 216h-8q-49 -100 -144 -158t-218 -58q-159 0 -229 101.5t-40 280.5l125 750h89l-125 -750q-24 -142 29.5 -220.5t180.5 -78.5q135 0 226.5 85t113.5 222l125 742h88l-125 -756
q-22 -136 30 -214.5t179 -78.5q132 0 226.5 88.5t117.5 227.5l122 733h89z" />
    <glyph glyph-name="uni0270" unicode="&#x270;" horiz-adv-x="1722" 
d="M1303 -419l69 419h-2l29 169h-8q-48 -85 -135.5 -134.5t-196.5 -49.5q-230 0 -268 216h-8q-49 -100 -144 -158t-218 -58q-159 0 -229 101.5t-40 280.5l125 750h89l-125 -750q-24 -142 29.5 -220.5t180.5 -78.5q135 0 226.5 85t113.5 222l125 742h88l-125 -756
q-22 -136 30 -214.5t179 -78.5q132 0 226.5 88.5t117.5 227.5l122 733h89l-186 -1117h-6l-70 -419h-78z" />
    <glyph glyph-name="uni0271" unicode="&#x271;" horiz-adv-x="1722" 
d="M1367 0h1l125 750q24 142 -29.5 220.5t-180.5 78.5q-136 0 -227 -84.5t-113 -221.5l-125 -743h-89l126 756q22 136 -30 214.5t-179 78.5q-132 0 -226.5 -88.5t-117.5 -227.5l-122 -733h-89l186 1117h87l-29 -169h8q48 85 135.5 134.5t196.5 49.5q230 0 268 -216h8
q49 100 144 158t218 58q159 0 229 -101.5t40 -280.5l-125 -750h-10l-27 -154q-19 -104 -98.5 -184.5t-173.5 -80.5h-8q-36 -2 -49 7l14 85q10 -5 41 -5q81 0 129.5 40.5t64.5 137.5z" />
    </font>
</defs>
</svg>
